<svg width="22" height="22" viewBox="0 0 22 22" fill="none" xmlns="http://www.w3.org/2000/svg">
<path d="M10.8182 21C16.2408 21 20.6364 16.523 20.6364 11C20.6364 5.477 16.2408 1 10.8182 1C5.3956 1 1 5.477 1 11C1 16.523 5.3956 21 10.8182 21Z" stroke="black" stroke-width="2" stroke-linecap="round" stroke-linejoin="round"/>
<path d="M13.7637 7.5C13.0912 6.815 11.9071 6.339 10.8183 6.309M10.8183 6.309C9.52226 6.273 8.36371 6.87 8.36371 8.5C8.36371 11.5 13.7637 10 13.7637 13C13.7637 14.711 12.3263 15.446 10.8183 15.391M10.8183 6.309V4.5M7.8728 14C8.50509 14.86 9.68229 15.35 10.8183 15.391M10.8183 15.391V17.5" stroke="black" stroke-width="2" stroke-linecap="round" stroke-linejoin="round"/>
</svg>
