<svg width="25" height="19" viewBox="0 0 25 19" fill="none" xmlns="http://www.w3.org/2000/svg">
<path d="M3.51483 11.7429L3.5149 11.743C3.66592 11.9075 3.87682 11.9997 4.0963 11.9995C4.09635 11.9995 4.0964 11.9995 4.09644 11.9995L9.19551 11.9925H9.19554C9.51946 11.992 9.83873 11.9153 10.1275 11.7686L10.1278 11.7685L21.4934 6.00089C22.4767 5.50185 23.3378 4.79958 23.917 3.89864L24.3327 4.16588L23.917 3.89864C24.5928 2.84753 24.5676 2.24186 24.4003 1.90508L24.4 1.90446C24.2346 1.57019 23.7743 1.18967 22.5403 1.10939L3.51483 11.7429ZM3.51483 11.7429L0.546208 8.51096C0.461975 8.4054 0.497921 8.24781 0.613534 8.1891C0.613541 8.1891 0.613549 8.18909 0.613556 8.18909L2.18101 7.39345C2.20834 7.37959 2.23855 7.37234 2.26919 7.3723C2.29984 7.37227 2.33007 7.37943 2.35744 7.39323L2.35747 7.39325L5.18364 8.81786L5.40947 8.93169L5.63499 8.81724L9.66663 6.77115L10.4541 6.37149L9.70625 5.90185L3.67931 2.11717C3.62186 2.01412 3.6604 1.87833 3.76607 1.82475L3.76624 1.82466L6.3346 0.521144L6.10831 0.0752815L6.3346 0.521143C6.36562 0.505401 6.40028 0.498229 6.435 0.50037C6.46972 0.502511 6.50323 0.513887 6.53208 0.533321L6.5808 0.566138L6.63579 0.586772L15.1788 3.79224L15.3846 3.86948M3.51483 11.7429L15.3846 3.86948M15.3846 3.86948L15.5807 3.76998M15.3846 3.86948L15.5807 3.76998M15.5807 3.76998L19.4286 1.81731M15.5807 3.76998L19.4286 1.81731M19.4286 1.81731C20.4123 1.31849 21.4828 1.04066 22.5403 1.10938L19.4286 1.81731ZM0.625111 16.7503H24.3751C24.4443 16.7503 24.5001 16.8061 24.5001 16.8753V18.1253C24.5001 18.1945 24.4443 18.2503 24.3751 18.2503H0.625111C0.555941 18.2503 0.500111 18.1945 0.500111 18.1253V16.8753C0.500111 16.8061 0.555941 16.7503 0.625111 16.7503Z" stroke="black"/>
</svg>
