<svg width="224" height="171" viewBox="0 0 224 171" fill="none" xmlns="http://www.w3.org/2000/svg">
<path d="M224 150.272H0V150.387H224V150.272Z" fill="#E6E6E6"/>
<path d="M169.191 155.133H153.78V155.248H169.191V155.133Z" fill="#E6E6E6"/>
<path d="M49.7455 155.188H41.0723V155.303H49.7455V155.188Z" fill="#E6E6E6"/>
<path d="M112.449 154.922H94.8691V155.036H112.449V154.922Z" fill="#E6E6E6"/>
<path d="M94.4204 153.288H86.5625V153.402H94.4204V153.288Z" fill="#E6E6E6"/>
<path d="M190.203 153.343H166.464V153.458H190.203V153.343Z" fill="#E6E6E6"/>
<path d="M106.176 129.801H19.6718C18.9941 129.8 18.3446 129.524 17.8658 129.032C17.3871 128.541 17.1182 127.875 17.1182 127.181V2.59786C17.1241 1.90756 17.3956 1.24752 17.8737 0.7611C18.3518 0.274684 18.998 0.00118253 19.6718 0H106.176C106.855 0 107.505 0.276121 107.985 0.767618C108.465 1.25912 108.734 1.92573 108.734 2.62081V127.181C108.734 127.876 108.465 128.542 107.985 129.034C107.505 129.525 106.855 129.801 106.176 129.801ZM19.6718 0.0917976C19.0238 0.0930135 18.4028 0.35758 17.945 0.827427C17.4873 1.29727 17.2302 1.93401 17.2302 2.59786V127.181C17.2302 127.844 17.4873 128.481 17.945 128.951C18.4028 129.421 19.0238 129.685 19.6718 129.687H106.176C106.824 129.685 107.446 129.421 107.904 128.951C108.363 128.482 108.621 127.845 108.622 127.181V2.59786C108.621 1.93359 108.363 1.29686 107.904 0.827147C107.446 0.357431 106.824 0.0930109 106.176 0.0917976H19.6718Z" fill="#E6E6E6"/>
<path d="M203.083 129.801H116.575C115.897 129.8 115.247 129.524 114.767 129.032C114.288 128.541 114.018 127.875 114.017 127.181V2.59786C114.024 1.90714 114.296 1.2471 114.775 0.760813C115.254 0.274524 115.9 0.00116963 116.575 0H203.083C203.757 0.00238879 204.402 0.276424 204.879 0.762711C205.356 1.249 205.627 1.90835 205.633 2.59786V127.181C205.633 127.874 205.364 128.539 204.887 129.031C204.409 129.522 203.76 129.799 203.083 129.801ZM116.575 0.0917976C115.926 0.0930109 115.305 0.357431 114.846 0.827147C114.388 1.29686 114.13 1.93359 114.129 2.59786V127.181C114.13 127.845 114.388 128.482 114.846 128.951C115.305 129.421 115.926 129.685 116.575 129.687H203.083C203.732 129.685 204.353 129.421 204.812 128.951C205.27 128.482 205.528 127.845 205.53 127.181V2.59786C205.528 1.93359 205.27 1.29686 204.812 0.827147C204.353 0.357431 203.732 0.0930109 203.083 0.0917976H116.575Z" fill="#E6E6E6"/>
<path d="M189.517 8.5509H128.464V81.438H189.517V8.5509Z" fill="#E0E0E0"/>
<path d="M191.174 8.5509H129.238V81.438H191.174V8.5509Z" fill="#F5F5F5"/>
<path d="M189.517 81.4333H128.464V85.5183H189.517V81.4333Z" fill="#E0E0E0"/>
<path d="M198.763 81.4333H140.456V85.5183H198.763V81.4333Z" fill="#F5F5F5"/>
<path d="M188.854 78.3444V11.6399L131.563 11.6399V78.3444H188.854Z" fill="#FAFAFA"/>
<path d="M139.803 78.3444L153.44 11.6399H171.315L157.678 78.3444H139.803Z" fill="white"/>
<path d="M160.572 78.3444L174.205 11.6399H182.278L168.645 78.3444H160.572Z" fill="white"/>
<path d="M126.722 8.44533V34.3964H133.442C133.442 34.3964 145.479 26.3504 148.226 9.79474C148.291 9.40047 148.271 8.99641 148.168 8.61064C148.066 8.22488 147.882 7.86668 147.631 7.56092C147.379 7.25517 147.066 7.00921 146.712 6.84013C146.358 6.67105 145.973 6.58291 145.582 6.58184H128.558C128.318 6.58002 128.08 6.62685 127.858 6.71963C127.635 6.81241 127.433 6.94931 127.262 7.12248C127.091 7.29564 126.956 7.50164 126.863 7.72866C126.77 7.95568 126.722 8.19923 126.722 8.44533Z" fill="#BA2D3B"/>
<path d="M126.722 75.9944V36.4894H133.442C133.442 36.4894 137.294 44.4666 141.134 53.6372C142.155 56.0771 142.569 58.7386 142.339 61.3829C142.108 64.0272 141.241 66.5716 139.814 68.7877C138.387 71.0038 136.446 72.8224 134.164 74.0802C131.882 75.338 129.331 75.9958 126.74 75.9944H126.722Z" fill="#BA2D3B"/>
<path d="M133.225 34.3965H126.967C126.596 34.3965 126.295 34.7047 126.295 35.085V35.801C126.295 36.1812 126.596 36.4895 126.967 36.4895H133.225C133.597 36.4895 133.897 36.1812 133.897 35.801V35.085C133.897 34.7047 133.597 34.3965 133.225 34.3965Z" fill="#F5F5F5"/>
<path d="M193.088 8.44536V34.3965H186.368C186.368 34.3965 174.326 26.3504 171.584 9.79478C171.519 9.40089 171.539 8.99722 171.641 8.61178C171.744 8.22635 171.927 7.86838 172.178 7.56271C172.429 7.25703 172.742 7.01098 173.095 6.84161C173.448 6.67224 173.833 6.58361 174.223 6.58188H191.247C191.488 6.57945 191.726 6.62584 191.949 6.71834C192.172 6.81085 192.375 6.94765 192.547 7.12088C192.718 7.2941 192.854 7.50031 192.947 7.72763C193.04 7.95495 193.088 8.19888 193.088 8.44536Z" fill="#BA2D3B"/>
<path d="M193.134 76.0036V36.4986H186.414C186.414 36.4986 182.561 44.4712 178.717 53.6463C177.703 56.087 177.294 58.7471 177.528 61.3889C177.762 64.0308 178.63 66.5723 180.056 68.7864C181.482 71.0006 183.421 72.8185 185.7 74.0778C187.979 75.3372 190.526 75.9988 193.116 76.0036H193.134Z" fill="#BA2D3B"/>
<path d="M186.569 36.4894H192.828C193.199 36.4894 193.5 36.1812 193.5 35.801V35.0849C193.5 34.7047 193.199 34.3965 192.828 34.3965H186.569C186.198 34.3965 185.897 34.7047 185.897 35.0849V35.801C185.897 36.1812 186.198 36.4894 186.569 36.4894Z" fill="#F5F5F5"/>
<path d="M89.9979 40.6616H63.1045V70.8216H89.9979V40.6616Z" fill="#E0E0E0"/>
<path d="M93.7801 40.6616H64.5615V70.8216H93.7801V40.6616Z" fill="#FAFAFA"/>
<path d="M90.7656 67.7372V43.7506H67.5727V67.7372H90.7656Z" fill="white"/>
<path d="M73.0234 55.7439C73.0246 54.2413 73.6081 52.8007 74.6455 51.7387C75.683 50.6766 77.0896 50.08 78.5562 50.08H79.8017C81.2675 50.0812 82.673 50.6784 83.7095 51.7403C84.746 52.8022 85.3288 54.2421 85.33 55.7439C85.33 56.4877 85.187 57.2242 84.9092 57.9114C84.6314 58.5986 84.2241 59.2229 83.7108 59.7489C83.1974 60.2748 82.588 60.692 81.9173 60.9767C81.2465 61.2613 80.5277 61.4078 79.8017 61.4078H78.5562C77.8299 61.4084 77.1105 61.2624 76.4393 60.978C75.768 60.6936 75.1581 60.2765 74.6442 59.7505C74.1304 59.2245 73.7228 58.5999 73.4447 57.9124C73.1666 57.225 73.0234 56.4881 73.0234 55.7439Z" fill="#F5F5F5"/>
<path d="M41.3239 47.8585C37.5812 47.8585 33.9917 46.3353 31.3452 43.6239C28.6987 40.9124 27.2119 37.235 27.2119 33.4005C27.2119 29.5659 28.6987 25.8885 31.3452 23.1771C33.9917 20.4656 37.5812 18.9424 41.3239 18.9424H43.873V47.8585H41.3239Z" fill="#E0E0E0"/>
<path d="M43.8716 47.8585C51.6605 47.8585 57.9746 41.3895 57.9746 33.4096C57.9746 25.4297 51.6605 18.9607 43.8716 18.9607C36.0827 18.9607 29.7686 25.4297 29.7686 33.4096C29.7686 41.3895 36.0827 47.8585 43.8716 47.8585Z" fill="#FAFAFA"/>
<path d="M43.8728 44.306C49.7467 44.306 54.5083 39.4275 54.5083 33.4096C54.5083 27.3918 49.7467 22.5133 43.8728 22.5133C37.999 22.5133 33.2373 27.3918 33.2373 33.4096C33.2373 39.4275 37.999 44.306 43.8728 44.306Z" fill="white"/>
<path d="M48.254 37.4854L43.0303 33.7493L44.6879 25.4967L46.1663 25.8088L44.7103 33.0654L49.1186 36.214L48.254 37.4854Z" fill="#E0E0E0"/>
<path d="M157.849 98.6821H138.625V151.897H157.849V98.6821Z" fill="#E0E0E0"/>
<path d="M152.714 151.897H157.849V143.084H147.334L152.714 151.897Z" fill="#FAFAFA"/>
<path d="M42.6006 98.6821H23.377V151.897H42.6006V98.6821Z" fill="#E0E0E0"/>
<path d="M157.853 98.6821H38.1201V148.863H157.853V98.6821Z" fill="#FAFAFA"/>
<path d="M43.2542 151.897H38.1201V143.084H48.6347L43.2542 151.897Z" fill="#FAFAFA"/>
<path d="M153.87 102.997H42.1025V121.466H153.87V102.997Z" fill="#F0F0F0"/>
<path d="M153.87 125.932H42.1025V144.402H153.87V125.932Z" fill="#F0F0F0"/>
<path d="M137.482 102.997H42.1025V121.466H137.482V102.997Z" fill="#E0E0E0"/>
<path d="M71.4741 105.489H65.6725C65.6725 105.489 66.6805 109.055 66.6805 111.153C66.6805 113.25 62.2677 121.471 68.5755 121.471C74.8834 121.471 70.4661 113.25 70.4661 111.153C70.4661 109.055 71.4741 105.489 71.4741 105.489Z" fill="#FAFAFA"/>
<path d="M48.6348 111.685V114.93C48.6348 118.529 52.0306 121.471 56.1791 121.471H59.9199C64.0684 121.471 67.4642 118.529 67.4642 114.93V111.685H48.6348Z" fill="#F0F0F0"/>
<path d="M137.482 125.932H42.1025V144.402H137.482V125.932Z" fill="#E0E0E0"/>
<path d="M95.6714 144.067H104.604V128.824H95.6714V144.067Z" fill="white"/>
<path d="M103.21 144.305H103.819V129.062H103.21V144.305Z" fill="#E6E6E6"/>
<path d="M103.865 144.42H105.424C105.542 144.42 105.639 144.321 105.639 144.2V129.163C105.639 129.042 105.542 128.943 105.424 128.943H103.865C103.746 128.943 103.65 129.042 103.65 129.163V144.2C103.65 144.321 103.746 144.42 103.865 144.42Z" fill="#EBEBEB"/>
<path d="M103.65 136.094H105.639V132.477H103.65V136.094Z" fill="white"/>
<path d="M103.65 139.44H105.639V137.209H103.65V139.44Z" fill="white"/>
<path d="M95.2129 144.42H103.263C103.382 144.42 103.479 144.321 103.479 144.2V129.163C103.479 129.042 103.382 128.943 103.263 128.943H95.2129C95.0942 128.943 94.9979 129.042 94.9979 129.163V144.2C94.9979 144.321 95.0942 144.42 95.2129 144.42Z" fill="#EBEBEB"/>
<path d="M91.311 144.03H101.167V127.213H91.311V144.03Z" fill="white"/>
<path d="M99.6401 144.292H100.308V127.474H99.6401V144.292Z" fill="#E6E6E6"/>
<path d="M100.357 144.42H102.077C102.208 144.42 102.314 144.311 102.314 144.177V127.589C102.314 127.455 102.208 127.346 102.077 127.346H100.357C100.226 127.346 100.119 127.455 100.119 127.589V144.177C100.119 144.311 100.226 144.42 100.357 144.42Z" fill="#F0F0F0"/>
<path d="M100.119 133.368H102.314V132.785H100.119V133.368Z" fill="white"/>
<path d="M100.119 135.057H102.314V134.474H100.119V135.057Z" fill="white"/>
<path d="M100.119 136.741H102.314V136.158H100.119V136.741Z" fill="white"/>
<path d="M90.8129 144.42H99.6922C99.8234 144.42 99.9297 144.311 99.9297 144.177V127.589C99.9297 127.455 99.8234 127.346 99.6922 127.346H90.8129C90.6818 127.346 90.5754 127.455 90.5754 127.589V144.177C90.5754 144.311 90.6818 144.42 90.8129 144.42Z" fill="#F0F0F0"/>
<path d="M79.1696 138.563C79.1705 139.076 79.0231 139.577 78.746 140.003C78.4689 140.429 78.0746 140.762 77.613 140.958C77.1513 141.155 76.6432 141.207 76.1527 141.108C75.6623 141.008 75.2117 140.762 74.8579 140.4C74.504 140.038 74.263 139.577 74.1651 139.075C74.0672 138.572 74.117 138.052 74.3081 137.578C74.4992 137.105 74.8231 136.701 75.2387 136.416C75.6543 136.131 76.143 135.979 76.6429 135.979C77.3123 135.979 77.9543 136.251 78.428 136.736C78.9017 137.22 79.1685 137.878 79.1696 138.563Z" fill="#FAFAFA"/>
<path d="M74.8664 139.798C74.8664 140.198 74.7505 140.59 74.5334 140.923C74.3163 141.256 74.0078 141.515 73.6468 141.668C73.2858 141.821 72.8885 141.861 72.5053 141.783C72.122 141.705 71.77 141.512 71.4937 141.229C71.2174 140.946 71.0292 140.586 70.953 140.193C70.8768 139.8 70.9159 139.393 71.0654 139.024C71.215 138.654 71.4682 138.338 71.7931 138.115C72.118 137.893 72.5 137.774 72.8907 137.774C73.4143 137.775 73.9162 137.989 74.2864 138.368C74.6567 138.748 74.8652 139.262 74.8664 139.798Z" fill="#FAFAFA"/>
<path d="M83.4939 139.798C83.4939 140.31 83.3457 140.811 83.068 141.236C82.7904 141.662 82.3958 141.994 81.9341 142.19C81.4724 142.386 80.9643 142.437 80.4742 142.337C79.9841 142.237 79.5339 141.991 79.1805 141.629C78.8271 141.267 78.5865 140.805 78.489 140.303C78.3915 139.801 78.4415 139.28 78.6328 138.807C78.824 138.334 79.1479 137.93 79.5634 137.646C79.9789 137.361 80.4674 137.209 80.9672 137.209C81.6369 137.211 82.2789 137.484 82.7525 137.969C83.2261 138.454 83.4927 139.112 83.4939 139.798Z" fill="#FAFAFA"/>
<path d="M87.6335 139.041C87.6335 139.553 87.4853 140.053 87.2077 140.479C86.93 140.905 86.5354 141.236 86.0737 141.432C85.612 141.628 85.104 141.68 84.6139 141.58C84.1237 141.48 83.6735 141.233 83.3201 140.871C82.9668 140.509 82.7261 140.048 82.6286 139.546C82.5311 139.044 82.5812 138.523 82.7724 138.05C82.9637 137.577 83.2875 137.173 83.703 136.888C84.1185 136.604 84.6071 136.452 85.1068 136.452C85.7769 136.452 86.4196 136.725 86.8935 137.21C87.3673 137.696 87.6335 138.354 87.6335 139.041Z" fill="#FAFAFA"/>
<path d="M65.9365 139.376C65.9365 139.376 66.2815 144.425 79.5736 144.425C92.8658 144.425 93.2108 139.376 93.2108 139.376H65.9365Z" fill="#F5F5F5"/>
<path d="M103.209 116.422C103.209 116.422 103.76 121.471 124.825 121.471C145.89 121.471 146.437 116.422 146.437 116.422H103.209Z" fill="white"/>
<path d="M112 171C159.973 171 198.863 168.674 198.863 165.804C198.863 162.935 159.973 160.609 112 160.609C64.0275 160.609 25.1377 162.935 25.1377 165.804C25.1377 168.674 64.0275 171 112 171Z" fill="#F5F5F5"/>
<path d="M65.8216 96.9955C75.2972 87.2876 75.2972 71.548 65.8216 61.84C56.3461 52.1321 40.9832 52.1321 31.5076 61.84C22.032 71.548 22.032 87.2876 31.5076 96.9955C40.9832 106.703 56.3461 106.703 65.8216 96.9955Z" fill="#BA2D3B"/>
<path opacity="0.4" d="M65.8216 96.9955C75.2972 87.2876 75.2972 71.548 65.8216 61.84C56.3461 52.1321 40.9832 52.1321 31.5076 61.84C22.032 71.548 22.032 87.2876 31.5076 96.9955C40.9832 106.703 56.3461 106.703 65.8216 96.9955Z" fill="#BA2D3B"/>
<path opacity="0.2" d="M68.7521 82.9279C70.6442 71.5632 63.1857 60.7789 52.0931 58.8404C41.0005 56.9019 30.4743 64.5433 28.5822 75.9079C26.6901 87.2726 34.1486 98.0569 45.2412 99.9954C56.3338 101.934 66.86 94.2925 68.7521 82.9279Z" fill="#BA2D3B"/>
<path d="M69.7249 81.417C70.481 70.3495 62.3369 60.7496 51.5344 59.9749C40.7319 59.2002 31.3617 67.544 30.6055 78.6115C29.8493 89.6789 37.9935 99.2789 48.796 100.054C59.5985 100.828 68.9687 92.4844 69.7249 81.417Z" fill="#BA2D3B"/>
<path opacity="0.4" d="M69.7249 81.417C70.481 70.3495 62.3369 60.7496 51.5344 59.9749C40.7319 59.2002 31.3617 67.544 30.6055 78.6115C29.8493 89.6789 37.9935 99.2789 48.796 100.054C59.5985 100.828 68.9687 92.4844 69.7249 81.417Z" fill="#BA2D3B"/>
<path d="M56.7227 77.5045L57.9995 83.1729C58.0537 83.3894 58.0634 83.615 58.0279 83.8354C57.9925 84.0559 57.9126 84.2664 57.7935 84.4535C57.6777 84.6448 57.5257 84.8104 57.3464 84.9404C57.1671 85.0705 56.9642 85.1625 56.7496 85.2108L51.8843 86.3629L52.7803 90.3515C52.8331 90.5671 52.8412 90.7915 52.8041 91.0105C52.7671 91.2295 52.6857 91.4381 52.5653 91.6229C52.4496 91.811 52.2971 91.9726 52.1175 92.0974C51.9378 92.2222 51.7349 92.3076 51.5215 92.3481C51.3077 92.403 51.0853 92.4133 50.8676 92.3787C50.6498 92.344 50.441 92.2649 50.2536 92.1461C50.0669 92.0336 49.9051 91.8824 49.7786 91.7022C49.6521 91.522 49.5637 91.3168 49.5189 91.0996L48.6229 87.0651L43.7979 88.208C43.59 88.2595 43.3741 88.2673 43.1631 88.231C42.9522 88.1947 42.7506 88.1151 42.5704 87.9969C42.3832 87.8844 42.2209 87.7333 42.0936 87.5531C41.9664 87.373 41.877 87.1678 41.8312 86.9504C41.7803 86.7359 41.7723 86.5131 41.8077 86.2954C41.8431 86.0777 41.9212 85.8695 42.0373 85.6836C42.1481 85.4935 42.296 85.3289 42.4717 85.2002C42.6475 85.0715 42.8474 84.9813 43.0587 84.9355L54.3483 82.2687L53.8197 79.9141L42.5615 82.5717C42.353 82.6261 42.136 82.6367 41.9235 82.6028C41.7109 82.5689 41.5073 82.4912 41.325 82.3743C41.138 82.2593 40.9765 82.1056 40.8507 81.9231C40.725 81.7405 40.6378 81.5331 40.5947 81.314L39.3224 75.6685C39.2245 75.2346 39.2988 74.7785 39.529 74.4007C39.7592 74.0228 40.1264 73.7541 40.5499 73.6536L45.3525 72.5199L44.4565 68.5267C44.4045 68.3155 44.3944 68.0959 44.4268 67.8806C44.4591 67.6654 44.5332 67.459 44.6447 67.2737C44.7628 67.0728 44.9215 66.9002 45.11 66.7672C45.2985 66.6342 45.5125 66.544 45.7378 66.5026C45.945 66.451 46.1602 66.4431 46.3705 66.4794C46.5807 66.5157 46.7816 66.5954 46.9608 66.7137C47.1448 66.8296 47.3039 66.9825 47.4287 67.1631C47.5534 67.3438 47.6411 67.5484 47.6866 67.7648L48.5826 71.7534L53.5106 70.5967C53.7238 70.5438 53.9452 70.5357 54.1615 70.5728C54.3779 70.6098 54.5847 70.6914 54.7695 70.8124C54.9564 70.9225 55.119 71.0712 55.247 71.2489C55.375 71.4267 55.4656 71.6297 55.5131 71.8452C55.6075 72.2891 55.5287 72.7532 55.2934 73.1383C55.0582 73.5234 54.6852 73.7989 54.2543 73.906L42.9647 76.5727L43.4575 78.9135L54.7067 76.256C54.9199 76.2031 55.1414 76.195 55.3577 76.2321C55.574 76.2691 55.7808 76.3507 55.9656 76.4717C56.1556 76.5797 56.3212 76.7275 56.4516 76.9054C56.5821 77.0834 56.6745 77.2875 56.7227 77.5045Z" fill="#BA2D3B"/>
<g opacity="0.7">
<path d="M56.7218 77.5044L57.9986 83.1729C58.0528 83.3893 58.0624 83.6149 58.027 83.8354C57.9915 84.0558 57.9116 84.2663 57.7925 84.4535C57.6767 84.6447 57.5247 84.8103 57.3454 84.9404C57.1661 85.0705 56.9632 85.1624 56.7486 85.2108L51.8834 86.3628L52.7794 90.3514C52.8321 90.567 52.8402 90.7915 52.8031 91.0104C52.7661 91.2294 52.6848 91.438 52.5643 91.6228C52.4486 91.811 52.2961 91.9725 52.1165 92.0973C51.9368 92.2221 51.7339 92.3075 51.5205 92.348C51.3067 92.4029 51.0844 92.4133 50.8666 92.3786C50.6488 92.3439 50.4401 92.2648 50.2526 92.1461C50.0659 92.0335 49.9042 91.8823 49.7777 91.7021C49.6512 91.5219 49.5627 91.3167 49.5179 91.0996L48.6219 87.0651L43.797 88.208C43.589 88.2594 43.3731 88.2672 43.1621 88.2309C42.9512 88.1946 42.7496 88.115 42.5694 87.9968C42.3822 87.8843 42.2199 87.7332 42.0927 87.5531C41.9654 87.3729 41.8761 87.1677 41.8302 86.9503C41.7793 86.7359 41.7713 86.5131 41.8067 86.2953C41.8421 86.0776 41.9202 85.8695 42.0363 85.6835C42.1471 85.4935 42.295 85.3289 42.4708 85.2001C42.6465 85.0714 42.8464 84.9813 43.0578 84.9354L54.3474 82.2687L53.8187 79.9141L42.5605 82.5716C42.3521 82.6261 42.135 82.6367 41.9225 82.6028C41.71 82.5688 41.5064 82.4911 41.324 82.3742C41.137 82.2593 40.9755 82.1056 40.8497 81.923C40.724 81.7405 40.6368 81.533 40.5938 81.314L39.3214 75.6685C39.2235 75.2345 39.2978 74.7784 39.528 74.4006C39.7582 74.0227 40.1254 73.754 40.549 73.6535L45.3515 72.5198L44.4555 68.5266C44.4036 68.3155 44.3935 68.0958 44.4258 67.8806C44.4581 67.6654 44.5322 67.459 44.6437 67.2736C44.7618 67.0728 44.9205 66.9001 45.109 66.7671C45.2975 66.6342 45.5115 66.5439 45.7368 66.5025C45.944 66.4509 46.1592 66.443 46.3695 66.4793C46.5797 66.5156 46.7806 66.5953 46.9598 66.7136C47.1438 66.8295 47.303 66.9824 47.4277 67.1631C47.5524 67.3437 47.6402 67.5484 47.6856 67.7647L48.5816 71.7533L53.5096 70.5967C53.7228 70.5438 53.9442 70.5356 54.1606 70.5727C54.3769 70.6098 54.5837 70.6913 54.7685 70.8124C54.9554 70.9225 55.118 71.0711 55.246 71.2488C55.374 71.4266 55.4646 71.6296 55.5122 71.8451C55.6066 72.289 55.5277 72.7531 55.2924 73.1382C55.0572 73.5233 54.6842 73.7989 54.2533 73.9059L42.9637 76.5727L43.4565 78.9135L54.7058 76.256C54.919 76.2031 55.1404 76.1949 55.3567 76.232C55.5731 76.2691 55.7799 76.3506 55.9646 76.4717C56.1546 76.5796 56.3202 76.7274 56.4506 76.9054C56.5811 77.0833 56.6735 77.2874 56.7218 77.5044Z" fill="white"/>
</g>
<path d="M100.442 59.6488C106.479 52.3302 105.581 41.3835 98.4379 35.1987C91.2944 29.014 80.6097 29.9332 74.573 37.2519C68.5363 44.5705 69.4335 55.5172 76.577 61.702C83.7205 67.8867 94.4052 66.9675 100.442 59.6488Z" fill="#BA2D3B"/>
<path opacity="0.4" d="M100.442 59.6488C106.479 52.3302 105.581 41.3835 98.4379 35.1987C91.2944 29.014 80.6097 29.9332 74.573 37.2519C68.5363 44.5705 69.4335 55.5172 76.577 61.702C83.7205 67.8867 94.4052 66.9675 100.442 59.6488Z" fill="#BA2D3B"/>
<path opacity="0.2" d="M98.4683 57.7195C103.472 51.5184 102.622 42.3355 96.5688 37.2091C90.5161 32.0826 81.553 32.9539 76.5493 39.1551C71.5456 45.3563 72.396 54.5392 78.4487 59.6656C84.5015 64.792 93.4646 63.9207 98.4683 57.7195Z" fill="#BA2D3B"/>
<path d="M98.8974 57.8718C103.475 51.735 102.331 42.958 96.3409 38.2678C90.351 33.5775 81.7841 34.7502 77.2061 40.887C72.6282 47.0238 73.7728 55.8008 79.7626 60.491C85.7525 65.1812 94.3195 64.0086 98.8974 57.8718Z" fill="#BA2D3B"/>
<path opacity="0.4" d="M98.8974 57.8718C103.475 51.735 102.331 42.958 96.3409 38.2678C90.351 33.5775 81.7841 34.7502 77.2061 40.887C72.6282 47.0238 73.7728 55.8008 79.7626 60.491C85.7525 65.1812 94.3195 64.0086 98.8974 57.8718Z" fill="#BA2D3B"/>
<path d="M93.1037 49.8734L92.1405 53.8115C92.1055 53.9613 92.0405 54.1019 91.9494 54.2244C91.8584 54.3469 91.7434 54.4486 91.6118 54.523C91.4789 54.6058 91.3311 54.6603 91.1771 54.6831C91.0231 54.706 90.8662 54.6968 90.7158 54.6561L87.3603 53.7886L86.6794 56.5425C86.6447 56.693 86.5798 56.8344 86.4888 56.9577C86.3978 57.081 86.2826 57.1834 86.1507 57.2585C86.0237 57.3393 85.8819 57.3928 85.734 57.4157C85.5861 57.4386 85.4352 57.4304 85.2906 57.3916C85.1415 57.3557 85.001 57.2898 84.8771 57.1976C84.7533 57.1054 84.6486 56.9888 84.5693 56.8546C84.4884 56.7236 84.4348 56.5769 84.4116 56.4237C84.3885 56.2705 84.3964 56.1141 84.4349 55.9642L85.1203 53.1644L81.7603 52.3244C81.6147 52.2887 81.4777 52.2231 81.3576 52.1316C81.2375 52.0401 81.1367 51.9246 81.0614 51.792C80.9804 51.6619 80.9267 51.516 80.9035 51.3635C80.8804 51.211 80.8884 51.0553 80.927 50.9062C80.9605 50.7552 81.0239 50.613 81.1133 50.4882C81.2027 50.3635 81.3162 50.2589 81.4467 50.181C81.5756 50.1004 81.719 50.0475 81.8684 50.0254C82.0178 50.0033 82.17 50.0125 82.3158 50.0524L90.1558 52.0674L90.559 50.4334L82.7414 48.423C82.595 48.3895 82.457 48.3252 82.3359 48.2344C82.2149 48.1436 82.1135 48.0281 82.0381 47.8952C81.9569 47.7643 81.9038 47.6172 81.8822 47.4638C81.8605 47.3103 81.8709 47.1538 81.9126 47.0048L82.8714 43.0804C82.9074 42.9309 82.9721 42.7901 83.0616 42.6663C83.1512 42.5425 83.2637 42.4381 83.3929 42.3591C83.522 42.2801 83.6652 42.2282 83.814 42.2063C83.9629 42.1843 84.1145 42.1928 84.2602 42.2313L87.5843 43.085L88.2653 40.3311C88.2982 40.1757 88.3622 40.0289 88.4532 39.9C88.5443 39.7712 88.6603 39.663 88.7942 39.5824C88.928 39.5018 89.0767 39.4504 89.2309 39.4315C89.385 39.4127 89.5413 39.4267 89.6899 39.4728C89.8343 39.5071 89.9702 39.5717 90.089 39.6625C90.2077 39.7534 90.3068 39.8685 90.3798 40.0006C90.4591 40.1315 90.5115 40.2775 90.5338 40.4299C90.5562 40.5822 90.548 40.7375 90.5098 40.8865L89.8288 43.6404L93.2336 44.5171C93.383 44.5536 93.5235 44.6209 93.6467 44.7148C93.77 44.8087 93.8733 44.9272 93.9504 45.0633C94.032 45.1922 94.0869 45.337 94.1116 45.4886C94.1362 45.6402 94.1302 45.7954 94.0938 45.9445C94.0564 46.0974 93.9896 46.2411 93.8972 46.3672C93.8049 46.4933 93.689 46.5993 93.5562 46.6789C93.4239 46.7632 93.2761 46.8189 93.1221 46.8426C92.968 46.8663 92.8108 46.8574 92.6602 46.8166L84.8157 44.8016L84.4214 46.4264L92.2346 48.4322C92.3839 48.4688 92.5245 48.536 92.6477 48.6299C92.7709 48.7238 92.8742 48.8424 92.9514 48.9784C93.0377 49.1078 93.0959 49.2546 93.1222 49.409C93.1485 49.5634 93.1422 49.7218 93.1037 49.8734Z" fill="#BA2D3B"/>
<g opacity="0.7">
<path d="M93.1047 49.8734L92.1415 53.8115C92.1065 53.9613 92.0415 54.1019 91.9504 54.2244C91.8594 54.3469 91.7444 54.4486 91.6128 54.523C91.4799 54.6058 91.332 54.6603 91.1781 54.6831C91.0241 54.706 90.8672 54.6968 90.7168 54.6561L87.3613 53.7886L86.6803 56.5425C86.6457 56.693 86.5808 56.8344 86.4898 56.9577C86.3987 57.081 86.2836 57.1834 86.1517 57.2585C86.0246 57.3393 85.8829 57.3928 85.735 57.4157C85.5871 57.4386 85.4362 57.4304 85.2915 57.3916C85.1425 57.3557 85.0019 57.2898 84.8781 57.1976C84.7543 57.1054 84.6496 56.9888 84.5703 56.8546C84.4894 56.7236 84.4357 56.5769 84.4126 56.4237C84.3895 56.2705 84.3974 56.1141 84.4359 55.9642L85.1213 53.1644L81.7613 52.3244C81.6157 52.2887 81.4787 52.2231 81.3586 52.1316C81.2384 52.0401 81.1377 51.9246 81.0624 51.792C80.9814 51.6619 80.9277 51.516 80.9045 51.3635C80.8814 51.211 80.8894 51.0553 80.928 50.9062C80.9615 50.7552 81.0249 50.613 81.1143 50.4882C81.2037 50.3635 81.3172 50.2589 81.4477 50.181C81.5765 50.1004 81.72 50.0475 81.8694 50.0254C82.0188 50.0033 82.171 50.0125 82.3168 50.0524L90.1568 52.0674L90.56 50.4334L82.7424 48.423C82.596 48.3895 82.4579 48.3252 82.3369 48.2344C82.2159 48.1436 82.1145 48.0281 82.0391 47.8952C81.9579 47.7643 81.9048 47.6172 81.8831 47.4638C81.8615 47.3103 81.8719 47.1538 81.9136 47.0048L82.8723 43.0804C82.9084 42.9309 82.9731 42.7901 83.0626 42.6663C83.1521 42.5425 83.2647 42.4381 83.3939 42.3591C83.523 42.2801 83.6662 42.2282 83.815 42.2063C83.9639 42.1843 84.1155 42.1928 84.2611 42.2313L87.5853 43.085L88.2663 40.3311C88.2992 40.1757 88.3632 40.0289 88.4542 39.9C88.5452 39.7712 88.6613 39.663 88.7951 39.5824C88.929 39.5018 89.0777 39.4504 89.2318 39.4315C89.386 39.4127 89.5423 39.4267 89.6909 39.4728C89.8353 39.5071 89.9712 39.5717 90.0899 39.6625C90.2087 39.7534 90.3077 39.8685 90.3808 40.0006C90.4601 40.1315 90.5125 40.2775 90.5348 40.4299C90.5571 40.5822 90.5489 40.7375 90.5107 40.8865L89.8298 43.6404L93.2346 44.5171C93.3839 44.5536 93.5245 44.6209 93.6477 44.7148C93.7709 44.8087 93.8742 44.9272 93.9514 45.0633C94.033 45.1922 94.0879 45.337 94.1125 45.4886C94.1372 45.6402 94.1311 45.7954 94.0947 45.9445C94.0573 46.0974 93.9905 46.2411 93.8982 46.3672C93.8059 46.4933 93.6899 46.5993 93.5571 46.6789C93.4248 46.7632 93.2771 46.8189 93.123 46.8426C92.9689 46.8663 92.8118 46.8574 92.6611 46.8166L84.8167 44.8016L84.4224 46.4264L92.2355 48.4322C92.3849 48.4688 92.5255 48.536 92.6487 48.6299C92.7719 48.7238 92.8752 48.8424 92.9523 48.9784C93.0387 49.1078 93.0969 49.2546 93.1232 49.409C93.1495 49.5634 93.1431 49.7218 93.1047 49.8734Z" fill="white"/>
</g>
<path d="M46.2605 153.288H45.8125V158.47H46.2605V153.288Z" fill="#929292"/>
<path opacity="0.1" d="M46.2605 153.288H45.8125V158.47H46.2605V153.288Z" fill="black"/>
<path d="M178.186 112.231H177.738V119.332H178.186V112.231Z" fill="#929292"/>
<path d="M178.186 123.059H177.738V126.91H178.186V123.059Z" fill="#929292"/>
<path opacity="0.1" d="M178.186 112.231H177.738V119.332H178.186V112.231Z" fill="black"/>
<path opacity="0.1" d="M178.186 123.059H177.738V126.91H178.186V123.059Z" fill="black"/>
<path d="M169.883 81.4426H54.1242C50.4005 81.4426 47.3818 84.5353 47.3818 88.3503V157.772C47.3818 161.587 50.4005 164.68 54.1242 164.68H169.883C173.607 164.68 176.625 161.587 176.625 157.772V88.3503C176.625 84.5353 173.607 81.4426 169.883 81.4426Z" fill="#929292"/>
<path opacity="0.2" d="M169.883 81.4426H54.1242C50.4005 81.4426 47.3818 84.5353 47.3818 88.3503V157.772C47.3818 161.587 50.4005 164.68 54.1242 164.68H169.883C173.607 164.68 176.625 161.587 176.625 157.772V88.3503C176.625 84.5353 173.607 81.4426 169.883 81.4426Z" fill="black"/>
<path d="M155.702 110.428C157.92 110.428 160.048 109.525 161.616 107.918C163.185 106.311 164.066 104.131 164.066 101.858C164.066 99.5856 163.185 97.4059 161.616 95.7989C160.048 94.1918 157.92 93.289 155.702 93.289H144.905C142.687 93.289 140.559 94.1918 138.991 95.7989C137.422 97.4059 136.541 99.5856 136.541 101.858C136.541 104.131 137.422 106.311 138.991 107.918C140.559 109.525 142.687 110.428 144.905 110.428H155.702Z" fill="#929292"/>
<path d="M82.7631 110.423H62.8405C61.2372 110.423 59.9375 111.755 59.9375 113.397V126.74C59.9375 128.383 61.2372 129.714 62.8405 129.714H82.7631C84.3664 129.714 85.6661 128.383 85.6661 126.74V113.397C85.6661 111.755 84.3664 110.423 82.7631 110.423Z" fill="#929292"/>
<path opacity="0.3" d="M82.7631 110.423H62.8405C61.2372 110.423 59.9375 111.755 59.9375 113.397V126.74C59.9375 128.383 61.2372 129.714 62.8405 129.714H82.7631C84.3664 129.714 85.6661 128.383 85.6661 126.74V113.397C85.6661 111.755 84.3664 110.423 82.7631 110.423Z" fill="white"/>
<path d="M96.5481 91.1823H61.9938C60.8582 91.1823 59.9375 92.1244 59.9375 93.2867C59.9375 94.449 60.8582 95.3912 61.9938 95.3912H96.5481C97.6837 95.3912 98.6044 94.449 98.6044 93.2867C98.6044 92.1244 97.6837 91.1823 96.5481 91.1823Z" fill="#929292"/>
<path opacity="0.3" d="M96.5481 91.1823H61.9938C60.8582 91.1823 59.9375 92.1244 59.9375 93.2867C59.9375 94.449 60.8582 95.3912 61.9938 95.3912H96.5481C97.6837 95.3912 98.6044 94.449 98.6044 93.2867C98.6044 92.1244 97.6837 91.1823 96.5481 91.1823Z" fill="white"/>
<path d="M78.4937 139.289H62.9525C61.2874 139.289 59.9375 140.672 59.9375 142.378V145.265C59.9375 146.971 61.2874 148.354 62.9525 148.354H78.4937C80.1588 148.354 81.5087 146.971 81.5087 145.265V142.378C81.5087 140.672 80.1588 139.289 78.4937 139.289Z" fill="#929292"/>
<path opacity="0.3" d="M78.4937 139.289H62.9525C61.2874 139.289 59.9375 140.672 59.9375 142.378V145.265C59.9375 146.971 61.2874 148.354 62.9525 148.354H78.4937C80.1588 148.354 81.5087 146.971 81.5087 145.265V142.378C81.5087 140.672 80.1588 139.289 78.4937 139.289Z" fill="white"/>
<path d="M106.009 139.289H90.4682C88.803 139.289 87.4531 140.672 87.4531 142.378V145.265C87.4531 146.971 88.803 148.354 90.4682 148.354H106.009C107.674 148.354 109.024 146.971 109.024 145.265V142.378C109.024 140.672 107.674 139.289 106.009 139.289Z" fill="#929292"/>
<path opacity="0.3" d="M106.009 139.289H90.4682C88.803 139.289 87.4531 140.672 87.4531 142.378V145.265C87.4531 146.971 88.803 148.354 90.4682 148.354H106.009C107.674 148.354 109.024 146.971 109.024 145.265V142.378C109.024 140.672 107.674 139.289 106.009 139.289Z" fill="white"/>
<path d="M133.532 139.289H117.991C116.325 139.289 114.976 140.672 114.976 142.378V145.265C114.976 146.971 116.325 148.354 117.991 148.354H133.532C135.197 148.354 136.547 146.971 136.547 145.265V142.378C136.547 140.672 135.197 139.289 133.532 139.289Z" fill="#929292"/>
<path opacity="0.3" d="M133.532 139.289H117.991C116.325 139.289 114.976 140.672 114.976 142.378V145.265C114.976 146.971 116.325 148.354 117.991 148.354H133.532C135.197 148.354 136.547 146.971 136.547 145.265V142.378C136.547 140.672 135.197 139.289 133.532 139.289Z" fill="white"/>
<path d="M161.047 139.289H145.506C143.841 139.289 142.491 140.672 142.491 142.378V145.265C142.491 146.971 143.841 148.354 145.506 148.354H161.047C162.713 148.354 164.062 146.971 164.062 145.265V142.378C164.062 140.672 162.713 139.289 161.047 139.289Z" fill="#929292"/>
<path opacity="0.3" d="M161.047 139.289H145.506C143.841 139.289 142.491 140.672 142.491 142.378V145.265C142.491 146.971 143.841 148.354 145.506 148.354H161.047C162.713 148.354 164.062 146.971 164.062 145.265V142.378C164.062 140.672 162.713 139.289 161.047 139.289Z" fill="white"/>
<path d="M131.262 51.3239C130.2 54.3946 129.022 57.3642 127.772 60.3338C126.507 63.3537 125.056 66.288 123.427 69.1188C123.207 69.4814 122.979 69.8441 122.741 70.2067L122.566 70.4775L122.329 70.8125C122.168 71.0236 122.015 71.2072 121.881 71.3862C121.316 72.031 120.718 72.6438 120.089 73.2222C118.893 74.3559 117.674 75.384 116.442 76.3984C113.969 78.4087 111.443 80.2906 108.826 82.076L107.263 80.0886L113.848 73.4379C114.937 72.3318 116.017 71.2164 117.025 70.1011C117.522 69.5457 118.006 68.9766 118.404 68.4533C118.503 68.3248 118.588 68.1963 118.664 68.0861L118.758 67.9301L118.888 67.6914C119.063 67.3747 119.247 67.0672 119.417 66.7413C120.788 64.1021 121.997 61.2335 123.162 58.3235C124.327 55.4135 125.447 52.4806 126.522 49.5706L131.262 51.3239Z" fill="#E4897B"/>
<path d="M132.522 49.1116C133.539 52.1593 127.563 61.1233 127.563 61.1233L121.855 57.8691C122.828 55.0722 123.977 52.3431 125.296 49.6991C127.294 45.8253 131.407 45.7656 132.522 49.1116Z" fill="black"/>
<path opacity="0.7" d="M132.522 49.1116C133.539 52.1593 127.563 61.1233 127.563 61.1233L121.855 57.8691C122.828 55.0722 123.977 52.3431 125.296 49.6991C127.294 45.8253 131.407 45.7656 132.522 49.1116Z" fill="white"/>
<path opacity="0.31" d="M132.606 49.4926C131.324 48.8638 129.85 49.3916 128.296 51.9069C126.741 54.4221 125.42 58.6219 125.276 59.8198L127.566 61.1187C127.566 61.1187 133.081 52.8386 132.606 49.4926Z" fill="black"/>
<path d="M128.655 46.78C128.655 46.78 124.391 57.0567 127.464 76.1918H145.227C145.447 73.3966 144.192 59.7693 147.27 46.6056C145.314 46.2155 143.336 45.958 141.347 45.8345C138.833 45.6875 136.313 45.6875 133.799 45.8345C132.063 46.015 130.344 46.3311 128.655 46.78Z" fill="black"/>
<path opacity="0.7" d="M128.655 46.78C128.655 46.78 124.391 57.0567 127.464 76.1918H145.227C145.447 73.3966 144.192 59.7693 147.27 46.6056C145.314 46.2155 143.336 45.958 141.347 45.8345C138.833 45.6875 136.313 45.6875 133.799 45.8345C132.063 46.015 130.344 46.3311 128.655 46.78Z" fill="white"/>
<path d="M151.517 157.717L148.887 160.131L143.874 154.789L146.508 152.374L151.517 157.717Z" fill="#E4897B"/>
<path d="M142.499 162.743H139.179L138.749 154.862H142.069L142.499 162.743Z" fill="#E4897B"/>
<path d="M143.878 154.789L146.458 157.543L149.093 155.128L146.512 152.374L143.878 154.789Z" fill="#CE6F64"/>
<path d="M142.069 154.867H138.749L138.973 158.929H142.293L142.069 154.867Z" fill="#CE6F64"/>
<path d="M127.464 76.1918C127.464 76.1918 123.965 101.005 122.773 114.508C121.815 125.345 144.685 157.653 144.685 157.653L149.107 153.389C149.107 153.389 132.405 124.422 133.691 112.36C134.937 100.679 139.157 76.178 139.157 76.178L127.464 76.1918Z" fill="black"/>
<path opacity="0.7" d="M127.464 76.1918C127.464 76.1918 123.965 101.005 122.773 114.508C121.815 125.345 144.685 157.653 144.685 157.653L149.107 153.389C149.107 153.389 132.405 124.422 133.691 112.36C134.937 100.679 139.157 76.178 139.157 76.178L127.464 76.1918Z" fill="black"/>
<path opacity="0.2" d="M133.69 112.374C134.331 106.356 135.765 96.9288 136.997 89.2087C136.351 87.9143 134.542 85.2935 134.542 85.2935C132.92 91.0354 129.394 112.681 134.425 141.914C139.667 150.571 144.684 157.667 144.684 157.667L145.37 146.504C140.527 137.168 132.799 120.713 133.69 112.374Z" fill="black"/>
<path d="M133.78 76.1918C133.78 76.1918 133.467 102.193 134.004 111.938C134.591 122.605 137.548 157.947 137.548 157.947H143.632C143.632 157.947 143.448 123.467 143.807 112.911C144.205 101.436 145.236 76.1918 145.236 76.1918H133.78Z" fill="black"/>
<path opacity="0.7" d="M133.78 76.1918C133.78 76.1918 133.467 102.193 134.004 111.938C134.591 122.605 137.548 157.947 137.548 157.947H143.632C143.632 157.947 143.448 123.467 143.807 112.911C144.205 101.436 145.236 76.1918 145.236 76.1918H133.78Z" fill="black"/>
<path d="M139.003 162.353H142.735C142.797 162.35 142.858 162.373 142.904 162.416C142.95 162.459 142.978 162.519 142.982 162.582L143.165 165.607C143.166 165.686 143.151 165.764 143.122 165.837C143.093 165.911 143.051 165.977 142.996 166.034C142.942 166.09 142.878 166.135 142.807 166.165C142.736 166.196 142.66 166.212 142.583 166.213C141.284 166.19 140.661 166.112 139.021 166.112C138.013 166.112 133.721 166.222 132.328 166.222C130.935 166.222 130.984 164.808 131.562 164.68C134.21 164.106 137.494 163.303 138.434 162.559C138.597 162.428 138.797 162.355 139.003 162.353Z" fill="#263238"/>
<path d="M148.16 159.167L151.359 156.96C151.411 156.917 151.476 156.894 151.543 156.894C151.609 156.894 151.674 156.917 151.726 156.96L154.173 159.489C154.22 159.544 154.255 159.61 154.276 159.681C154.296 159.752 154.301 159.827 154.289 159.9C154.278 159.973 154.252 160.043 154.211 160.104C154.171 160.166 154.118 160.217 154.056 160.255C152.013 161.866 150.539 163.083 149.374 164.423C148.03 165.988 147.305 166.213 144.169 166.213C142.717 166.213 141.897 164.96 142.489 164.767C147.712 163.073 146.315 162.334 147.587 159.851C147.72 159.578 147.917 159.343 148.16 159.167Z" fill="#263238"/>
<path d="M108.015 79.6618L104.552 79.7857L105.278 82.5672C105.278 82.5672 108.897 82.8977 109.22 81.7777L108.015 79.6618Z" fill="#E4897B"/>
<path d="M100.816 81.4426L103.245 82.893L105.278 82.5672L104.553 79.7857L100.816 81.4426Z" fill="#E4897B"/>
<path opacity="0.31" d="M143.301 49.8552C142.933 52.0216 143.421 57.199 145.236 63.1933C145.378 58.0576 145.961 52.9446 146.979 47.9137V47.8862C145.814 47.7668 143.654 47.8219 143.301 49.8552Z" fill="black"/>
<path d="M140.894 37.1229C140.334 39.6106 139.703 44.173 141.342 45.8437C141.342 45.8437 140.634 47.9045 136.119 47.9045C131.155 47.9045 133.793 45.8437 133.793 45.8437C136.526 45.1827 136.526 43.1219 136.119 41.1895L140.894 37.1229Z" fill="#E4897B"/>
<path d="M135.993 47.8953L134.649 49.3595L135.308 50.7732L136.379 50.8237L137.293 49.4742L135.993 47.8953Z" fill="black"/>
<path d="M138.95 38.7798L136.123 41.1758C136.225 41.6282 136.288 42.089 136.311 42.5527C137.351 42.4012 138.811 41.2354 138.959 40.1247C139.038 39.6798 139.035 39.2236 138.95 38.7798Z" fill="#CE6F64"/>
<path d="M135.005 28.6868C133.307 29.2788 131.949 33.8917 133.929 35.1126C135.91 36.3335 138.23 27.5622 135.005 28.6868Z" fill="#263238"/>
<path d="M141.957 34.5159C140.945 37.7288 140.515 39.6703 138.472 40.9876C137.813 41.4216 137.05 41.6626 136.267 41.6848C135.484 41.7069 134.71 41.5093 134.029 41.1132C133.347 40.7171 132.785 40.1377 132.401 39.4376C132.018 38.7376 131.829 37.9435 131.855 37.1413C131.895 34.0523 133.544 29.2972 137.016 28.7005C137.764 28.5525 138.537 28.6086 139.258 28.863C139.978 29.1174 140.621 29.5613 141.121 30.1502C141.622 30.7391 141.962 31.4523 142.109 32.2185C142.256 32.9847 142.203 33.7769 141.957 34.5159Z" fill="#E4897B"/>
<path d="M144.466 29.1457C143.453 31.6518 145.81 29.5588 145.201 32.533C144.806 34.47 141.393 39.1103 140.076 38.688C138.758 38.2658 138.772 34.9748 140.452 32.6478C141.42 31.3121 139.327 29.7975 134.628 29.9581C129.928 30.1188 127.088 27.4108 133.333 25.4233C133.333 25.4233 131.03 26.8003 132.397 27.2593C134.332 27.9983 146.495 24.1244 144.466 29.1457Z" fill="#263238"/>
<path d="M143.569 30.2932C143.52 30.2932 144.622 30.0132 145.209 27.9982C145.209 28.0304 145.016 31 143.569 30.2932Z" fill="#263238"/>
<path d="M134.774 25.8687C131.885 26.7866 133.081 27.8193 134.277 28.0764L137.019 26.9748C132.852 27.5394 134.774 25.8687 134.774 25.8687Z" fill="#263238"/>
<path d="M142.511 38.4402C141.91 39.0384 141.109 39.3784 140.271 39.3903C139.165 39.3903 138.927 38.3163 139.523 37.4167C140.052 36.6088 141.261 35.6358 142.238 36.0718C143.215 36.5079 143.246 37.7012 142.511 38.4402Z" fill="#E4897B"/>
<path d="M136.854 34.3369C136.787 34.6031 136.594 34.7958 136.406 34.7499C136.218 34.7041 136.151 34.4608 136.218 34.1946C136.285 33.9284 136.478 33.7356 136.666 33.7861C136.854 33.8366 136.921 34.0706 136.854 34.3369Z" fill="#263238"/>
<path d="M133.897 33.6713C133.83 33.9375 133.637 34.1303 133.449 34.0844C133.261 34.0385 133.194 33.7998 133.261 33.5336C133.328 33.2674 133.516 33.0746 133.709 33.1205C133.901 33.1664 133.951 33.4051 133.897 33.6713Z" fill="#263238"/>
<path d="M134.803 34.0156C134.293 34.7587 133.691 35.43 133.011 36.0122C133.16 36.1825 133.345 36.3172 133.55 36.4068C133.756 36.4964 133.979 36.5387 134.202 36.5308L134.803 34.0156Z" fill="#DE5753"/>
<path d="M135.294 37.4993C135.108 37.4991 134.923 37.4775 134.742 37.435C134.723 37.4296 134.706 37.4166 134.695 37.3987C134.684 37.3808 134.68 37.3593 134.684 37.3386C134.69 37.3183 134.702 37.3008 134.72 37.2897C134.737 37.2786 134.758 37.2747 134.778 37.279C135.108 37.3542 135.45 37.352 135.779 37.2726C136.108 37.1931 136.416 37.0384 136.678 36.82C136.693 36.8051 136.713 36.7968 136.734 36.7968C136.755 36.7968 136.775 36.8051 136.79 36.82C136.804 36.8354 136.812 36.856 136.812 36.8774C136.812 36.8988 136.804 36.9193 136.79 36.9347C136.374 37.3016 135.842 37.5021 135.294 37.4993Z" fill="#263238"/>
<path d="M138.027 33.5703C137.997 33.5709 137.967 33.562 137.941 33.5448C137.916 33.5276 137.896 33.5029 137.884 33.4739C137.81 33.2898 137.695 33.1265 137.546 32.9979C137.398 32.8693 137.222 32.7791 137.033 32.735C137.012 32.7322 136.992 32.7252 136.974 32.7144C136.956 32.7036 136.94 32.6892 136.928 32.6721C136.915 32.655 136.906 32.6355 136.901 32.6148C136.896 32.5941 136.895 32.5725 136.898 32.5514C136.905 32.5091 136.927 32.4711 136.961 32.4455C136.994 32.4198 137.036 32.4084 137.078 32.4137C137.319 32.4641 137.545 32.574 137.735 32.734C137.925 32.894 138.075 33.0991 138.171 33.3317C138.179 33.3509 138.184 33.3717 138.185 33.3929C138.186 33.4141 138.182 33.4352 138.175 33.455C138.167 33.4748 138.156 33.4928 138.141 33.5078C138.127 33.5229 138.109 33.5348 138.09 33.5428C138.071 33.5566 138.05 33.566 138.027 33.5703Z" fill="#263238"/>
<path d="M132.898 32.354C132.862 32.3537 132.827 32.3408 132.8 32.3173C132.768 32.2896 132.747 32.2501 132.743 32.2072C132.739 32.1644 132.751 32.1215 132.777 32.0878C132.935 31.8866 133.136 31.7253 133.364 31.6163C133.593 31.5072 133.843 31.4534 134.094 31.459C134.115 31.4607 134.135 31.4666 134.154 31.4764C134.172 31.4861 134.188 31.4994 134.202 31.5156C134.215 31.5319 134.225 31.5506 134.231 31.5708C134.237 31.591 134.24 31.6123 134.238 31.6334C134.237 31.6548 134.231 31.6757 134.222 31.6948C134.213 31.714 134.2 31.731 134.184 31.7447C134.168 31.7585 134.149 31.7688 134.129 31.7749C134.109 31.781 134.088 31.7828 134.068 31.7803C133.866 31.7781 133.667 31.8233 133.485 31.9125C133.303 32.0016 133.144 32.1322 133.019 32.2944C133.005 32.3131 132.987 32.3282 132.966 32.3386C132.945 32.3489 132.922 32.3542 132.898 32.354Z" fill="#263238"/>
<path d="M148.131 48.951C148.48 49.5064 148.771 49.9975 149.067 50.5299C149.363 51.0623 149.645 51.5764 149.923 52.1088C150.469 53.1691 150.985 54.2523 151.455 55.3584C152.442 57.623 153.182 59.9918 153.664 62.4222L153.708 62.6563L153.731 62.7711L153.762 62.9638C153.8 63.2206 153.82 63.4799 153.82 63.7395C153.816 64.1744 153.771 64.6078 153.686 65.0339C153.534 65.7366 153.315 66.4223 153.032 67.081C152.529 68.235 151.929 69.3422 151.24 70.3902C149.937 72.3831 148.455 74.247 146.814 75.9578L144.865 74.3559C145.949 72.419 147.029 70.4086 147.934 68.4396C148.379 67.4979 148.759 66.5255 149.072 65.5296C149.199 65.1142 149.286 64.6867 149.331 64.2536C149.347 64.1118 149.347 63.9686 149.331 63.8267C149.331 63.7854 149.331 63.7487 149.305 63.7441C149.278 63.7395 149.305 63.7441 149.305 63.7212L149.278 63.6294L149.224 63.4412C148.941 62.4288 148.604 61.4329 148.216 60.4578C147.822 59.4618 147.383 58.4704 146.921 57.4836C146.46 56.4967 145.963 55.5237 145.452 54.5506C145.201 54.0641 144.937 53.5822 144.672 53.1048L143.884 51.7279L148.131 48.951Z" fill="#E4897B"/>
<path d="M137.829 162.94C137.606 162.963 137.382 162.899 137.202 162.761C137.152 162.704 137.116 162.634 137.099 162.559C137.081 162.483 137.083 162.404 137.104 162.33C137.114 162.28 137.136 162.233 137.168 162.193C137.2 162.154 137.241 162.124 137.287 162.105C137.695 161.94 138.631 162.601 138.739 162.674C138.752 162.682 138.762 162.695 138.768 162.71C138.774 162.725 138.774 162.741 138.77 162.757C138.768 162.772 138.761 162.787 138.751 162.798C138.74 162.809 138.727 162.817 138.712 162.821C138.423 162.892 138.127 162.932 137.829 162.94ZM137.44 162.238C137.408 162.233 137.377 162.233 137.346 162.238C137.323 162.246 137.303 162.261 137.288 162.281C137.273 162.3 137.263 162.324 137.26 162.348C137.244 162.396 137.241 162.448 137.25 162.498C137.259 162.548 137.282 162.594 137.314 162.633C137.466 162.789 137.901 162.807 138.497 162.688C138.18 162.463 137.819 162.311 137.44 162.243V162.238Z" fill="white"/>
<path d="M138.695 162.826H138.654C138.323 162.624 137.83 161.908 137.906 161.54C137.919 161.473 137.955 161.412 138.006 161.368C138.057 161.324 138.122 161.299 138.189 161.297C138.248 161.289 138.308 161.295 138.364 161.314C138.421 161.333 138.473 161.365 138.516 161.407C138.852 161.742 138.775 162.72 138.775 162.761C138.774 162.775 138.769 162.788 138.761 162.799C138.753 162.81 138.743 162.819 138.731 162.826H138.695ZM138.247 161.449H138.211C138.099 161.449 138.072 161.517 138.063 161.563C138.014 161.807 138.341 162.344 138.628 162.591C138.669 162.219 138.594 161.843 138.413 161.517C138.39 161.495 138.363 161.477 138.334 161.465C138.305 161.454 138.274 161.448 138.242 161.449H138.247Z" fill="white"/>
<path d="M146.01 161.013C145.927 161.015 145.844 160.999 145.768 160.967C145.709 160.942 145.656 160.904 145.615 160.854C145.574 160.805 145.545 160.746 145.53 160.682C145.519 160.643 145.517 160.602 145.526 160.563C145.535 160.524 145.553 160.487 145.58 160.457C145.88 160.085 147.452 160.196 147.631 160.209C147.648 160.21 147.664 160.216 147.677 160.227C147.69 160.238 147.699 160.252 147.703 160.269C147.707 160.286 147.705 160.303 147.699 160.318C147.692 160.334 147.681 160.347 147.667 160.356C147.167 160.694 146.602 160.918 146.01 161.013ZM146.959 160.342C146.408 160.342 145.83 160.398 145.701 160.558C145.693 160.571 145.689 160.585 145.689 160.599C145.689 160.614 145.693 160.628 145.701 160.641C145.708 160.68 145.725 160.718 145.75 160.749C145.775 160.78 145.807 160.805 145.844 160.82C146.095 160.925 146.659 160.751 147.372 160.361L146.959 160.342Z" fill="white"/>
<path d="M147.628 160.37C147.18 160.37 146.172 160.017 146.096 159.649C146.096 159.558 146.096 159.429 146.311 159.323C147.081 158.952 147.677 160.2 147.704 160.241C147.709 160.254 147.712 160.269 147.712 160.283C147.712 160.297 147.709 160.311 147.704 160.324C147.697 160.338 147.686 160.35 147.672 160.358C147.659 160.366 147.643 160.37 147.628 160.37ZM146.593 159.42C146.517 159.419 146.442 159.436 146.373 159.47C146.279 159.516 146.235 159.567 146.244 159.613C146.288 159.828 147.014 160.131 147.489 160.196C147.346 159.948 147.001 159.42 146.593 159.42Z" fill="white"/>
<path d="M145.751 73.6123L142.463 73.0202L144.161 76.9445C144.161 76.9445 147.176 76.9445 147.041 75.3289L145.751 73.6123Z" fill="#E4897B"/>
<path d="M139.976 74.9893L141.53 78.1608L144.142 76.9399L142.444 73.0202L139.976 74.9893Z" fill="#E4897B"/>
<path d="M149.375 153.141L144.416 157.928L142.816 156.17L148.493 150.874L149.375 153.141Z" fill="black"/>
<path opacity="0.6" d="M149.375 153.141L144.416 157.928L142.816 156.17L148.493 150.874L149.375 153.141Z" fill="white"/>
<path d="M143.874 157.946H137.301L136.938 155.583L144.192 155.95L143.874 157.946Z" fill="black"/>
<path opacity="0.6" d="M143.874 157.946H137.301L136.938 155.583L144.192 155.95L143.874 157.946Z" fill="white"/>
<path d="M147.269 46.6056C150.405 47.0646 153.618 58.2272 153.618 58.2272L146.898 62.0459C146.898 62.0459 144.169 56.74 142.866 52.8019C141.499 48.6756 143.914 46.1007 147.269 46.6056Z" fill="black"/>
<path opacity="0.7" d="M147.269 46.6056C150.405 47.0646 153.618 58.2272 153.618 58.2272L146.898 62.0459C146.898 62.0459 144.169 56.74 142.866 52.8019C141.499 48.6756 143.914 46.1007 147.269 46.6056Z" fill="white"/>
<path opacity="0.2" d="M135.993 47.8953L134.649 49.3595L135.308 50.7732L136.379 50.8237L137.293 49.4742L135.993 47.8953Z" fill="black"/>
<path d="M135.424 50.5208C135.424 50.5208 132.875 61.3391 132.776 63.5881C132.637 66.6817 133.901 71.9646 133.901 71.9646C133.901 71.9646 135.693 67.5721 136.06 63.4917C136.427 59.4113 136.154 52.8111 136.32 50.5208H135.424Z" fill="black"/>
<path opacity="0.2" d="M135.424 50.5208C135.424 50.5208 132.875 61.3391 132.776 63.5881C132.637 66.6817 133.901 71.9646 133.901 71.9646C133.901 71.9646 135.693 67.5721 136.06 63.4917C136.427 59.4113 136.154 52.8111 136.32 50.5208H135.424Z" fill="black"/>
<path d="M135.993 47.8953C136.504 48.742 136.799 49.7061 136.853 50.6997C136.853 50.6997 142.444 48.6802 142.18 45.7197C142.18 45.7197 141.387 45.2378 140.885 44.8477C140.885 44.8477 140.697 46.7111 135.993 47.8953Z" fill="black"/>
<path opacity="0.6" d="M135.993 47.8953C136.504 48.742 136.799 49.7061 136.853 50.6997C136.853 50.6997 142.444 48.6802 142.18 45.7197C142.18 45.7197 141.387 45.2378 140.885 44.8477C140.885 44.8477 140.697 46.7111 135.993 47.8953Z" fill="white"/>
<path d="M135.993 47.8953C135.479 48.6968 135.109 49.5859 134.9 50.5207C134.9 50.5207 132.369 48.7674 133.13 45.8436C133.594 45.6521 134.072 45.4987 134.559 45.3846C134.559 45.3846 134.228 47.2757 135.993 47.8953Z" fill="black"/>
<path opacity="0.6" d="M135.993 47.8953C135.479 48.6968 135.109 49.5859 134.9 50.5207C134.9 50.5207 132.369 48.7674 133.13 45.8436C133.594 45.6521 134.072 45.4987 134.559 45.3846C134.559 45.3846 134.228 47.2757 135.993 47.8953Z" fill="white"/>
</svg>
