<svg width="205" height="204" viewBox="0 0 205 204" fill="none" xmlns="http://www.w3.org/2000/svg">
<path d="M70.3037 2.76328C68.6949 0.340031 65.3164 0.0534637 62.9686 1.5969C60.6207 3.14035 59.4493 5.06588 58.8661 8.04215C58.7729 6.70986 58.3926 5.41349 57.7513 4.24197C57.11 3.07046 56.2229 2.05151 55.1508 1.25503C52.9287 -0.489506 49.515 -0.499561 47.685 1.75778C46.628 3.20757 46.1591 5.00384 46.3728 6.78528C46.5236 8.55999 46.9459 10.4151 47.9665 11.7776C51.6115 16.6291 53.6727 17.5491 58.469 21.0935C63.4964 17.9815 65.1254 17.2224 69.1524 12.7077C70.2836 11.4407 70.8617 9.62581 71.1634 7.87122C71.5264 6.12099 71.2196 4.29826 70.3037 2.76328Z" fill="#EBEBEB"/>
<path d="M14.0566 22.1845C14.4545 21.7456 14.7143 21.1993 14.8037 20.6137C14.8932 20.0281 14.8081 19.4291 14.5593 18.8915C14.4299 18.5208 14.2252 18.1809 13.9583 17.893C13.6913 17.6051 13.3677 17.3755 13.0078 17.2186C12.6479 17.0616 12.2595 16.9807 11.8669 16.9808C11.4742 16.981 11.0859 17.0623 10.7261 17.2196C10.3664 17.3769 10.043 17.6068 9.7763 17.8949C9.50957 18.1831 9.30525 18.5232 9.17613 18.894C9.04701 19.2648 8.99588 19.6582 9.02595 20.0497C9.05602 20.4412 9.16663 20.8222 9.35086 21.169C9.58112 21.721 9.97028 22.1921 10.4689 22.5224C10.9675 22.8527 11.5531 23.0273 12.1512 23.0241C8.41574 25.3921 10.5223 29.6604 10.5223 29.6604L19.9941 25.5228C19.9941 25.5228 18.2847 21.0332 14.0566 22.1845Z" fill="#F5F5F5"/>
<path d="M181.925 94.3542C183.078 94.2004 184.162 93.7117 185.04 92.9486C185.918 92.1854 186.554 91.1813 186.867 90.0607C187.802 86.9084 186.163 83.6456 183.207 82.7708C180.251 81.896 177.104 83.7411 176.169 86.8934C175.82 88.0135 175.81 89.2118 176.141 90.3373C176.472 91.4628 177.129 92.4651 178.029 93.218C169.427 92.0616 167.189 101.126 167.189 101.126L186.656 106.893C186.656 106.893 189.738 97.9689 181.925 94.3542Z" fill="#E0E0E0"/>
<path d="M107.945 159.47C107.945 159.001 107.852 158.536 107.672 158.102C107.492 157.668 107.229 157.274 106.896 156.943C106.564 156.611 106.169 156.348 105.735 156.17C105.3 155.991 104.835 155.899 104.366 155.901L27.6711 156.016C27.2015 156.016 26.7365 156.109 26.3028 156.289C25.869 156.469 25.4751 156.733 25.1435 157.065C24.8119 157.398 24.5492 157.793 24.3704 158.227C24.1916 158.661 24.1003 159.126 24.1016 159.596L24.1368 183.175C24.1374 183.644 24.2305 184.109 24.4108 184.542C24.591 184.976 24.8549 185.37 25.1873 185.701C25.5197 186.033 25.9141 186.295 26.348 186.474C26.782 186.653 27.2469 186.745 27.7163 186.744L94.3558 186.644L103.189 195.593V186.634H104.426C104.895 186.634 105.36 186.541 105.794 186.361C106.228 186.181 106.622 185.917 106.953 185.585C107.285 185.252 107.548 184.858 107.727 184.423C107.905 183.989 107.997 183.524 107.995 183.054L107.945 159.47Z" fill="#EBEBEB"/>
<path d="M37.3235 183.738H37.4039L37.248 181.224L37.3235 183.738Z" fill="#F5F5F5"/>
<path d="M40.6266 158.51C37.8912 158.513 35.2283 159.39 33.0265 161.013C30.8247 162.636 29.1993 164.92 28.3876 167.533C27.5758 170.145 27.6201 172.948 28.5141 175.533C29.408 178.118 31.1048 180.35 33.3568 181.903C32.7164 178.372 32.38 174.793 32.3513 171.204H32.286C32.286 170.993 32.3413 170.677 32.3714 170.35C32.4031 169.947 32.4552 169.546 32.5273 169.148C33.9853 162.949 39.244 161.702 40.2897 161.682C41.4109 161.682 43.3565 160.994 46.2725 163.985C47.1026 164.779 47.6796 165.8 47.931 166.921C48.1823 168.042 48.0968 169.212 47.6852 170.284C47.7405 172.295 47.7757 174.523 47.7204 175.92C47.5997 178.876 44.7039 179.248 44.7039 179.248C44.7039 179.248 44.5631 181.792 44.5229 183.577C47.4479 182.655 49.9461 180.716 51.5646 178.111C53.1831 175.506 53.815 172.408 53.3458 169.377C52.8765 166.346 51.3371 163.584 49.0066 161.59C46.6761 159.597 43.7085 158.504 40.6417 158.51H40.6266Z" fill="#F5F5F5"/>
<path d="M44.6386 179.977C41.7529 180.153 40.8479 177.997 40.8479 177.997C41.9784 178.78 43.3138 179.215 44.6889 179.248C44.6889 179.248 47.5898 178.876 47.7054 175.92C47.7607 174.523 47.7054 172.275 47.6702 170.284L47.1675 169.847L42.9695 168.806C43.2812 167.635 42.7634 166.197 42.4668 165.528L42.4366 165.503C41.6825 169.943 36.9365 170.496 36.9365 170.496L37.2533 181.249L37.4091 183.763C39.7473 184.369 42.2086 184.306 44.513 183.582C44.5532 181.797 44.6939 179.253 44.6939 179.253L44.6386 179.977ZM42.4064 171.587C42.3315 171.59 42.2574 171.57 42.1936 171.531C42.1297 171.491 42.0791 171.434 42.0481 171.366C42.0171 171.297 42.0071 171.221 42.0195 171.147C42.0319 171.074 42.0661 171.005 42.1177 170.95C42.1692 170.896 42.2359 170.858 42.3091 170.842C42.3822 170.825 42.4586 170.831 42.5285 170.859C42.5983 170.886 42.6585 170.933 42.7012 170.995C42.744 171.057 42.7674 171.129 42.7684 171.204C42.7698 171.253 42.7614 171.302 42.744 171.348C42.7265 171.393 42.7002 171.435 42.6666 171.471C42.633 171.506 42.5927 171.535 42.5481 171.554C42.5034 171.574 42.4553 171.585 42.4064 171.587ZM46.6798 171.506C46.6049 171.509 46.5308 171.49 46.4669 171.45C46.4031 171.411 46.3524 171.354 46.3214 171.285C46.2904 171.217 46.2805 171.141 46.2929 171.067C46.3053 170.993 46.3395 170.924 46.391 170.87C46.4426 170.816 46.5092 170.778 46.5824 170.761C46.6556 170.745 46.732 170.751 46.8019 170.778C46.8717 170.805 46.9319 170.853 46.9746 170.914C47.0173 170.976 47.0407 171.049 47.0418 171.124C47.0438 171.173 47.036 171.222 47.0188 171.268C47.0015 171.314 46.9753 171.356 46.9415 171.392C46.9078 171.427 46.8672 171.456 46.8223 171.475C46.7773 171.495 46.7289 171.505 46.6798 171.506ZM46.0916 170.43C46.2631 170.309 46.4702 170.249 46.6798 170.259C46.8901 170.268 47.0917 170.345 47.2529 170.481C47.3736 170.586 47.4138 170.682 47.3887 170.702C47.3635 170.722 47.0669 170.521 46.6698 170.506C46.2726 170.491 45.976 170.692 45.9357 170.641C45.8955 170.591 45.986 170.531 46.0916 170.43ZM44.3571 170.646C44.6773 171.338 44.9461 172.052 45.1615 172.783L45.438 173.628C45.4997 173.761 45.5156 173.912 45.4833 174.055C45.4687 174.092 45.4456 174.125 45.4159 174.151C45.3862 174.177 45.3507 174.196 45.3123 174.206C45.2557 174.215 45.198 174.215 45.1414 174.206C44.9234 174.226 44.7036 174.218 44.4878 174.181C44.6985 174.118 44.9166 174.084 45.1364 174.08C45.2369 174.08 45.3324 174.055 45.3526 173.985C45.3608 173.872 45.3382 173.759 45.2872 173.658L45.0006 172.818C44.7316 172.112 44.5164 171.386 44.3571 170.646ZM45.1163 175.252C44.9781 175.461 44.7723 175.616 44.5333 175.691C44.2944 175.766 44.0369 175.756 43.8041 175.664C43.6939 175.636 43.5902 175.587 43.4991 175.519C43.408 175.451 43.3312 175.366 43.2732 175.269C43.2153 175.171 43.1772 175.063 43.1614 174.95C43.1455 174.838 43.152 174.723 43.1807 174.613C42.7734 174.347 44.3068 175.267 45.1163 175.252ZM41.6875 170.531C41.8615 170.411 42.0701 170.353 42.2808 170.365C42.4897 170.372 42.6899 170.45 42.8489 170.586C42.9695 170.687 43.0097 170.782 42.9896 170.807C42.9695 170.832 42.6679 170.621 42.2707 170.611C41.8735 170.601 41.5769 170.797 41.5317 170.742C41.4864 170.687 41.5618 170.606 41.6875 170.531Z" fill="#EBEBEB"/>
<path d="M46.6651 170.752C46.5651 170.752 46.4692 170.792 46.3985 170.862C46.3278 170.933 46.2881 171.029 46.2881 171.129C46.2881 171.229 46.3278 171.325 46.3985 171.396C46.4692 171.466 46.5651 171.506 46.6651 171.506C46.7142 171.506 46.7627 171.495 46.8076 171.475C46.8526 171.456 46.8931 171.427 46.9269 171.392C46.9606 171.356 46.9869 171.314 47.0041 171.268C47.0213 171.222 47.0291 171.173 47.0271 171.124C47.0272 171.027 46.9893 170.934 46.9217 170.864C46.8541 170.795 46.7621 170.755 46.6651 170.752Z" fill="#E0E0E0"/>
<path d="M46.6702 170.531C47.0674 170.531 47.3439 170.777 47.3892 170.727C47.4344 170.677 47.3892 170.611 47.2534 170.506C47.0921 170.371 46.8906 170.293 46.6803 170.284C46.4706 170.274 46.2636 170.334 46.0921 170.455C45.9614 170.551 45.9161 170.641 45.9362 170.667C45.9563 170.692 46.2731 170.486 46.6702 170.531Z" fill="#E0E0E0"/>
<path d="M42.3917 170.832C42.3169 170.832 42.2438 170.855 42.1817 170.896C42.1196 170.938 42.0712 170.997 42.0429 171.066C42.0145 171.136 42.0073 171.212 42.0223 171.285C42.0372 171.358 42.0736 171.425 42.1269 171.478C42.1801 171.53 42.2478 171.566 42.3212 171.58C42.3947 171.594 42.4707 171.586 42.5395 171.556C42.6083 171.527 42.6668 171.478 42.7076 171.415C42.7485 171.353 42.7697 171.279 42.7687 171.204C42.7674 171.105 42.7271 171.011 42.6565 170.941C42.586 170.871 42.4908 170.832 42.3917 170.832Z" fill="#E0E0E0"/>
<path d="M42.2707 170.591C42.6679 170.591 42.9444 170.837 42.9896 170.787C43.0349 170.737 42.9896 170.667 42.8488 170.566C42.6899 170.43 42.4897 170.352 42.2807 170.345C42.0701 170.333 41.8615 170.391 41.6875 170.511C41.5618 170.606 41.5115 170.697 41.5316 170.722C41.5517 170.747 41.8735 170.571 42.2707 170.591Z" fill="#E0E0E0"/>
<path d="M45.2875 173.678C45.3385 173.779 45.3611 173.892 45.3529 174.005C45.3529 174.075 45.2372 174.095 45.1367 174.1C44.917 174.104 44.6988 174.138 44.4881 174.201C44.7039 174.238 44.9237 174.247 45.1417 174.226C45.1983 174.235 45.256 174.235 45.3127 174.226C45.351 174.216 45.3865 174.197 45.4162 174.171C45.4459 174.145 45.469 174.112 45.4836 174.075C45.5159 173.932 45.5 173.781 45.4383 173.648L45.1618 172.803C44.9465 172.072 44.6776 171.358 44.3574 170.667C44.5158 171.412 44.7309 172.145 45.0009 172.858L45.2875 173.678Z" fill="#E0E0E0"/>
<path d="M43.8043 175.664C44.0371 175.756 44.2946 175.766 44.5335 175.691C44.7724 175.616 44.9783 175.461 45.1164 175.252C44.307 175.252 42.7736 174.347 43.1808 174.613C43.1522 174.723 43.1456 174.838 43.1615 174.95C43.1774 175.063 43.2154 175.171 43.2734 175.269C43.3314 175.366 43.4081 175.452 43.4993 175.519C43.5904 175.587 43.694 175.636 43.8043 175.664Z" fill="white"/>
<path d="M40.8477 177.997C40.8477 177.997 41.7526 180.153 44.6384 179.977L44.6887 179.248C43.3135 179.215 41.9782 178.78 40.8477 177.997Z" fill="#E0E0E0"/>
<path d="M36.9366 170.496C36.9366 170.496 41.6825 169.943 42.4366 165.503L42.4668 165.528C42.7584 166.197 43.2762 167.635 42.9696 168.806L47.2077 169.847L47.7105 170.284C48.1169 169.211 48.1973 168.042 47.9415 166.923C47.6857 165.804 47.1051 164.785 46.2726 163.995C43.3567 161.004 41.411 161.672 40.2899 161.693C39.2442 161.693 33.9854 162.959 32.5275 169.158C32.4553 169.556 32.4033 169.957 32.3716 170.36C32.3414 170.687 32.3113 171.003 32.2861 171.215H32.3515C32.3802 174.803 32.7166 178.382 33.357 181.913C34.5644 182.747 35.9062 183.368 37.3237 183.748L37.2483 181.26L36.9366 170.496Z" fill="#E0E0E0"/>
<path d="M58.1228 167.222L98.4482 167.158L98.4448 164.936L58.1193 165L58.1228 167.222Z" fill="#F5F5F5"/>
<path d="M58.1345 172.943L98.46 172.88L98.4565 170.658L58.131 170.721L58.1345 172.943Z" fill="#F5F5F5"/>
<path d="M78.4765 178.463L98.4658 178.432L98.4623 176.21L78.473 176.241L78.4765 178.463Z" fill="#F5F5F5"/>
<path d="M167.888 69.9808C167.545 69.6824 167.099 69.53 166.645 69.5563C166.191 69.5826 165.765 69.7855 165.459 70.1216C165.155 70.4276 164.921 70.7961 164.774 71.2015C164.626 71.6069 164.568 72.0396 164.605 72.4695C164.482 72.0503 164.269 71.6629 163.982 71.3339C163.695 71.0049 163.339 70.7422 162.941 70.564C162.536 70.3518 162.065 70.305 161.627 70.4336C161.189 70.5621 160.818 70.8558 160.593 71.2528C160.358 71.7888 160.333 72.3934 160.522 72.9471C160.666 73.5197 160.966 74.0416 161.387 74.4553C162.895 75.7474 163.614 75.8982 165.409 76.6926C166.807 75.3402 167.264 74.9832 168.235 73.2588C168.486 72.735 168.59 72.1529 168.536 71.5746C168.531 70.9801 168.299 70.41 167.888 69.9808Z" fill="#F5F5F5"/>
<path d="M47.338 25.382L48.0016 26.7244L49.4847 26.9405L48.4139 27.9863L48.6653 29.4643L47.338 28.7655L46.0158 29.4643L46.2671 27.9863L45.1963 26.9405L46.6794 26.7244L47.338 25.382Z" fill="#E0E0E0"/>
<path d="M22.7434 57.1457L23.945 59.579L26.6246 59.9661L24.684 61.8565L25.1415 64.526L22.7434 63.2642L20.3453 64.526L20.8078 61.8565L18.8672 59.9661L21.5468 59.579L22.7434 57.1457Z" fill="#E0E0E0"/>
<path d="M39.8326 58.7997L40.1644 59.4684L40.9034 59.579L40.3705 60.0968L40.4962 60.8359L39.8326 60.489L39.1689 60.8359L39.2997 60.0968L38.7617 59.579L39.5008 59.4684L39.8326 58.7997Z" fill="#E0E0E0"/>
<path d="M194.704 13.2054V19.7059C194.704 20.4126 194.423 21.0904 193.923 21.5901C193.424 22.0898 192.746 22.3705 192.039 22.3705H180.828V26.0758L178.817 22.5314C178.221 22.4882 177.664 22.221 177.257 21.7835C176.851 21.346 176.625 20.7708 176.625 20.1735V13.2054C176.625 12.5 176.905 11.8236 177.404 11.3248C177.903 10.826 178.579 10.5458 179.285 10.5458H192.039C192.389 10.5452 192.735 10.6135 193.059 10.7468C193.382 10.8802 193.676 11.076 193.923 11.323C194.171 11.5701 194.367 11.8635 194.501 12.1865C194.635 12.5095 194.704 12.8557 194.704 13.2054Z" fill="#455A64"/>
<path d="M189.687 17.886C190.292 17.886 190.783 17.3953 190.783 16.79C190.783 16.1847 190.292 15.694 189.687 15.694C189.082 15.694 188.591 16.1847 188.591 16.79C188.591 17.3953 189.082 17.886 189.687 17.886Z" fill="#263238"/>
<path d="M185.524 17.886C186.129 17.886 186.62 17.3953 186.62 16.79C186.62 16.1847 186.129 15.694 185.524 15.694C184.918 15.694 184.428 16.1847 184.428 16.79C184.428 17.3953 184.918 17.886 185.524 17.886Z" fill="#263238"/>
<path d="M180.271 16.79C180.273 17.0063 180.339 17.2173 180.46 17.3962C180.582 17.5751 180.754 17.714 180.954 17.7954C181.155 17.8768 181.375 17.8971 181.587 17.8537C181.798 17.8102 181.993 17.7051 182.145 17.5514C182.297 17.3977 182.401 17.2024 182.442 16.9901C182.484 16.7778 182.461 16.5579 182.378 16.3583C182.295 16.1586 182.154 15.988 181.974 15.868C181.794 15.748 181.583 15.684 181.367 15.684C181.222 15.6833 181.078 15.7115 180.944 15.767C180.81 15.8224 180.689 15.9041 180.587 16.007C180.484 16.11 180.404 16.2323 180.35 16.3667C180.296 16.5012 180.269 16.6451 180.271 16.79Z" fill="#263238"/>
<path d="M43.0147 37.8351C43.0103 37.9065 42.9986 37.9773 42.9796 38.0463C42.9494 38.2021 42.9041 38.4133 42.8488 38.6797C42.7282 39.2529 42.5572 40.0774 42.3461 41.1281C41.8836 43.2749 41.2199 46.3517 40.4105 50.1223V50.2178L40.31 50.1927L36.9315 49.4587C35.4232 49.3732 33.915 49.2727 32.266 49.152C30.6169 49.0313 28.9428 48.9207 27.1932 48.6744C26.7305 48.6147 26.2851 48.4597 25.8853 48.2191C25.4855 47.9786 25.14 47.6577 24.8705 47.2767C24.3218 46.492 24.0608 45.542 24.1315 44.587C24.1802 44.114 24.2711 43.6463 24.403 43.1894C24.5136 42.7319 24.6292 42.2744 24.7398 41.8119L25.4537 39.0166C25.7353 37.9306 26.0268 36.8648 26.3385 35.8141C26.4994 35.2862 26.6603 34.7683 26.8413 34.2606C26.8865 34.1298 26.9569 34.0042 27.0173 33.8734C27.0639 33.7983 27.1215 33.7305 27.1882 33.6723C27.2647 33.6371 27.346 33.6134 27.4295 33.602C27.7037 33.5743 27.9799 33.5743 28.254 33.602C30.3032 33.8289 32.3376 34.173 34.3473 34.6326H34.4328V34.7231C34.4304 34.7482 34.4304 34.7734 34.4328 34.7985C34.4328 34.7985 34.4328 34.7985 34.3624 34.7583C34.292 34.7181 34.292 34.7884 34.292 34.7583C34.3051 34.7362 34.3152 34.7126 34.3222 34.6879C34.3617 34.5775 34.3953 34.465 34.4228 34.3511C34.4831 34.1148 34.5334 33.8785 34.5786 33.6422C34.6691 33.1696 34.7546 32.702 34.83 32.2345C34.9414 31.3184 35.1093 30.41 35.3327 29.5146C35.5785 28.6608 36.0329 27.8816 36.655 27.2472C36.9573 26.9456 37.3289 26.7228 37.7374 26.5983C38.1459 26.4738 38.5787 26.4515 38.9978 26.5333H39.0933L39.0682 26.6338L38.1934 30.5302V30.4799C39.5056 33.5869 40.4909 35.9347 41.1043 37.3877H41.0741L42.5522 37.7396L42.9092 37.8251L43.0198 37.8602H42.8941L42.5221 37.7899L41.0591 37.4882C40.4306 36.0453 39.41 33.7126 38.0426 30.6156V30.5905C38.304 29.399 38.5855 28.1019 38.8922 26.6841L38.9626 26.7998C38.5781 26.7307 38.1826 26.7564 37.8103 26.8747C37.4379 26.9929 37.1001 27.2002 36.8259 27.4785C36.2525 28.1107 35.8464 28.8764 35.6444 29.7056C35.4231 30.5947 35.2553 31.4963 35.1417 32.4054C35.0663 32.873 34.9909 33.3456 34.8953 33.8232C34.8501 34.0595 34.7998 34.3259 34.7395 34.5371C34.7113 34.6613 34.676 34.7838 34.6339 34.9041C34.6339 34.9342 34.6339 34.9694 34.5937 35.0046C34.5825 35.0246 34.569 35.0431 34.5535 35.0599C34.5382 35.0844 34.5166 35.1044 34.4909 35.1176C34.4653 35.1309 34.4365 35.137 34.4077 35.1353C34.292 35.1002 34.3021 35.0499 34.277 35.0298C34.2518 35.0097 34.277 34.9795 34.277 34.9644V34.8538L34.3725 34.9644C32.3814 34.5189 30.3674 34.1832 28.3395 33.9589C28.082 33.9337 27.8227 33.9337 27.5653 33.9589C27.5162 33.9634 27.4685 33.977 27.4245 33.9991C27.3941 34.0315 27.3672 34.0668 27.344 34.1047C27.2844 34.2192 27.2307 34.3366 27.1832 34.4566C26.9871 34.9594 26.8262 35.4621 26.6804 35.9649C26.3687 37.0056 26.0821 38.0764 25.7956 39.1573C25.5593 40.0975 25.2928 41.0276 25.0867 41.9476C24.9711 42.4101 24.8605 42.8727 24.7448 43.3302C24.6189 43.7728 24.5298 44.2252 24.4784 44.6826C24.4138 45.5746 24.6569 46.4618 25.1671 47.1963C25.4146 47.5498 25.7327 47.848 26.1014 48.0721C26.47 48.2963 26.8812 48.4414 27.3089 48.4984C29.0333 48.7448 30.7326 48.8554 32.3364 49.0012L36.9968 49.3229L40.3703 50.0771L40.2547 50.1525C41.0993 46.417 41.7931 43.3704 42.2657 41.2387C42.512 40.188 42.703 39.3584 42.8338 38.7803C42.8991 38.5088 42.9544 38.2775 42.9896 38.1368C42.9889 38.0357 42.9973 37.9347 43.0147 37.8351Z" fill="#263238"/>
<path d="M48.8518 38.0011C48.739 37.995 48.6266 37.9833 48.5149 37.9659L47.5899 37.8402L44.2265 37.3374L44.327 37.2671C43.6433 40.4092 42.6579 44.9189 41.5669 49.9363L41.4614 50.3737L41.3608 50.2179L44.7091 50.9619L44.5583 51.0474C45.7599 47.3371 46.8157 44.0944 47.5748 41.7415C47.9569 40.5953 48.2636 39.6652 48.4848 38.9915C48.5904 38.6898 48.6708 38.4435 48.7412 38.2474C48.7651 38.1553 48.7988 38.0659 48.8417 37.981C48.8267 38.0631 48.8048 38.1438 48.7764 38.2223L48.5652 38.9513C48.3591 39.6199 48.0625 40.545 47.7307 41.6912C46.9916 44.0743 45.971 47.3623 44.7996 51.1279L44.7695 51.2385H44.6538L41.3055 50.4994L41.1748 50.4693L41.205 50.3436L41.3005 49.9011L44.141 37.252V37.1665H44.2215L47.6301 37.7597L48.525 37.9257C48.6356 37.9427 48.7449 37.9679 48.8518 38.0011Z" fill="#263238"/>
<path d="M161.127 20.1082L162.842 23.5822L166.678 24.1352L163.903 26.84L164.556 30.6609L161.127 28.856L157.699 30.6609L158.352 26.84L155.577 24.1352L159.413 23.5822L161.127 20.1082Z" fill="#BA2D3B"/>
<path d="M189.673 74.0331L190.527 75.7676L192.448 76.0491L191.06 77.4015L191.387 79.3069L189.673 78.407L187.958 79.3069L188.285 77.4015L186.897 76.0491L188.818 75.7676L189.673 74.0331Z" fill="#BA2D3B"/>
<path d="M28.0086 114.932L28.8683 116.671L30.7838 116.948L29.3962 118.3L29.723 120.211L28.0086 119.311L26.2942 120.211L26.621 118.3L25.2334 116.948L27.1539 116.671L28.0086 114.932Z" fill="#BA2D3B"/>
<path d="M138.758 202.641L75.3366 203.054C73.5232 203.066 71.7251 202.721 70.045 202.039C68.3649 201.356 66.8357 200.35 65.5448 199.076C64.2539 197.802 63.2266 196.287 62.5215 194.616C61.8164 192.945 61.4474 191.152 61.4356 189.339L60.3245 30.3441C60.3004 26.6795 61.7328 23.1554 64.3066 20.5467C66.8804 17.938 70.385 16.4583 74.0496 16.433L137.487 16.0158C139.301 16.0058 141.1 16.3536 142.78 17.0391C144.46 17.7246 145.988 18.7345 147.278 20.0109C148.567 21.2874 149.593 22.8055 150.295 24.4785C150.998 26.1515 151.364 27.9465 151.372 29.7609L152.484 188.755C152.501 192.416 151.066 195.933 148.492 198.537C145.919 201.14 142.419 202.616 138.758 202.641Z" fill="#263238"/>
<path d="M137.441 21.5058L125.144 21.5862C124.743 21.5979 124.348 21.6887 123.982 21.8533C123.616 22.0179 123.286 22.2531 123.011 22.5455C122.735 22.8378 122.521 23.1816 122.379 23.557C122.237 23.9325 122.17 24.3322 122.183 24.7335V26.9606C122.206 27.7706 121.906 28.5565 121.35 29.1457C120.794 29.7349 120.027 30.0792 119.217 30.1028L95.2556 30.2637C94.8536 30.2591 94.4564 30.1751 94.0869 30.0166C93.7174 29.858 93.3829 29.628 93.1026 29.3397C92.8223 29.0515 92.6017 28.7107 92.4535 28.3369C92.3054 27.9631 92.2325 27.5638 92.2392 27.1617V24.9346C92.2499 24.1234 91.9383 23.3411 91.3727 22.7595C90.8071 22.1779 90.0338 21.8445 89.2227 21.8326L84.899 21.8577L74.1402 21.9331C72.8693 21.9404 71.6123 22.1981 70.4411 22.6916C69.2699 23.1851 68.2076 23.9047 67.3147 24.8092C66.4219 25.7137 65.7162 26.7853 65.238 27.9628C64.7597 29.1403 64.5183 30.4005 64.5276 31.6714L65.6085 186.86C65.6171 188.13 65.8757 189.387 66.3698 190.557C66.8638 191.727 67.5835 192.789 68.4878 193.681C69.3921 194.573 70.4632 195.278 71.6401 195.756C72.817 196.235 74.0765 196.476 75.3468 196.468L138.638 196.055C139.909 196.047 141.166 195.788 142.337 195.294C143.507 194.799 144.57 194.079 145.462 193.175C146.355 192.27 147.06 191.198 147.539 190.021C148.017 188.843 148.259 187.583 148.25 186.312L147.17 31.1234C147.154 28.5584 146.12 26.1046 144.296 24.3013C142.472 22.4979 140.006 21.4924 137.441 21.5058Z" fill="#FAFAFA"/>
<path d="M119.474 193.034L120.364 193.17V193.114L119.097 192.979L119.474 193.034Z" fill="#B78876"/>
<path d="M105.049 196.267C105.049 196.141 105.019 196.01 105.009 195.889C104.907 194.815 104.894 193.734 104.969 192.657C104.999 192.28 105.039 191.983 105.074 191.787C105.087 191.692 105.105 191.598 105.13 191.505C103.249 191.304 101.55 191.133 100.162 191.003L97.3672 190.721L97.8046 196.322L105.049 196.267Z" fill="#B78876"/>
<path d="M109.835 192.023C108.191 191.837 106.628 191.661 105.17 191.521C105.17 191.616 105.14 192.023 105.124 192.682C105.1 193.75 105.148 194.818 105.27 195.879C105.27 196.01 105.305 196.146 105.326 196.277L121.192 196.171C120.72 194.663 120.433 193.718 120.388 193.512C120.384 193.458 120.384 193.404 120.388 193.351L119.478 193.235C116.984 192.893 113.581 192.461 109.835 192.023Z" fill="#B78876"/>
<path d="M105.105 192.652C105.105 191.988 105.16 191.586 105.15 191.49C105.125 191.583 105.107 191.677 105.095 191.772C105.06 191.968 105.019 192.275 104.989 192.642C104.914 193.719 104.928 194.8 105.029 195.874C105.029 195.995 105.06 196.126 105.07 196.251H105.311C105.311 196.121 105.271 195.985 105.256 195.854C105.132 194.792 105.081 193.721 105.105 192.652Z" fill="#A36957"/>
<path d="M85.2011 101.584L82.6521 98.6879L82.8985 98.4365C81.0433 99.8643 79.6658 100.734 79.5452 100.277C77.318 92.1471 77.5895 81.6749 77.8006 77.683C78.0168 77.3311 78.2581 76.944 78.5497 76.5217C78.8889 76.0309 79.3068 75.5995 79.7865 75.2447C80.3659 74.7795 81.0072 74.3971 81.6919 74.1085C82.3404 73.9024 82.4259 73.0276 81.8477 72.8315C81.2696 72.6354 79.4647 73.1533 77.8258 74.6112C76.1868 76.0692 76.77 72.7008 76.966 71.4741C77.1621 70.2474 77.5794 66.4114 77.2476 66.0595C76.7448 65.5567 76.1063 65.984 75.9404 67.2208C75.7745 68.4576 75.0204 72.1226 74.3719 72.002C73.7233 71.8813 74.8093 65.6321 74.8093 65.6321C74.8093 65.6321 75.2567 64.33 74.5126 64.1691C73.1753 63.8826 72.5016 70.5993 72.4765 71.2428C72.4463 71.6852 71.7375 71.5847 71.7978 71.1071C71.8581 70.6295 73.0144 64.8881 71.652 64.5713C70.6113 64.3401 71.0688 70.1016 70.1689 71.1724C69.269 72.2433 70.2694 66.7583 69.2589 66.5723C68.8869 66.5019 68.5953 66.5069 68.4746 69.7245C68.4999 72.3176 68.6678 74.9073 68.9774 77.4819C68.3389 86.3354 67.3635 113.413 79.5351 112.141C84.5324 111.639 88.1472 109.899 90.7464 107.878L85.3268 101.714L85.2011 101.584Z" fill="#B78876"/>
<path d="M113.44 133.423L123.601 133.719C123.646 130.623 123.691 127.606 123.737 124.7C123.681 124.562 123.632 124.421 123.591 124.278V123.83C120.665 123.76 117.307 123.68 113.672 123.584C113.585 126.758 113.507 130.038 113.44 133.423Z" fill="#455A64"/>
<path d="M108.076 123.438L102.244 123.272C102.123 126.44 102.002 129.733 101.882 133.106L107.256 133.247L113.179 133.408C113.249 130.024 113.334 126.736 113.425 123.569L108.076 123.438Z" fill="#455A64"/>
<path d="M123.169 174.301L113.234 174.05C113.234 174.91 113.234 175.759 113.26 176.564C113.3 179.354 113.335 181.828 113.365 183.949L123.269 184.246C123.244 182.355 123.199 180.224 123.189 177.836C123.179 176.725 123.174 175.558 123.169 174.301Z" fill="#455A64"/>
<path d="M123.48 189.273C123.48 190.611 123.516 191.656 123.526 192.375C123.526 192.722 123.526 192.994 123.526 193.185C123.526 193.376 123.526 193.461 123.526 193.461C123.526 193.461 124.37 189.912 125.446 184.502L123.435 184.457C123.41 186.332 123.455 187.951 123.48 189.273Z" fill="#455A64"/>
<path d="M123.374 177.861C123.374 180.234 123.404 182.386 123.419 184.276L125.481 184.341C126.054 181.455 126.692 178.057 127.306 174.387L123.369 174.306C123.369 175.536 123.371 176.721 123.374 177.861Z" fill="#455A64"/>
<path d="M123.475 192.38C123.475 191.656 123.419 190.616 123.379 189.273C123.339 187.931 123.299 186.332 123.273 184.457C120.508 184.397 117.13 184.316 113.364 184.221C113.364 185.684 113.404 186.981 113.42 188.072C113.42 189.424 113.455 190.47 113.465 191.199C113.465 191.546 113.465 191.817 113.465 192.008V192.204C115.601 192.476 117.517 192.747 119.091 192.979L120.358 193.114L123.52 193.461C123.52 193.461 123.52 193.366 123.52 193.185C123.52 193.004 123.49 192.727 123.475 192.38Z" fill="#455A64"/>
<path d="M128.145 133.86C126.2 127.495 124.772 126.545 123.993 125.213C123.958 127.963 123.917 130.808 123.872 133.729L128.145 133.86Z" fill="#455A64"/>
<path d="M113.013 143.769L106.416 143.593L101.49 143.463C101.354 146.851 101.228 150.134 101.107 153.292L105.592 153.412L112.942 153.613C112.952 150.421 112.977 147.153 113.013 143.769Z" fill="#455A64"/>
<path d="M123.767 140.205C123.747 141.422 123.729 142.628 123.712 143.825L129.981 144.031C129.9 141.659 129.582 139.301 129.031 136.992C128.744 135.886 128.468 134.906 128.196 134.021L123.868 133.926C123.838 135.992 123.802 138.078 123.767 140.205Z" fill="#455A64"/>
<path d="M113.174 133.674L107.247 133.518L101.872 133.373C101.832 134.455 101.792 135.543 101.752 136.635C101.668 138.864 101.582 141.055 101.495 143.206L106.422 143.332L113.018 143.513C113.038 141.924 113.06 140.319 113.083 138.697C113.114 137.004 113.144 135.33 113.174 133.674Z" fill="#455A64"/>
<path d="M123.44 144.021C120.509 143.955 117.055 143.87 113.275 143.774C113.235 147.158 113.209 150.446 113.194 153.618C116.975 153.724 120.409 153.824 123.295 153.915C123.335 150.727 123.41 147.404 123.44 144.021Z" fill="#455A64"/>
<path d="M123.596 133.926C120.64 133.86 117.191 133.775 113.435 133.679C113.405 135.335 113.375 137.011 113.345 138.707C113.318 140.332 113.296 141.939 113.279 143.528L123.445 143.825C123.445 142.623 123.48 141.422 123.505 140.205C123.535 138.073 123.566 135.987 123.596 133.926Z" fill="#455A64"/>
<path d="M123.792 88.0145C123.817 88.7385 123.847 89.7792 123.887 91.1215C123.887 91.579 123.917 92.0918 123.927 92.6298C123.927 92.8007 123.952 92.9666 123.957 93.1325L130.493 93.3286C129.367 90.0859 126.858 87.9894 124.154 86.6571C124.053 86.8847 123.924 87.0991 123.771 87.2956C123.771 87.4766 123.782 87.7129 123.792 88.0145Z" fill="#455A64"/>
<path d="M123.742 88.0195C123.742 87.733 123.742 87.5168 123.742 87.3257C123.711 87.366 123.681 87.4112 123.646 87.4514C123.6 87.5009 123.551 87.5479 123.5 87.5922C123.212 88.2308 122.792 88.8013 122.269 89.2664C123.029 89.9581 123.565 90.8616 123.807 91.8605C123.807 91.6092 123.807 91.3578 123.807 91.1215C123.767 89.7842 123.752 88.7385 123.742 88.0195Z" fill="#455A64"/>
<path d="M102.822 102.252L94.0743 102.001C93.9637 103.006 93.8431 104.012 93.7274 105.017C93.6269 105.932 93.5263 106.832 93.4258 107.712C93.5044 109.438 93.8767 111.139 94.5268 112.74L102.41 112.936C102.556 109.08 102.696 105.495 102.822 102.252Z" fill="#455A64"/>
<path d="M114.405 102.308L117.925 102.403C118.098 102.364 118.275 102.337 118.452 102.323C118.372 102.207 118.337 102.107 118.372 102.081C118.383 102.075 118.395 102.072 118.407 102.072C118.42 102.072 118.432 102.075 118.442 102.081C118.028 101.677 117.788 101.127 117.774 100.548C117.774 99.3566 118.598 98.3008 119.377 97.3305C118.637 96.0931 118.303 94.655 118.422 93.218L114.828 93.1275C114.727 95.3145 114.606 97.8936 114.471 100.82C114.451 101.307 114.43 101.805 114.405 102.308Z" fill="#455A64"/>
<path d="M108.91 113.363L102.611 113.217C102.5 116.334 102.38 119.622 102.249 123.051L108.086 123.202L113.43 123.348C113.531 119.914 113.636 116.621 113.752 113.514L108.91 113.363Z" fill="#455A64"/>
<path d="M123.852 86.5012C123.852 86.6169 123.797 86.7275 123.767 86.8381C123.827 86.7366 123.879 86.6307 123.922 86.5213L123.852 86.5012Z" fill="#455A64"/>
<path d="M111.273 111.805C110.14 111.652 109.066 111.207 108.156 110.513C107.882 110.305 107.628 110.073 107.397 109.819C107.307 109.731 107.232 109.629 107.176 109.517C107.211 109.482 107.568 109.884 108.267 110.362C109.067 110.92 109.976 111.302 110.935 111.483C111.893 111.664 112.879 111.64 113.827 111.413C113.953 108.235 114.079 105.264 114.204 102.554L108.086 102.398L103.013 102.257C102.893 105.5 102.762 109.085 102.621 112.936L108.916 113.102L113.762 113.232C113.762 112.695 113.802 112.167 113.822 111.639C112.992 111.859 112.126 111.915 111.273 111.805Z" fill="#455A64"/>
<path d="M123.947 93.4593C123.947 94.2536 123.982 95.1083 123.998 96.0283C124.023 97.9438 124.068 100.126 124.078 102.534V102.584C127.487 102.69 130.272 102.78 132.157 102.851C131.911 101.016 131.529 98.5119 130.946 95.0781C130.853 94.5492 130.725 94.0268 130.563 93.5146L123.957 93.3638C123.956 93.3958 123.953 93.4277 123.947 93.4593Z" fill="#455A64"/>
<path d="M123.912 106.898C123.912 105.47 123.912 104.097 123.912 102.79L120.081 102.7C119.915 102.727 119.745 102.727 119.579 102.7H119.201C119.237 102.745 119.257 102.78 119.242 102.8C119.227 102.82 119.111 102.8 118.97 102.755C118.982 102.786 118.99 102.818 118.995 102.851C119.045 102.904 119.091 102.961 119.131 103.022C119.378 103.403 119.519 103.844 119.539 104.299C119.558 104.753 119.455 105.204 119.242 105.606C119.176 105.725 119.096 105.836 119.005 105.938C118.935 106.003 118.89 106.033 118.88 106.023C118.87 106.013 118.88 105.963 118.92 105.877C118.96 105.792 119.015 105.676 119.076 105.525C119.224 105.137 119.293 104.724 119.277 104.309C119.261 104.019 119.205 103.733 119.111 103.459C119.21 104.325 119.038 105.201 118.619 105.966C118.199 106.73 117.552 107.346 116.768 107.727L117.02 106.551C116.85 106.742 116.643 106.895 116.411 107.001C116.179 107.108 115.927 107.165 115.672 107.169C115.728 106.636 115.877 106.117 116.115 105.636L115.205 106.003C115.183 105.056 115.531 104.138 116.175 103.444C116.492 103.111 116.871 102.843 117.291 102.655L114.425 102.579C114.315 105.274 114.199 108.22 114.088 111.372C114.264 111.327 114.43 111.277 114.591 111.221C115.391 110.945 115.843 110.648 115.863 110.689C115.883 110.729 115.773 110.794 115.572 110.925C115.282 111.11 114.976 111.269 114.657 111.397C114.486 111.468 114.295 111.533 114.088 111.598C114.088 112.146 114.048 112.694 114.033 113.258L123.771 113.539L123.857 107.164C121.001 106.913 118.905 106.687 118.91 106.626C118.915 106.566 121.021 106.682 123.912 106.898Z" fill="#455A64"/>
<path d="M124.103 106.913L125.612 107.039C129.322 107.35 132.323 107.657 132.318 107.732C132.191 107.749 132.063 107.749 131.936 107.732L132.57 107.778C132.57 107.778 132.776 107.421 132.172 102.956C130.287 102.926 127.497 102.866 124.078 102.785C124.093 104.102 124.098 105.48 124.103 106.913Z" fill="#455A64"/>
<path d="M103.023 102.001L108.096 102.132L114.215 102.303C114.24 101.8 114.265 101.297 114.285 100.794C114.426 97.8734 114.562 95.2943 114.677 93.1073L112.39 93.047L103.34 92.7956C103.275 94.696 103.199 96.8528 103.119 99.2358C103.094 100.146 103.059 101.061 103.023 102.001Z" fill="#455A64"/>
<path d="M95.2559 92.3784C97.6037 92.4287 100.283 92.494 103.219 92.5695C103.295 90.7696 103.36 89.2061 103.415 87.9241C103.471 86.642 103.521 85.5561 103.556 84.8422V84.4149C100.987 84.3827 98.4393 84.8789 96.0703 85.8728C95.9346 86.9236 95.7636 88.276 95.5676 89.8948C95.472 90.654 95.3614 91.4936 95.2559 92.3784Z" fill="#455A64"/>
<path d="M102.4 113.182L94.6377 112.961C94.7068 113.108 94.784 113.25 94.869 113.388L98.6295 119.602L98.0162 122.92L102.038 123.021C102.149 119.592 102.295 116.304 102.4 113.182Z" fill="#455A64"/>
<path d="M113.682 123.333L123.601 123.614L123.727 113.735C120.826 113.67 117.528 113.584 113.983 113.494C113.858 116.601 113.777 119.894 113.682 123.333Z" fill="#455A64"/>
<path d="M101.49 136.625C101.537 135.529 101.579 134.442 101.616 133.363L95.8491 133.202C94.9457 136.43 94.2157 139.704 93.6621 143.01L101.249 143.196C101.329 141.045 101.409 138.854 101.49 136.625Z" fill="#455A64"/>
<path d="M118.337 84.7366C117.442 84.5511 116.538 84.4151 115.627 84.3293C115.475 84.3732 115.318 84.3953 115.16 84.3947C114.853 84.3947 114.416 84.44 113.868 84.455C112.777 84.4953 111.274 84.5103 109.61 84.5053L105.351 84.4751C104.346 84.4751 103.727 84.4751 103.612 84.4249C103.612 84.5506 103.612 84.6913 103.612 84.8472C103.612 85.5611 103.561 86.5967 103.521 87.929C103.481 89.2613 103.421 90.7746 103.36 92.5694L112.41 92.8057L114.707 92.866C114.783 91.5338 114.853 90.3523 114.914 89.3468C114.999 87.9994 115.064 86.9537 115.11 86.2297C115.135 85.8778 115.155 85.6114 115.165 85.4203C115.175 85.2293 115.195 85.1438 115.195 85.1438C115.195 85.1438 115.195 85.2393 115.195 85.4203C115.195 85.6013 115.195 85.8828 115.16 86.2297C115.13 86.9537 115.079 88.0044 115.014 89.3518C114.969 90.3573 114.914 91.5388 114.853 92.8711L118.463 92.9716C118.611 91.6309 119.134 90.3591 119.971 89.3015C119.353 88.7276 118.881 88.0131 118.597 87.2186C118.312 86.4241 118.223 85.5728 118.337 84.7366Z" fill="#455A64"/>
<path d="M123.912 102.534C123.912 100.126 123.882 97.9438 123.872 96.0333C123.872 95.43 123.872 94.867 123.872 94.319C123.621 95.5064 122.97 96.5714 122.027 97.3355C122.286 97.982 122.399 98.6777 122.358 99.3728C122.317 100.068 122.124 100.746 121.791 101.357C121.555 101.823 121.192 102.214 120.745 102.484L123.928 102.579L123.912 102.534Z" fill="#455A64"/>
<path d="M100.178 190.807C102.656 191.008 106.075 191.309 109.846 191.767C111.098 191.908 112.304 192.058 113.461 192.204C113.461 192.157 113.461 192.092 113.461 192.008C113.461 191.817 113.461 191.546 113.43 191.199C113.405 190.475 113.375 189.424 113.335 188.077C113.3 186.986 113.269 185.684 113.234 184.221L104.305 183.989L99.9215 183.869C99.9215 184.371 99.8762 184.874 99.8612 185.327C99.8008 186.659 99.7506 187.695 99.7204 188.409C99.7003 188.744 99.6852 189.01 99.6751 189.208C99.6751 189.389 99.65 189.479 99.65 189.479C99.65 189.479 99.65 189.389 99.65 189.208C99.65 189.027 99.65 188.75 99.65 188.409C99.6751 187.69 99.7053 186.654 99.7455 185.327C99.7455 184.874 99.7757 184.381 99.7908 183.864L95.6934 183.753C96.367 188.745 96.538 190.53 96.538 190.53L97.0709 190.585H97.2519C97.9356 190.641 98.9361 190.706 100.178 190.807Z" fill="#455A64"/>
<path d="M102.007 123.272L97.9854 123.162L96.5576 130.814C96.3866 131.357 96.1654 132.086 95.9141 132.975L101.625 133.116C101.756 129.733 101.887 126.445 102.007 123.272Z" fill="#455A64"/>
<path d="M123.41 164.211C123.379 167.761 123.359 171.089 123.359 174.125L127.316 174.256C127.849 171.089 128.357 167.72 128.789 164.317C127.432 164.297 125.612 164.262 123.41 164.211Z" fill="#455A64"/>
<path d="M99.7802 183.602C99.8657 181.088 99.9763 177.836 100.107 173.99V173.718L94.25 173.547C94.8684 177.74 95.3259 180.998 95.6627 183.487L99.7802 183.602Z" fill="#455A64"/>
<path d="M123.189 164.206C120.363 164.146 116.96 164.065 113.174 163.97C113.174 167.514 113.204 170.812 113.229 173.824C117.025 173.929 120.408 174.03 123.168 174.12C123.158 171.084 123.163 167.756 123.189 164.206Z" fill="#455A64"/>
<path d="M100.51 163.377C100.621 160.285 100.741 156.997 100.872 153.543L92.5313 153.307C92.3647 156.599 92.4403 159.899 92.7575 163.181L100.51 163.377Z" fill="#455A64"/>
<path d="M100.137 173.467C100.248 170.501 100.369 167.208 100.499 163.633L92.7822 163.417C92.8727 164.287 92.9783 165.156 93.114 166.026C93.5213 168.721 93.8832 171.139 94.205 173.316L100.137 173.467Z" fill="#455A64"/>
<path d="M104.757 163.749L100.705 163.638C100.565 167.213 100.439 170.506 100.323 173.472L103.933 173.567L113.033 173.819C112.993 170.802 112.962 167.504 112.947 163.965L104.757 163.749Z" fill="#455A64"/>
<path d="M113.038 174.05L103.923 173.814L100.313 173.713C100.313 173.804 100.313 173.899 100.313 173.99C100.152 177.831 100.022 181.074 99.916 183.597L104.295 183.713L113.224 183.954C113.174 181.833 113.128 179.364 113.083 176.579C113.063 175.78 113.048 174.93 113.038 174.05Z" fill="#455A64"/>
<path d="M123.706 144.026C123.656 147.424 123.606 150.732 123.561 153.925C126.16 154.005 128.296 154.076 129.81 154.131C130.053 150.812 130.112 147.482 129.986 144.157L123.706 144.026Z" fill="#455A64"/>
<path d="M123.556 154.116C123.52 156.454 123.485 158.731 123.455 160.933C123.455 161.984 123.455 163.01 123.425 164.025C125.622 164.091 127.447 164.156 128.814 164.206C129.237 160.863 129.583 157.495 129.82 154.242C128.286 154.222 126.155 154.176 123.556 154.116Z" fill="#455A64"/>
<path d="M112.938 153.865L105.587 153.674L101.098 153.553C100.962 157.002 100.836 160.29 100.716 163.382L104.738 163.487L112.918 163.714C112.933 160.602 112.928 157.303 112.938 153.865Z" fill="#455A64"/>
<path d="M100.877 153.286C100.997 150.129 101.118 146.841 101.239 143.453L93.6219 143.237C93.0746 146.495 92.7137 149.781 92.541 153.08L100.877 153.286Z" fill="#455A64"/>
<path d="M123.289 154.111C120.408 154.046 116.974 153.965 113.188 153.87C113.188 157.308 113.188 160.607 113.188 163.719L123.203 164.015C123.203 163.01 123.203 161.979 123.228 160.928C123.233 158.731 123.259 156.454 123.289 154.111Z" fill="#455A64"/>
<path d="M95.0398 92.3733C95.1604 91.4785 95.2761 90.6389 95.3867 89.8596C95.6079 88.2759 95.8039 86.9487 95.9598 85.9281C94.1109 86.733 92.4615 87.9344 91.1284 89.4473C90.2586 90.4528 89.4391 91.3729 88.6699 92.2326C90.2737 92.2678 92.4406 92.313 95.0398 92.3733Z" fill="#455A64"/>
<path d="M93.4709 104.992C93.5882 103.987 93.7038 102.981 93.8178 101.976C90.3789 101.87 87.468 101.78 85.3213 101.704L90.7309 107.888L91.2085 108.426L93.32 106.214C93.3753 105.807 93.4206 105.4 93.4709 104.992Z" fill="#455A64"/>
<path d="M85.2003 101.584C87.3621 101.624 90.3334 101.689 93.8476 101.775C94.2498 98.3762 94.652 95.239 95.014 92.5694C92.3695 92.489 90.1725 92.4186 88.5687 92.3583C85.6377 95.6261 83.5714 97.7528 82.8977 98.4365L82.6514 98.6879L85.2003 101.584Z" fill="#455A64"/>
<path d="M94.1045 101.78C96.7439 101.84 99.69 101.916 102.832 101.996C102.867 101.056 102.903 100.131 102.938 99.2459C103.038 96.8629 103.129 94.7212 103.204 92.8107L95.2256 92.6046C94.8888 95.2491 94.5017 98.3812 94.1045 101.78Z" fill="#455A64"/>
<path d="M113.274 143.774H113.013C112.978 147.158 112.952 150.446 112.942 153.618H113.194C113.209 150.446 113.234 147.158 113.274 143.774Z" fill="#263238"/>
<path d="M113.822 111.639C113.822 112.167 113.782 112.694 113.762 113.232H113.993C113.993 112.669 114.028 112.121 114.048 111.573L113.822 111.639Z" fill="#263238"/>
<path d="M113.751 113.489C113.636 116.596 113.53 119.889 113.43 123.323H113.681C113.777 119.884 113.877 116.591 113.983 113.484L113.751 113.489Z" fill="#263238"/>
<path d="M113.425 123.579C113.335 126.746 113.249 130.034 113.179 133.418H113.44C113.511 130.033 113.589 126.753 113.676 123.579H113.425Z" fill="#263238"/>
<path d="M115.145 86.2297C115.145 85.8828 115.17 85.6114 115.18 85.4203C115.19 85.2293 115.18 85.1438 115.18 85.1438C115.18 85.1438 115.18 85.2343 115.15 85.4203C115.12 85.6063 115.12 85.8778 115.095 86.2297C115.049 86.9537 114.984 87.9994 114.899 89.3468C114.838 90.3523 114.768 91.5337 114.692 92.866H114.863C114.924 91.5337 114.979 90.3523 115.024 89.3468C115.064 88.0044 115.115 86.9537 115.145 86.2297Z" fill="#263238"/>
<path d="M114.214 102.303H114.405C114.43 101.8 114.45 101.297 114.47 100.794C114.606 97.8684 114.727 95.2893 114.827 93.1024H114.676C114.561 95.2893 114.425 97.8684 114.284 100.789C114.264 101.297 114.239 101.8 114.214 102.303Z" fill="#263238"/>
<path d="M113.435 133.679H113.173C113.143 135.335 113.113 137.011 113.083 138.707C113.059 140.332 113.038 141.938 113.018 143.523H113.279C113.299 141.934 113.321 140.327 113.344 138.702C113.375 137.009 113.405 135.335 113.435 133.679Z" fill="#263238"/>
<path d="M113.827 111.413L114.058 111.352C114.169 108.2 114.285 105.254 114.395 102.559H114.204C114.079 105.264 113.953 108.235 113.827 111.413Z" fill="#263238"/>
<path d="M113.189 153.87H112.938C112.938 157.308 112.938 160.607 112.938 163.719H113.169C113.169 160.607 113.174 157.308 113.189 153.87Z" fill="#263238"/>
<path d="M112.947 163.965C112.947 167.484 112.993 170.807 113.033 173.819H113.229C113.204 170.802 113.184 167.509 113.174 163.965H112.947Z" fill="#263238"/>
<path d="M113.465 191.199C113.465 190.47 113.44 189.424 113.42 188.072C113.42 186.981 113.385 185.684 113.365 184.221H113.219C113.254 185.684 113.284 186.986 113.319 188.077C113.36 189.424 113.39 190.475 113.415 191.199C113.415 191.546 113.44 191.817 113.445 192.008C113.445 192.092 113.445 192.157 113.445 192.204V192.008C113.47 191.817 113.47 191.546 113.465 191.199Z" fill="#263238"/>
<path d="M113.234 174.05H113.038C113.038 174.915 113.063 175.764 113.073 176.564C113.119 179.349 113.164 181.818 113.214 183.939H113.365C113.335 181.818 113.3 179.344 113.259 176.554C113.249 175.78 113.239 174.93 113.234 174.05Z" fill="#263238"/>
<path d="M123.872 133.73C123.917 130.809 123.958 127.963 123.993 125.213C123.896 125.052 123.81 124.884 123.736 124.71C123.691 127.616 123.646 130.633 123.601 133.73H123.872Z" fill="#263238"/>
<path d="M123.868 133.931H123.596C123.566 135.992 123.536 138.078 123.506 140.205C123.481 141.422 123.46 142.623 123.445 143.825H123.712C123.712 142.628 123.73 141.422 123.767 140.205C123.802 138.078 123.837 135.992 123.868 133.931Z" fill="#263238"/>
<path d="M123.912 102.534V102.579H124.098V102.529C124.098 100.121 124.042 97.9387 124.017 96.0233C124.017 95.1032 123.987 94.2486 123.967 93.4542C123.953 93.7432 123.916 94.0307 123.856 94.3139C123.856 94.8619 123.856 95.425 123.856 96.0283C123.861 97.9438 123.912 100.146 123.912 102.534Z" fill="#263238"/>
<path d="M123.912 106.898H124.118C124.118 105.465 124.118 104.087 124.093 102.78H123.912C123.912 104.097 123.912 105.47 123.912 106.898Z" fill="#263238"/>
<path d="M123.792 88.0145C123.792 87.7128 123.792 87.4765 123.766 87.2905L123.736 87.3257C123.736 87.5067 123.736 87.733 123.736 88.0195C123.736 88.7385 123.736 89.7842 123.782 91.1215C123.782 91.3578 123.782 91.6242 123.782 91.8605C123.842 92.1054 123.885 92.3539 123.912 92.6046C123.912 92.0767 123.912 91.5639 123.872 91.0963C123.847 89.7791 123.817 88.7384 123.792 88.0145Z" fill="#263238"/>
<path d="M123.706 144.026H123.44C123.384 147.419 123.334 150.732 123.294 153.92H123.56C123.606 150.732 123.656 147.404 123.706 144.026Z" fill="#263238"/>
<path d="M123.525 192.375C123.525 191.656 123.5 190.611 123.48 189.273C123.459 187.936 123.429 186.332 123.419 184.457H123.273C123.273 186.332 123.339 187.951 123.379 189.273C123.419 190.595 123.454 191.656 123.475 192.38C123.475 192.727 123.5 192.994 123.505 193.185C123.51 193.376 123.505 193.461 123.505 193.461C123.505 193.461 123.505 193.366 123.505 193.185C123.505 193.004 123.53 192.722 123.525 192.375Z" fill="#263238"/>
<path d="M123.409 164.211H123.178C123.153 167.761 123.148 171.089 123.178 174.125H123.379C123.369 171.089 123.409 167.761 123.409 164.211Z" fill="#263238"/>
<path d="M123.369 174.306H123.168C123.168 175.538 123.168 176.73 123.168 177.866C123.168 180.239 123.223 182.391 123.248 184.276H123.399C123.399 182.381 123.349 180.254 123.354 177.861C123.364 176.725 123.369 175.54 123.369 174.306Z" fill="#263238"/>
<path d="M123.555 154.116H123.289C123.259 156.454 123.234 158.736 123.214 160.933C123.214 161.984 123.214 163.01 123.188 164.02H123.425C123.425 163.015 123.425 161.979 123.455 160.928C123.485 158.731 123.52 156.454 123.555 154.116Z" fill="#263238"/>
<path d="M101.489 143.463H101.238C101.117 146.851 100.997 150.139 100.876 153.297H101.107C101.228 150.134 101.354 146.851 101.489 143.463Z" fill="#263238"/>
<path d="M102.832 101.996H103.023C103.058 101.056 103.093 100.131 103.124 99.251C103.204 96.868 103.279 94.7263 103.345 92.8108H103.204C103.129 94.7112 103.038 96.863 102.938 99.246C102.902 100.146 102.867 101.056 102.832 101.996Z" fill="#263238"/>
<path d="M102.007 123.272C101.886 126.445 101.756 129.733 101.625 133.106H101.881C102.002 129.733 102.123 126.44 102.243 123.272H102.007Z" fill="#263238"/>
<path d="M102.4 113.182C102.279 116.304 102.148 119.592 102.018 123.021H102.249C102.38 119.592 102.5 116.304 102.611 113.187L102.4 113.182Z" fill="#263238"/>
<path d="M103.41 87.9241C103.355 89.2061 103.289 90.7696 103.214 92.5695H103.35C103.41 90.7747 103.465 89.2111 103.51 87.9291C103.556 86.6471 103.581 85.5611 103.601 84.8472C103.601 84.6914 103.601 84.5506 103.601 84.4249H103.576V84.8523C103.516 85.5662 103.47 86.5717 103.41 87.9241Z" fill="#263238"/>
<path d="M102.822 102.252C102.697 105.495 102.556 109.08 102.41 112.931H102.621C102.762 109.08 102.893 105.495 103.013 102.252H102.822Z" fill="#263238"/>
<path d="M101.871 133.373H101.615C101.575 134.455 101.533 135.543 101.489 136.635C101.409 138.864 101.328 141.055 101.248 143.206H101.494C101.582 141.051 101.667 138.861 101.751 136.635C101.778 135.539 101.818 134.452 101.871 133.373Z" fill="#263238"/>
<path d="M100.314 173.728H100.128V174C99.9969 177.846 99.8862 181.089 99.8008 183.612H99.9164C100.022 181.099 100.153 177.846 100.314 174.005C100.309 173.914 100.309 173.819 100.314 173.728Z" fill="#263238"/>
<path d="M100.5 163.633C100.369 167.208 100.248 170.501 100.138 173.467H100.324C100.439 170.501 100.565 167.208 100.706 163.633H100.5Z" fill="#263238"/>
<path d="M100.872 153.543C100.741 156.997 100.62 160.285 100.51 163.377H100.716C100.837 160.285 100.962 156.997 101.098 153.548L100.872 153.543Z" fill="#263238"/>
<path d="M99.7352 185.327C99.695 186.654 99.6648 187.69 99.6396 188.409C99.6396 188.744 99.6396 189.01 99.6396 189.208C99.6396 189.389 99.6396 189.479 99.6396 189.479C99.6396 189.479 99.6396 189.389 99.6648 189.208C99.6899 189.027 99.6648 188.75 99.71 188.409C99.7402 187.695 99.7905 186.659 99.8508 185.327C99.8508 184.879 99.891 184.382 99.9111 183.869H99.7804C99.7804 184.382 99.7503 184.874 99.7352 185.327Z" fill="#263238"/>
<path d="M95.04 92.3733H95.2562C95.3668 91.4885 95.4774 90.6489 95.573 89.8596C95.7841 88.2558 95.955 86.9034 96.0757 85.8376L95.95 85.8929C95.7942 86.8984 95.5981 88.2407 95.3769 89.8244C95.2562 90.6388 95.1607 91.4784 95.04 92.3733Z" fill="#263238"/>
<path d="M94.0741 102.001H93.8177C93.7038 102.976 93.5882 103.982 93.4708 105.017C93.4206 105.425 93.3753 105.832 93.3301 106.239L93.3804 106.189C93.3804 106.189 93.3804 106.817 93.4256 107.737C93.5262 106.858 93.6267 105.958 93.7273 105.043C93.8429 103.997 93.9635 102.986 94.0741 102.001Z" fill="#263238"/>
<path d="M95.2253 92.6046H95.0091C94.6472 95.2792 94.245 98.4114 93.8428 101.81H94.1042C94.5014 98.3812 94.8885 95.2491 95.2253 92.6046Z" fill="#263238"/>
<path d="M123.958 93.3638L130.564 93.5146L130.489 93.3236L123.953 93.1275C123.958 93.2029 123.963 93.2834 123.958 93.3638Z" fill="#263238"/>
<path d="M95.0097 92.5694H95.2259L103.205 92.8007H103.345L112.395 93.0521L114.682 93.1124H114.833L118.428 93.2029C118.428 93.1174 118.428 93.032 118.453 92.9515L114.843 92.851H114.697L112.4 92.7907L103.35 92.5544H103.215C100.289 92.479 97.5989 92.4136 95.251 92.3633H95.0399C92.4407 92.303 90.2738 92.2577 88.67 92.2326L88.5645 92.3482C90.1682 92.4186 92.3652 92.489 95.0097 92.5694Z" fill="#263238"/>
<path d="M108.086 102.398L114.205 102.554H114.396L117.262 102.629C117.475 102.531 117.697 102.453 117.925 102.398L114.406 102.303H114.215L108.097 102.157L103.024 102.026H102.833C99.6906 101.946 96.7444 101.87 94.105 101.81H93.8436C90.3243 101.724 87.3581 101.659 85.1963 101.619L85.322 101.76C87.4687 101.835 90.3796 101.926 93.8184 102.031H94.0748L102.823 102.283H103.014L108.086 102.398Z" fill="#263238"/>
<path d="M119.171 102.66H119.548C119.354 102.622 119.166 102.556 118.99 102.464C119.056 102.523 119.117 102.589 119.171 102.66Z" fill="#263238"/>
<path d="M123.912 102.579L120.73 102.484C120.592 102.562 120.445 102.623 120.292 102.665C120.223 102.681 120.152 102.693 120.081 102.7L123.912 102.79H124.098C127.517 102.871 130.307 102.931 132.192 102.961V102.846C130.307 102.775 127.522 102.685 124.113 102.579H123.912Z" fill="#263238"/>
<path d="M102.611 113.217L108.91 113.388L113.752 113.514H113.983C117.527 113.604 120.825 113.69 123.726 113.755V113.539L113.993 113.217H113.762L108.915 113.087L102.621 112.921H102.409L94.5264 112.715C94.5616 112.795 94.5968 112.865 94.637 112.941L102.399 113.162L102.611 113.217Z" fill="#263238"/>
<path d="M102.244 123.272L108.076 123.428L113.425 123.569H113.676C117.311 123.664 120.67 123.745 123.596 123.815V123.599L113.676 123.318H113.425L108.081 123.172L102.244 123.021H102.013L97.9906 122.92L97.9453 123.162L101.967 123.272H102.244Z" fill="#263238"/>
<path d="M101.872 133.373L107.246 133.518L113.173 133.674H113.435C117.19 133.77 120.639 133.855 123.595 133.921H123.867L128.196 134.016C128.196 133.961 128.165 133.905 128.145 133.85L123.872 133.719H123.6L113.44 133.423H113.178L107.256 133.262L101.882 133.121H101.625L95.914 132.98C95.8889 133.056 95.8687 133.136 95.8486 133.217L101.615 133.378L101.872 133.373Z" fill="#263238"/>
<path d="M101.49 143.463L106.417 143.594L113.013 143.769H113.274C117.055 143.865 120.509 143.95 123.44 144.016H123.706L129.986 144.147C129.983 144.105 129.983 144.063 129.986 144.021L123.717 143.815H123.45L113.284 143.518H113.023L106.427 143.337L101.5 143.211H101.254L93.6672 143.025C93.6672 143.101 93.642 143.176 93.627 143.252L101.244 143.468L101.49 143.463Z" fill="#263238"/>
<path d="M100.871 153.543H101.097L105.587 153.664L112.937 153.855H113.188C116.974 153.95 120.408 154.031 123.288 154.096H123.555C126.154 154.156 128.286 154.201 129.804 154.222V154.111C128.296 154.056 126.154 153.985 123.555 153.905H123.288C120.403 153.814 116.969 153.714 113.188 153.608H112.937L105.587 153.407L101.102 153.286H100.871L92.5352 153.08C92.5352 153.156 92.5352 153.231 92.5352 153.307L100.871 153.543Z" fill="#263238"/>
<path d="M100.5 163.633H100.706L104.758 163.744L112.948 163.96H113.174C116.96 164.055 120.363 164.136 123.189 164.196H123.41C125.602 164.246 127.432 164.282 128.789 164.302V164.191C127.427 164.141 125.597 164.075 123.4 164.01H123.164L113.149 163.714H112.918L104.763 163.492L100.741 163.387H100.535L92.7422 163.181C92.7422 163.261 92.7422 163.336 92.7673 163.417L100.5 163.633Z" fill="#263238"/>
<path d="M100.127 173.723H100.313L103.923 173.824L113.038 174.06H113.234L123.168 174.291H123.369L127.306 174.372C127.308 174.328 127.308 174.285 127.306 174.241L123.349 174.11H123.148C120.388 174.02 117.004 173.919 113.209 173.814H113.013L103.913 173.562L100.303 173.467H100.117L94.1846 173.316L94.2198 173.562L100.127 173.723Z" fill="#263238"/>
<path d="M99.7802 183.864H99.8958L104.28 183.984L113.219 184.216H113.354C117.12 184.311 120.499 184.392 123.264 184.452H123.409L125.42 184.497C125.42 184.442 125.42 184.392 125.456 184.336L123.394 184.271H123.244L113.339 183.974H113.189L104.305 183.728L99.926 183.612H99.7802L95.6426 183.507L95.6727 183.758L99.7802 183.864Z" fill="#263238"/>
<path d="M105.351 84.4752L109.609 84.5053C111.273 84.5053 112.776 84.5053 113.867 84.4551C114.415 84.4551 114.873 84.4148 115.159 84.3947C115.318 84.3953 115.475 84.3733 115.627 84.3294C115.522 84.3006 115.413 84.2904 115.305 84.2992V84.3243L105.562 84.2841H105.346C104.798 84.2841 104.34 84.3243 104.054 84.3495C103.894 84.3477 103.735 84.368 103.581 84.4098H103.606C103.727 84.4551 104.365 84.4651 105.351 84.4752Z" fill="#263238"/>
<path d="M111.308 111.543C110.216 111.393 109.174 110.988 108.267 110.362C107.568 109.884 107.211 109.482 107.176 109.517C107.232 109.629 107.307 109.731 107.397 109.819C107.628 110.073 107.882 110.305 108.156 110.513C108.951 111.122 109.876 111.54 110.858 111.736C111.84 111.931 112.855 111.898 113.822 111.639L114.048 111.578C114.255 111.513 114.446 111.448 114.616 111.377C114.936 111.249 115.242 111.09 115.531 110.905C115.733 110.774 115.833 110.683 115.823 110.668C115.813 110.653 115.35 110.925 114.551 111.201C114.4 111.257 114.234 111.307 114.048 111.352L113.817 111.412C112.995 111.606 112.146 111.65 111.308 111.543Z" fill="#263238"/>
<path d="M132.319 107.732C132.319 107.657 129.302 107.35 125.612 107.039L124.104 106.913H123.898C121.022 106.687 118.87 106.561 118.87 106.621C118.87 106.682 120.962 106.908 123.817 107.159L125.577 107.315C128.513 107.561 131.006 107.732 131.921 107.757C132.054 107.767 132.188 107.759 132.319 107.732Z" fill="#263238"/>
<path d="M115.461 81.3179C115.763 82.4591 117.009 83.4395 118.809 83.2283C118.572 83.7026 118.413 84.2118 118.337 84.7366C118.222 85.5719 118.309 86.4227 118.592 87.2172C118.874 88.0117 119.344 88.7265 119.961 89.3015C119.123 90.359 118.601 91.6309 118.452 92.9716C118.452 93.052 118.452 93.1375 118.427 93.223C118.308 94.6599 118.642 96.098 119.382 97.3355C118.603 98.3058 117.789 99.3464 117.779 100.553C117.793 101.132 118.033 101.682 118.447 102.086C118.594 102.161 118.729 102.256 118.849 102.368L118.995 102.494C119.171 102.586 119.359 102.652 119.553 102.69C119.72 102.716 119.89 102.716 120.056 102.69C120.127 102.683 120.198 102.671 120.267 102.655C120.42 102.613 120.567 102.552 120.705 102.474C121.152 102.204 121.514 101.813 121.75 101.347C122.083 100.736 122.277 100.058 122.317 99.3628C122.358 98.6676 122.245 97.9719 121.987 97.3254C122.93 96.5614 123.581 95.4963 123.832 94.3089C123.891 94.0257 123.928 93.7382 123.942 93.4492C123.945 93.4174 123.945 93.3855 123.942 93.3537C123.942 93.2732 123.942 93.1928 123.942 93.1174C123.942 92.9465 123.942 92.7805 123.912 92.6146C123.887 92.359 123.845 92.1054 123.786 91.8555C123.544 90.8566 123.008 89.9531 122.248 89.2613C122.772 88.7962 123.192 88.2257 123.48 87.5871C123.209 87.8599 122.888 88.0784 122.535 88.2307C122.258 88.3508 121.961 88.4206 121.66 88.4368C121.578 88.445 121.495 88.445 121.413 88.4368C121.358 88.4368 121.328 88.4368 121.328 88.4368C121.328 88.4368 121.358 88.4368 121.413 88.4066C121.469 88.3765 121.544 88.4066 121.645 88.3614C122.347 88.2265 122.982 87.8557 123.445 87.3106C123.562 87.1708 123.665 87.0192 123.751 86.8582C123.781 86.7476 123.817 86.6369 123.837 86.5213C123.98 85.8248 123.98 85.1063 123.837 84.4098C123.669 84.0325 123.43 83.6911 123.133 83.4043C122.831 83.152 122.504 82.9313 122.158 82.7457C122.158 82.7457 122.188 82.7457 122.243 82.7457C122.324 82.759 122.403 82.7809 122.479 82.811C122.765 82.9127 123.029 83.066 123.259 83.2635C123.39 83.3744 123.512 83.4972 123.621 83.6305C123.371 82.9344 122.965 82.3048 122.434 81.7904C122.97 80.5483 123.178 79.1898 123.04 77.8442C122.902 76.4986 122.422 75.2108 121.645 74.1034C120.896 77.3361 119.136 80.433 115.461 81.3179ZM121.227 89.4171C121.227 89.4875 120.941 89.4775 120.624 89.5076C120.307 89.5378 120.041 89.578 120.016 89.5076C119.991 89.4373 120.237 89.2663 120.604 89.2412C120.971 89.216 121.248 89.3468 121.227 89.4171ZM120.312 97.3706C119.81 97.2902 119.352 97.2852 119.342 97.2098C119.655 97.057 120.011 97.0213 120.348 97.1092C120.911 97.1947 121.313 97.431 121.283 97.4963C121.253 97.5617 120.835 97.4461 120.312 97.3706ZM120.026 82.1172C120.359 81.9763 120.73 81.955 121.077 82.0569C121.077 82.1323 120.629 82.2127 120.096 82.3686C119.563 82.5244 119.141 82.6954 119.091 82.63C119.041 82.5647 119.458 82.2781 120.026 82.1172Z" fill="#263238"/>
<path d="M107.589 60.4839C107.776 61.2806 108.074 62.0471 108.473 62.7614C108.706 63.1831 108.975 63.5836 109.278 63.9579C109.599 64.3626 109.958 64.7363 110.349 65.074C110.745 65.4048 111.169 65.7008 111.616 65.9589C112.035 66.197 112.474 66.3988 112.928 66.5622C113.697 66.8394 114.5 67.0086 115.316 67.0649H115.537V65.3757C115.537 65.3757 108.755 64.7824 107.327 58.5483C107.327 58.6238 107.327 58.7143 107.327 58.8198C107.363 59.3814 107.451 59.9384 107.589 60.4839Z" fill="#B78876"/>
<path d="M115.311 84.2992L115.426 81.328H115.391L115.492 71.1774V71.1523C115.446 70.6633 115.457 70.1705 115.527 69.6843L115.552 67.256H115.326C113.441 67.1726 111.637 66.4652 110.198 65.245C109.797 64.8954 109.428 64.5101 109.097 64.0937C108.788 63.7052 108.516 63.2896 108.282 62.8519C107.88 62.1152 107.592 61.322 107.428 60.499C107.311 59.9472 107.259 59.3837 107.272 58.8199C107.273 58.6669 107.284 58.5142 107.302 58.3624C107.304 58.349 107.304 58.3355 107.302 58.3221C107.302 58.3221 107.302 58.3221 107.302 58.297L107.262 58.3372C106.865 59.3427 106.171 61.4593 106.679 63.1636L100.515 64.8679L99.8311 65.5265C99.8311 68.4425 99.8763 71.7405 100.022 73.7817C100.324 78.1104 104.587 78.5276 104.587 78.5276C106.602 78.4162 108.54 77.7171 110.163 76.5166C110.163 76.5166 108.926 79.7141 104.693 79.5784L104.587 78.5126C104.587 78.5126 104.934 83.0876 104.899 84.2389H105.588L115.331 84.2791L115.311 84.2992ZM101.319 67.3012C101.173 67.3012 101.032 67.243 100.928 67.1393C100.824 67.0356 100.766 66.8949 100.766 66.7482C100.766 66.6016 100.824 66.4609 100.928 66.3572C101.032 66.2535 101.173 66.1952 101.319 66.1952C101.466 66.1952 101.607 66.2535 101.71 66.3572C101.814 66.4609 101.872 66.6016 101.872 66.7482C101.872 66.8949 101.814 67.0356 101.71 67.1393C101.607 67.243 101.466 67.3012 101.319 67.3012ZM102.375 65.9991C102.315 66.0796 101.872 65.788 101.294 65.8332C100.716 65.8785 100.314 66.2254 100.243 66.155C100.173 66.0846 100.243 65.984 100.439 65.8232C100.672 65.6075 100.972 65.478 101.289 65.4562C101.596 65.4307 101.902 65.5086 102.159 65.6774C102.33 65.8332 102.405 65.9589 102.375 65.9991ZM103.436 71.1976C103.38 71.1838 103.328 71.157 103.284 71.1195C103.241 71.0819 103.206 71.0346 103.184 70.9814C103.131 70.7721 103.148 70.551 103.235 70.3529C103.35 69.9558 103.471 69.5385 103.602 69.1011C103.884 68.023 104.247 66.9676 104.688 65.9438C104.489 67.0431 104.207 68.1255 103.843 69.1815C103.707 69.6139 103.577 70.0261 103.456 70.4233C103.378 70.5787 103.35 70.7542 103.375 70.9261C103.406 71.0316 103.546 71.0518 103.697 71.0618C104.018 71.0582 104.337 71.0971 104.647 71.1774C104.334 71.2434 104.012 71.2654 103.692 71.2428C103.605 71.2395 103.519 71.2243 103.436 71.1976ZM105.708 73.2639C105.372 73.4094 104.996 73.4349 104.644 73.336C104.291 73.2372 103.984 73.0199 103.773 72.7209C104.959 72.7209 107.161 71.2931 106.578 71.7154C106.578 71.7003 106.945 72.7108 105.708 73.2639ZM107.583 67.2309C107.437 67.2309 107.296 67.1726 107.192 67.0689C107.089 66.9652 107.03 66.8245 107.03 66.6778C107.03 66.5312 107.089 66.3905 107.192 66.2868C107.296 66.1831 107.437 66.1248 107.583 66.1248C107.73 66.1248 107.871 66.1831 107.974 66.2868C108.078 66.3905 108.136 66.5312 108.136 66.6778C108.136 66.8245 108.078 66.9652 107.974 67.0689C107.871 67.1726 107.73 67.2309 107.583 67.2309ZM108.83 65.9589C108.77 66.0393 108.328 65.7477 107.749 65.793C107.171 65.8382 106.769 66.1851 106.699 66.1148C106.628 66.0444 106.724 65.9388 106.895 65.7829C107.125 65.5773 107.416 65.4535 107.724 65.431C108.031 65.4097 108.336 65.4892 108.594 65.6573C108.78 65.7628 108.855 65.8935 108.83 65.9589Z" fill="#B78876"/>
<path d="M101.288 66.1952C101.179 66.1942 101.071 66.2259 100.979 66.2863C100.888 66.3467 100.816 66.433 100.774 66.5343C100.731 66.6355 100.72 66.7471 100.741 66.8549C100.762 66.9626 100.815 67.0616 100.892 67.1393C100.97 67.2169 101.069 67.2697 101.177 67.2909C101.285 67.312 101.396 67.3007 101.497 67.2582C101.599 67.2157 101.685 67.144 101.745 67.0523C101.806 66.9606 101.837 66.853 101.836 66.7432C101.836 66.5979 101.779 66.4585 101.676 66.3557C101.573 66.253 101.434 66.1952 101.288 66.1952Z" fill="#263238"/>
<path d="M102.138 65.6975C101.889 65.526 101.591 65.4412 101.289 65.4562C100.981 65.4769 100.69 65.5989 100.459 65.8031C100.283 65.9639 100.233 66.1047 100.263 66.1349C100.293 66.165 100.731 65.8533 101.314 65.8131C101.897 65.7729 102.319 66.0595 102.395 65.979C102.47 65.8986 102.329 65.8332 102.138 65.6975Z" fill="#263238"/>
<path d="M107.573 66.1299C107.463 66.1279 107.355 66.1587 107.262 66.2185C107.17 66.2782 107.098 66.3642 107.054 66.4654C107.011 66.5665 106.999 66.6783 107.02 66.7863C107.04 66.8944 107.093 66.9939 107.17 67.072C107.247 67.1502 107.346 67.2035 107.454 67.2251C107.562 67.2466 107.674 67.2356 107.776 67.1933C107.877 67.1509 107.964 67.0793 108.024 66.9875C108.085 66.8957 108.117 66.7879 108.116 66.6778C108.116 66.5334 108.059 66.3947 107.957 66.2921C107.855 66.1895 107.717 66.1312 107.573 66.1299Z" fill="#263238"/>
<path d="M108.589 65.6322C108.331 65.4641 108.026 65.3846 107.719 65.4059C107.411 65.4284 107.12 65.5522 106.889 65.7578C106.719 65.9137 106.663 66.0545 106.693 66.0897C106.724 66.1248 107.161 65.8081 107.744 65.7679C108.327 65.7277 108.75 66.0142 108.825 65.9338C108.9 65.8534 108.78 65.7629 108.589 65.6322Z" fill="#263238"/>
<path d="M103.697 71.0367C103.546 71.0367 103.405 71.0065 103.375 70.901C103.35 70.7291 103.378 70.5536 103.455 70.3982C103.576 70.001 103.707 69.5888 103.842 69.1564C104.206 68.1004 104.489 67.018 104.687 65.9187C104.247 66.9425 103.884 67.9979 103.601 69.076C103.47 69.5134 103.35 69.9306 103.234 70.3278C103.148 70.5259 103.13 70.747 103.184 70.9563C103.206 71.0095 103.24 71.0568 103.284 71.0943C103.327 71.1319 103.379 71.1587 103.435 71.1724C103.52 71.184 103.606 71.184 103.692 71.1724C104.011 71.195 104.333 71.173 104.647 71.1071C104.334 71.0419 104.015 71.0182 103.697 71.0367Z" fill="#263238"/>
<path d="M103.772 72.7209C103.984 73.0199 104.291 73.2372 104.644 73.3361C104.996 73.4349 105.372 73.4094 105.708 73.2639C106.945 72.7108 106.578 71.7003 106.578 71.7003C107.161 71.2931 104.959 72.7108 103.772 72.7209Z" fill="white"/>
<path d="M110.142 76.5568C108.52 77.7573 106.581 78.4564 104.566 78.5678L104.672 79.6336C108.905 79.7543 110.142 76.5568 110.142 76.5568Z" fill="#A36957"/>
<path d="M106.658 63.1887C106.155 61.4844 106.844 59.3527 107.241 58.3623L107.281 58.3221C107.281 58.3221 107.281 58.3221 107.281 58.3472C107.283 58.3076 107.292 58.2686 107.306 58.2316C107.306 58.2316 107.306 58.2869 107.306 58.3875C107.306 58.488 107.306 58.5031 107.306 58.5735C108.734 64.8076 115.516 65.4008 115.516 65.4008V67.0901C115.994 67.1172 116.473 67.1054 116.949 67.0549C117.145 67.0549 117.296 67.0096 117.401 66.9996C117.507 66.9895 117.562 66.9996 117.562 66.9996C117.515 67.0246 117.464 67.0432 117.412 67.0549C117.264 67.0964 117.115 67.1299 116.964 67.1554C116.485 67.2404 115.998 67.2775 115.511 67.266L115.486 69.6943C115.516 69.5377 115.556 69.3832 115.607 69.2318C115.703 68.9196 115.881 68.6389 116.122 68.4187C116.364 68.1986 116.659 68.0471 116.979 67.9799C117.354 67.9521 117.725 68.0626 118.024 68.2906C118.322 68.5186 118.526 68.8481 118.598 69.2167C118.652 69.5887 118.594 69.9682 118.432 70.3074C118.27 70.6466 118.011 70.9301 117.688 71.1221C117.231 71.3828 116.7 71.4837 116.18 71.4087C116.18 71.4388 116.18 71.4589 116.18 71.4891C116.138 71.7331 116.189 71.9836 116.321 72.193C116.399 72.3182 116.504 72.4245 116.628 72.5046C116.752 72.5846 116.892 72.6363 117.039 72.656C117.185 72.6756 117.334 72.6628 117.475 72.6184C117.616 72.574 117.745 72.4991 117.854 72.3991C118.038 72.2337 118.154 72.0064 118.181 71.7606C118.187 71.522 118.153 71.284 118.08 71.0567C118.08 71.0567 118.362 71.2578 118.367 71.7706C118.362 72.0741 118.237 72.3634 118.02 72.5751C117.889 72.708 117.729 72.8087 117.553 72.8692C117.376 72.9296 117.188 72.9481 117.003 72.9232C116.818 72.8984 116.642 72.8308 116.487 72.7258C116.333 72.6209 116.205 72.4815 116.114 72.3186C116.039 72.1884 115.99 72.0445 115.97 71.8953C115.95 71.746 115.96 71.5944 115.999 71.4489C115.997 71.4272 115.997 71.4053 115.999 71.3835C115.827 71.3523 115.659 71.3052 115.496 71.2428L115.446 71.1875L115.345 81.338H115.38H115.416C119.091 80.4531 120.825 77.3562 121.63 74.1185C121.68 73.9023 121.73 73.6861 121.775 73.4699C121.745 73.5303 121.715 73.6007 121.68 73.661C121.458 74.0964 121.199 74.5118 120.906 74.9028C120.807 75.0554 120.687 75.1927 120.549 75.31C120.508 75.2798 120.991 74.6816 121.514 73.5806C121.683 73.2276 121.83 72.865 121.956 72.4946C122.23 70.6546 122.331 68.793 122.258 66.9342V66.6376C122.076 65.8604 121.806 65.1065 121.454 64.3903C120.911 63.2943 120.423 62.7061 120.448 62.6759C120.585 62.7908 120.705 62.9245 120.805 63.0731C121.105 63.4607 121.373 63.8727 121.604 64.3048C121.842 64.748 122.045 65.2085 122.213 65.6824V65.1796C122.213 65.1494 122.213 65.1092 122.213 65.0388C122.15 64.4495 122.056 63.8638 121.931 63.2842C119.533 54.2699 111.776 52.6662 110.247 52.6812C108.603 52.6812 105.723 51.8014 101.58 56.3111C97.4373 60.8208 99.7801 65.5617 99.7801 65.5617L100.464 64.9031L106.658 63.1887Z" fill="#263238"/>
<path d="M118.679 102.569C118.592 102.499 118.515 102.416 118.453 102.323C118.275 102.337 118.099 102.364 117.925 102.403C117.249 102.565 116.632 102.913 116.145 103.409C115.502 104.103 115.154 105.021 115.175 105.968L116.085 105.601C115.848 106.082 115.698 106.601 115.642 107.134C115.897 107.13 116.149 107.073 116.381 106.966C116.613 106.86 116.82 106.706 116.99 106.516L116.738 107.692C117.523 107.311 118.169 106.695 118.589 105.931C119.008 105.166 119.18 104.29 119.081 103.424C119.042 103.307 118.995 103.193 118.94 103.082C118.8 102.79 118.674 102.629 118.704 102.579C118.734 102.529 118.83 102.634 118.965 102.795C118.96 102.763 118.952 102.731 118.94 102.7C118.849 102.666 118.761 102.622 118.679 102.569Z" fill="#263238"/>
<path d="M118.382 102.081C118.347 102.107 118.382 102.207 118.462 102.323C118.525 102.416 118.601 102.499 118.688 102.569C118.769 102.635 118.857 102.69 118.95 102.735C119.091 102.8 119.201 102.821 119.221 102.78C119.241 102.74 119.221 102.725 119.181 102.68C119.126 102.613 119.066 102.55 119 102.494L118.854 102.368C118.734 102.256 118.598 102.162 118.452 102.086C118.442 102.08 118.43 102.075 118.418 102.075C118.405 102.074 118.393 102.076 118.382 102.081Z" fill="#BA2D3B"/>
<path d="M120.348 97.1293C120.012 97.0415 119.655 97.0771 119.343 97.2299C119.343 97.3053 119.79 97.3103 120.313 97.3908C120.836 97.4712 121.253 97.5868 121.283 97.5164C121.314 97.4461 120.896 97.1947 120.348 97.1293Z" fill="#BA2D3B"/>
<path d="M120.016 89.5127C120.041 89.5781 120.308 89.5127 120.624 89.5127C120.941 89.5127 121.213 89.5127 121.228 89.4222C121.243 89.3317 120.971 89.2211 120.604 89.2513C120.237 89.2814 119.986 89.4474 120.016 89.5127Z" fill="#BA2D3B"/>
<path d="M120.096 82.3686C120.629 82.2128 121.077 82.1324 121.077 82.0569C120.73 81.955 120.359 81.9763 120.026 82.1173C119.458 82.2782 119.071 82.5697 119.106 82.62C119.141 82.6703 119.563 82.5195 120.096 82.3686Z" fill="#BA2D3B"/>
<path d="M116.985 67.1554C117.136 67.13 117.285 67.0964 117.432 67.0549C117.485 67.0433 117.535 67.0247 117.583 66.9996C117.583 66.9996 117.523 66.9996 117.422 66.9996C117.322 66.9996 117.166 67.0398 116.97 67.0549C116.494 67.1054 116.015 67.1172 115.537 67.0901H115.316C114.5 67.0337 113.697 66.8645 112.928 66.5873C112.474 66.424 112.035 66.2221 111.615 65.984C111.168 65.726 110.745 65.4299 110.348 65.0992C109.957 64.7614 109.599 64.3878 109.278 63.9831C108.975 63.6087 108.706 63.2083 108.473 62.7866C108.074 62.0723 107.776 61.3057 107.588 60.5091C107.46 59.971 107.381 59.4224 107.352 58.8701C107.352 58.7646 107.352 58.6741 107.352 58.5986C107.352 58.5232 107.352 58.4629 107.352 58.4126C107.352 58.3624 107.352 58.2568 107.352 58.2568C107.338 58.2938 107.329 58.3328 107.327 58.3724C107.329 58.3857 107.329 58.3993 107.327 58.4126C107.309 58.5645 107.298 58.7172 107.297 58.8701C107.284 59.434 107.336 59.9974 107.453 60.5493C107.617 61.3722 107.905 62.1655 108.307 62.9022C108.541 63.3399 108.813 63.7555 109.122 64.144C109.453 64.5604 109.822 64.9457 110.223 65.2953C110.63 65.6394 111.07 65.9441 111.535 66.2053C112.704 66.8615 114.011 67.2335 115.351 67.2912H115.577C116.05 67.2914 116.521 67.2459 116.985 67.1554Z" fill="#263238"/>
<path d="M120.855 63.053C120.756 62.9045 120.636 62.7708 120.498 62.6558C120.458 62.686 120.946 63.2742 121.504 64.3702C121.856 65.0864 122.126 65.8403 122.308 66.6175C122.496 67.3829 122.596 68.1673 122.605 68.9553C122.607 70.153 122.409 71.3427 122.017 72.4745C121.891 72.8449 121.743 73.2075 121.574 73.5605C121.072 74.6615 120.569 75.2598 120.609 75.2899C120.747 75.1726 120.868 75.0353 120.966 74.8827C121.259 74.4917 121.518 74.0763 121.74 73.6409C121.775 73.5806 121.806 73.5102 121.836 73.4499C122.932 71.2337 123.164 68.6883 122.484 66.3108C122.424 66.0846 122.349 65.8684 122.278 65.6623C122.11 65.1884 121.907 64.7279 121.67 64.2847C121.433 63.852 121.161 63.44 120.855 63.053Z" fill="#263238"/>
<path d="M123.289 83.2585C123.059 83.061 122.795 82.9076 122.51 82.806C122.433 82.7759 122.354 82.754 122.273 82.7407C122.218 82.7407 122.188 82.7407 122.188 82.7407C122.535 82.9263 122.861 83.147 123.163 83.3993C123.46 83.6861 123.699 84.0275 123.867 84.4048V84.4399C124.078 84.9129 124.152 85.4351 124.083 85.9482C124.046 86.1533 123.987 86.3539 123.907 86.5465C123.863 86.6559 123.811 86.7618 123.751 86.8632C123.665 87.0242 123.562 87.1759 123.445 87.3157C122.982 87.8608 122.347 88.2315 121.645 88.3664C121.544 88.3664 121.464 88.3966 121.414 88.4117C121.363 88.4268 121.328 88.4117 121.328 88.4418C121.328 88.472 121.358 88.4418 121.414 88.4418C121.496 88.4501 121.578 88.4501 121.66 88.4418C121.961 88.4257 122.258 88.3559 122.535 88.2357C122.888 88.0834 123.209 87.865 123.48 87.5922C123.531 87.5479 123.58 87.5009 123.626 87.4514C123.661 87.4112 123.691 87.366 123.721 87.3257L123.751 87.2905C123.904 87.094 124.032 86.8796 124.133 86.6521C124.231 86.4305 124.301 86.1974 124.34 85.9583C124.394 85.5418 124.359 85.1186 124.237 84.7165C124.116 84.3145 123.911 83.9427 123.636 83.6255C123.531 83.4929 123.415 83.3701 123.289 83.2585Z" fill="#263238"/>
<path d="M118.704 102.614C118.674 102.645 118.799 102.805 118.94 103.117C118.994 103.228 119.041 103.342 119.081 103.459C119.175 103.733 119.23 104.019 119.247 104.309C119.263 104.724 119.194 105.138 119.046 105.525C118.985 105.676 118.93 105.797 118.89 105.877C118.85 105.958 118.834 106.013 118.85 106.023C118.865 106.033 118.905 106.023 118.975 105.938C119.066 105.836 119.146 105.725 119.212 105.606C119.425 105.204 119.528 104.753 119.508 104.299C119.489 103.844 119.348 103.403 119.101 103.022C119.061 102.961 119.015 102.904 118.965 102.851C118.829 102.66 118.719 102.599 118.704 102.614Z" fill="#263238"/>
<path d="M116.04 71.3835C116.19 70.9461 116.477 70.8104 116.482 70.8355C116.374 71.0171 116.285 71.2092 116.216 71.4087C116.736 71.4837 117.267 71.3828 117.724 71.1221C118.047 70.9301 118.306 70.6466 118.468 70.3074C118.63 69.9683 118.688 69.5887 118.634 69.2167C118.562 68.8481 118.358 68.5186 118.059 68.2906C117.761 68.0626 117.389 67.9521 117.015 67.9799C116.695 68.0471 116.399 68.1986 116.158 68.4187C115.917 68.6389 115.739 68.9196 115.642 69.2318C115.592 69.3832 115.552 69.5377 115.522 69.6943C115.452 70.1805 115.44 70.6733 115.487 71.1623V71.1875L115.537 71.2428C115.7 71.3052 115.868 71.3523 116.04 71.3835ZM117.045 68.8145C117.156 68.783 117.273 68.7765 117.387 68.7957C117.501 68.8148 117.609 68.859 117.704 68.9251C117.809 69.0196 117.89 69.1377 117.941 69.2696C117.991 69.4016 118.01 69.5437 117.995 69.6842C117.988 69.9537 117.893 70.2135 117.724 70.4233C117.58 70.5964 117.378 70.7109 117.156 70.745C116.774 70.7903 116.588 70.5892 116.623 70.5641C116.658 70.5389 116.834 70.6093 117.126 70.5188C117.296 70.4541 117.441 70.3379 117.542 70.1865C117.643 70.0351 117.694 69.856 117.689 69.6742C117.698 69.5842 117.689 69.4932 117.663 69.4067C117.636 69.3202 117.592 69.2402 117.533 69.1714C117.411 69.0792 117.257 69.0378 117.105 69.0558C116.814 69.091 116.603 69.1765 116.603 69.1262C116.603 69.0759 116.673 68.9251 117.02 68.8145H117.045Z" fill="#B78876"/>
<path d="M117.06 69.0407C117.212 69.0227 117.365 69.0641 117.487 69.1564C117.546 69.2251 117.59 69.3052 117.617 69.3916C117.644 69.4781 117.653 69.5691 117.643 69.6591C117.649 69.841 117.598 70.0201 117.497 70.1715C117.396 70.3229 117.25 70.439 117.08 70.5037C116.809 70.5942 116.618 70.5037 116.577 70.549C116.537 70.5942 116.728 70.7752 117.11 70.73C117.333 70.6958 117.535 70.5813 117.678 70.4082C117.848 70.1984 117.943 69.9387 117.95 69.6692C117.965 69.5286 117.946 69.3865 117.895 69.2546C117.845 69.1226 117.763 69.0045 117.658 68.91C117.564 68.8439 117.455 68.7997 117.341 68.7806C117.228 68.7615 117.111 68.7679 117 68.7994C116.653 68.91 116.497 69.0609 116.527 69.0961C116.557 69.1312 116.768 69.0759 117.06 69.0407Z" fill="#A36957"/>
<path d="M116.04 71.3836C116.038 71.4053 116.038 71.4272 116.04 71.4489C116.001 71.5944 115.991 71.7461 116.011 71.8953C116.031 72.0445 116.08 72.1884 116.155 72.3187C116.246 72.4815 116.374 72.6209 116.528 72.7259C116.682 72.8308 116.859 72.8984 117.044 72.9233C117.229 72.9482 117.417 72.9296 117.593 72.8692C117.77 72.8088 117.93 72.7081 118.061 72.5751C118.278 72.3635 118.403 72.0742 118.408 71.7707C118.408 71.2679 118.131 71.0316 118.121 71.0568C118.194 71.2841 118.228 71.522 118.222 71.7606C118.195 72.0064 118.079 72.2337 117.895 72.3991C117.786 72.4992 117.657 72.5741 117.516 72.6185C117.375 72.6629 117.226 72.6757 117.08 72.656C116.933 72.6363 116.793 72.5846 116.669 72.5046C116.545 72.4246 116.44 72.3182 116.361 72.193C116.23 71.9837 116.179 71.7331 116.221 71.4891C116.221 71.459 116.221 71.4389 116.221 71.4087C116.29 71.2092 116.379 71.0172 116.487 70.8356C116.487 70.8356 116.19 70.9462 116.04 71.3836Z" fill="#BA2D3B"/>
<path d="M105.13 191.505C106.588 191.661 108.147 191.837 109.796 192.008C113.561 192.446 116.965 192.878 119.428 193.205L120.338 193.32L122.349 193.582L123.144 193.672C123.237 193.686 123.332 193.686 123.425 193.672C123.337 193.642 123.246 193.62 123.154 193.607L122.364 193.466C121.862 193.376 121.173 193.265 120.353 193.139L119.464 193.004L119.087 192.948C117.513 192.717 115.597 192.446 113.461 192.174C112.304 192.028 111.098 191.878 109.846 191.737C106.075 191.299 102.657 190.978 100.178 190.777C98.9363 190.676 97.9358 190.606 97.242 190.565H97.0611L96.4427 190.535C96.3491 190.525 96.2547 190.525 96.1611 190.535C96.2509 190.563 96.3438 190.58 96.4376 190.585L97.232 190.676H97.3677L100.163 190.958C101.551 191.144 103.25 191.304 105.13 191.505Z" fill="#263238"/>
<path d="M90.3138 83.7713C90.3138 83.7713 83.4714 82.4591 73.6376 73.5303C63.8039 64.6014 58.9674 52.5053 57.796 52.5958C56.6246 52.6863 51.4413 50.4591 42.3164 71.8963C33.1914 93.3336 37.1581 98.1399 39.0937 98.0393C41.0293 97.9388 54.0706 93.9117 62.3057 94.6106C70.5407 95.3094 81.2141 99.2912 81.2141 99.2912L90.3138 83.7713Z" fill="#BA2D3B"/>
<path opacity="0.4" d="M90.3138 83.7713C90.3138 83.7713 83.4714 82.4591 73.6376 73.5303C63.8039 64.6014 58.9674 52.5053 57.796 52.5958C56.6246 52.6863 51.4413 50.4591 42.3164 71.8963C33.1914 93.3336 37.1581 98.1399 39.0937 98.0393C41.0293 97.9388 54.0706 93.9117 62.3057 94.6106C70.5407 95.3094 81.2141 99.2912 81.2141 99.2912L90.3138 83.7713Z" fill="white"/>
<path d="M105.09 95.8724L102.893 100.347L101.887 102.358C101.239 103.683 100.107 104.709 98.7236 105.222C97.3406 105.736 95.813 105.699 94.4568 105.118L79.7363 100.458L87.6747 80.8503L102.461 88.1955C103.822 88.8705 104.862 90.0556 105.354 91.4932C105.847 92.9307 105.752 94.5045 105.09 95.8724Z" fill="#BA2D3B"/>
<path d="M96.8846 103.162L92.4956 112.398L90.1528 111.82L75.3368 124.59L70.8623 116.41C70.8623 116.41 79.7157 112.292 81.2843 109.05C82.8529 105.807 80.9123 105.133 80.9123 105.133L84.9996 100.221L96.8846 103.162Z" fill="#BA2D3B"/>
<path d="M43.1107 73.2337C38.2592 84.8472 36.394 95.1234 38.948 96.1892C41.5019 97.2551 47.4947 88.7083 52.3513 77.0848C57.2078 65.4612 59.058 55.2101 56.5442 54.1443C54.0305 53.0785 47.9673 61.6252 43.1107 73.2337Z" fill="#263238"/>
<path d="M106.518 102.207L102.536 101.081L104.849 96.3602L107.86 98.1198L106.518 102.207Z" fill="#455A64"/>
<path d="M83.5967 101.916L94.4058 108.386L95.6576 105.752L83.5967 101.916Z" fill="#263238"/>
<path d="M104.849 96.3602L102.536 101.081L103.351 101.312L105.206 96.5713L104.849 96.3602Z" fill="#263238"/>
<path d="M80.3494 98.9846C80.3494 98.9846 77.5591 98.0495 77.6496 98.0746C77.7401 98.0997 86.2969 82.3033 86.2969 82.3033L86.9756 82.61L80.6259 98.4617" fill="#263238"/>
<path d="M102.153 97.5115C102.098 97.6422 100.107 96.9333 97.7038 95.9228C95.3007 94.9123 93.3902 93.9973 93.4455 93.8716C93.5008 93.7459 95.4917 94.4497 97.8999 95.4552C100.308 96.4607 102.208 97.3808 102.153 97.5115Z" fill="#263238"/>
<path d="M103.3 94.7112C103.244 94.8368 101.439 94.133 99.2775 93.1426C97.1157 92.1522 95.3963 91.2422 95.4566 91.1316C95.5169 91.021 97.3218 91.7097 99.4786 92.7002C101.635 93.6906 103.35 94.5804 103.3 94.7112Z" fill="#263238"/>
<path d="M100.705 100.458C100.705 100.528 100.202 100.432 99.4583 100.221C99.0813 100.116 98.6338 99.9851 98.1361 99.8292C97.6384 99.6733 97.1306 99.422 96.5826 99.1957C94.3956 98.2506 92.7164 97.3155 92.7667 97.1847C92.817 97.054 94.6118 97.778 96.7887 98.693C97.3317 98.9192 97.8395 99.1957 98.297 99.3566C98.7545 99.5175 99.2019 99.6985 99.5589 99.8594C100.283 100.176 100.72 100.392 100.705 100.458Z" fill="#263238"/>
<path d="M53.5978 70.3881C53.5978 70.3881 47.5648 66.8688 44.5735 74.9681C41.5821 83.0674 47.8212 84.1785 47.8212 84.1785C50.3859 79.8764 52.3306 75.2338 53.5978 70.3881Z" fill="#BA2D3B"/>
<path d="M59.6106 60.6901C59.5906 61.1971 59.5284 61.7016 59.4245 62.1983C59.2637 63.2038 59.0374 64.6015 58.7106 66.351C58.4844 67.2158 58.238 68.1609 57.9716 69.1714C57.8409 69.6742 57.7001 70.2021 57.5593 70.74C57.489 71.0115 57.4135 71.283 57.3381 71.5595C57.2627 71.836 57.1521 72.1075 57.0566 72.384C56.6644 73.4951 56.2472 74.6615 55.8198 75.8681C55.7142 76.1697 55.6036 76.4764 55.493 76.7831C55.3824 77.0898 55.2316 77.3813 55.1009 77.688L54.2764 79.5331L53.4468 81.3681C53.3061 81.6698 53.1854 81.9765 53.0245 82.263L52.557 83.1127L50.7622 86.3454C50.6164 86.6018 50.4856 86.8481 50.3348 87.1045L49.8622 87.8084L48.9573 89.1608L47.3284 91.5991C46.2374 92.9967 45.3174 94.1129 44.694 94.877C44.389 95.2878 44.0529 95.6743 43.6885 96.0334C43.9379 95.5799 44.2291 95.1507 44.5582 94.7513C45.1615 93.9369 46.0162 92.7856 47.072 91.3779L48.6355 88.9396L49.5053 87.5771L49.9628 86.8733C50.1086 86.6269 50.2393 86.3705 50.3801 86.1141L52.1347 82.8865L52.5972 82.0418C52.7581 81.7603 52.8737 81.4536 53.0145 81.152C53.2809 80.5537 53.5575 79.9454 53.834 79.332C54.1105 78.7187 54.387 78.1053 54.6585 77.507C54.7892 77.2054 54.94 76.9188 55.0456 76.6121C55.1512 76.3055 55.2668 76.0038 55.3774 75.7072C55.8098 74.5106 56.2321 73.3543 56.6343 72.2533C56.7298 71.9818 56.8404 71.7103 56.9259 71.4388L57.1521 70.6294L57.5895 69.0759C57.871 68.0704 58.1375 67.1403 58.3788 66.2857L59.2486 62.1782C59.3263 61.6727 59.4474 61.1748 59.6106 60.6901Z" fill="#263238"/>
<path d="M119.006 106.601C119.006 106.601 113.204 117.345 111.646 117.511C103.039 118.406 93.8181 115.58 90.5854 114.459C90.2586 114.082 89.8816 113.635 89.4643 113.087C89.1077 112.609 88.8325 112.076 88.6498 111.508C88.3972 110.807 88.24 110.074 88.1823 109.331C88.2009 109.189 88.1737 109.046 88.1045 108.921C88.0354 108.795 87.9281 108.696 87.7982 108.636C87.6683 108.577 87.5228 108.56 87.3829 108.589C87.243 108.619 87.1162 108.692 87.0209 108.798C86.6489 109.301 86.5584 111.191 87.4131 113.217C88.2677 115.243 85.2563 113.655 84.1502 113.097C83.0442 112.539 79.535 110.98 79.0926 111.196C78.4491 111.508 78.6502 112.272 79.7713 112.805C80.8924 113.338 84.1351 115.168 83.7933 115.756C83.4514 116.344 77.8759 113.418 77.8759 113.418C77.8759 113.418 76.7799 112.594 76.3677 113.263C75.6588 114.464 81.8426 117.114 82.4359 117.35C82.8481 117.516 82.5213 118.164 82.089 117.968C81.6566 117.772 76.5587 114.922 75.8348 116.138C75.2767 117.073 80.9025 118.371 81.6315 119.557C82.3604 120.744 77.4637 118.129 76.9609 119.054C76.7749 119.396 76.6844 119.678 79.711 120.764C81.9248 121.453 84.1756 122.017 86.4528 122.453V122.483C86.4528 122.483 115.512 136.057 123.154 122.589C128.151 113.796 128.618 112.679 130.388 107.712" fill="#B78876"/>
<path d="M1.43787 124.967H58.0525C58.4343 124.968 58.8 125.121 59.0695 125.391C59.339 125.661 59.4904 126.028 59.4904 126.41V137.882C59.8674 142.754 59.4904 143.96 53.935 144.358V149.536L48.8421 144.443H1.43787C1.05653 144.443 0.690802 144.292 0.42115 144.022C0.151499 143.752 8.78997e-06 143.387 8.78997e-06 143.005V126.415C-0.000652581 126.225 0.0360142 126.037 0.107916 125.862C0.179818 125.687 0.285548 125.527 0.419066 125.393C0.552584 125.258 0.711277 125.151 0.886084 125.078C1.06089 125.005 1.24839 124.967 1.43787 124.967Z" fill="#455A64"/>
<path d="M48.6407 131.06H18.707V132.342H48.6407V131.06Z" fill="#BA2D3B"/>
<path d="M48.6407 133.755H18.707V135.037H48.6407V133.755Z" fill="#BA2D3B"/>
<path d="M33.88 136.651H18.707V137.933H33.88V136.651Z" fill="#BA2D3B"/>
<path d="M16.0629 130.487H7.70215V138.848H16.0629V130.487Z" fill="#BA2D3B"/>
<path d="M200.472 40.3941C200.472 39.7274 200.207 39.088 199.736 38.6166C199.264 38.1451 198.625 37.8803 197.958 37.8803L135.311 38.187C134.644 38.187 134.005 38.4518 133.533 38.9232C133.062 39.3947 132.797 40.034 132.797 40.7007L132.892 60.4638C132.892 60.7961 132.958 61.125 133.086 61.4316C133.214 61.7383 133.401 62.0165 133.638 62.2503C133.874 62.484 134.154 62.6686 134.462 62.7935C134.769 62.9183 135.099 62.9809 135.431 62.9776H136.789L136.829 70.2121L143.898 62.9424L198.059 62.6759C198.725 62.6759 199.365 62.4111 199.836 61.9397C200.308 61.4682 200.573 60.8289 200.573 60.1622L200.472 40.3941Z" fill="#BA2D3B"/>
<path d="M181.488 53.8275C181.448 52.6913 181.488 51.0172 181.488 49.524C181.151 48.66 181.077 47.7158 181.275 46.8099C181.472 45.9039 181.933 45.0765 182.599 44.4311C184.932 41.9978 186.51 42.5307 187.415 42.5408C188.32 42.5509 192.513 43.5463 193.72 48.5286C193.782 48.8493 193.825 49.1732 193.85 49.4989C193.876 49.7452 193.901 50.0016 193.921 50.1524C193.974 51.0454 194.255 51.91 194.736 52.6641C195.217 53.4182 195.883 54.0367 196.671 54.461C197.248 53.1442 197.541 51.7207 197.531 50.2832C197.524 48.4693 197.041 46.6891 196.13 45.1207C195.219 43.5522 193.912 42.2505 192.339 41.3459C190.767 40.4412 188.985 39.9653 187.171 39.9658C185.357 39.9662 183.576 40.4431 182.004 41.3485C180.432 42.254 179.126 43.5564 178.216 45.1253C177.306 46.6942 176.823 48.4747 176.817 50.2885C176.812 52.1024 177.282 53.8859 178.182 55.4608C179.082 57.0356 180.38 58.3465 181.945 59.2623C181.458 57.4947 181.302 55.6518 181.488 53.8275Z" fill="#E0E0E0"/>
<path d="M193.926 50.1575V50.1977H193.871C193.871 52.2087 193.644 59.0109 190.286 60.2527C191.701 59.8057 193.003 59.0606 194.106 58.0676C195.208 57.0746 196.084 55.8567 196.676 54.4962C195.884 54.0693 195.216 53.446 194.734 52.6862C194.252 51.9265 193.974 51.0557 193.926 50.1575Z" fill="#263238"/>
<path d="M181.497 54.0739C181.497 53.9935 181.497 53.913 181.497 53.8276C181.311 55.6535 181.466 57.4981 181.955 59.2673C182.639 59.6757 183.37 60.0014 184.132 60.2376C184.091 58.7947 183.961 56.7184 183.961 56.7184C183.305 56.6358 182.7 56.3258 182.25 55.8426C181.8 55.3593 181.533 54.7334 181.497 54.0739Z" fill="#263238"/>
<path d="M190.171 49.6346C190.171 49.6346 186.34 49.2173 185.702 45.6126C185.47 46.1556 185.058 47.322 185.319 48.2671L181.901 49.1268L181.519 49.4838C181.483 50.992 181.468 52.6511 181.519 53.7873C181.519 53.8728 181.519 53.9532 181.519 54.0337C181.549 54.6961 181.811 55.3267 182.26 55.8149C182.708 56.3031 183.315 56.6177 183.972 56.7033C185.08 56.678 186.157 56.3285 187.069 55.6978C187.069 55.6978 186.35 57.4423 184.017 57.3166L183.972 56.7284C183.972 56.7284 184.103 58.7796 184.143 60.2476C185.149 60.5608 186.197 60.7168 187.25 60.7102C188.138 60.7006 189.022 60.579 189.879 60.3482L190.171 49.6346ZM185.465 50.2379C185.468 50.1798 185.488 50.1238 185.523 50.0769C185.557 50.0301 185.605 49.9944 185.66 49.9744C185.714 49.9544 185.774 49.951 185.83 49.9645C185.887 49.978 185.938 50.0079 185.978 50.0504C186.018 50.0929 186.044 50.1462 186.054 50.2036C186.064 50.261 186.056 50.32 186.033 50.3732C186.009 50.4264 185.97 50.4715 185.921 50.5029C185.872 50.5343 185.815 50.5505 185.757 50.5496C185.717 50.5483 185.678 50.5392 185.642 50.5228C185.606 50.5065 185.573 50.4831 185.546 50.4542C185.519 50.4252 185.498 50.3912 185.484 50.3541C185.47 50.317 185.464 50.2775 185.465 50.2379ZM185.395 49.7352C185.523 49.626 185.684 49.5624 185.852 49.5542C186.021 49.5457 186.189 49.5915 186.33 49.6849C186.436 49.7603 186.476 49.8357 186.456 49.8558C186.436 49.8759 186.184 49.7352 185.862 49.7502C185.541 49.7653 185.319 49.9564 185.284 49.9161C185.249 49.8759 185.294 49.8106 185.395 49.7251V49.7352ZM181.84 49.6899C181.97 49.5801 182.133 49.5164 182.303 49.5089C182.471 49.5001 182.638 49.5479 182.775 49.6447C182.881 49.7201 182.921 49.7905 182.901 49.8106C182.881 49.8307 182.63 49.6899 182.308 49.705C181.986 49.7201 181.765 49.9111 181.73 49.8709C181.695 49.8307 181.73 49.7653 181.84 49.6799V49.6899ZM182.011 50.1927C182.012 50.133 182.031 50.075 182.065 50.026C182.099 49.9769 182.147 49.9391 182.202 49.9171C182.258 49.8952 182.318 49.8903 182.377 49.9029C182.435 49.9155 182.488 49.9451 182.53 49.988C182.571 50.0309 182.599 50.0851 182.61 50.1438C182.62 50.2025 182.613 50.263 182.59 50.3178C182.566 50.3725 182.526 50.419 182.476 50.4513C182.426 50.4836 182.368 50.5003 182.308 50.4993C182.229 50.498 182.153 50.4657 182.098 50.4092C182.042 50.3528 182.011 50.2768 182.011 50.1977V50.1927ZM183.424 52.6712C183.393 52.6648 183.364 52.6503 183.34 52.6291C183.316 52.608 183.298 52.5808 183.288 52.5506C183.261 52.4342 183.273 52.3121 183.324 52.2037C183.389 51.9875 183.464 51.7612 183.54 51.5199C183.709 50.9299 183.922 50.3535 184.178 49.7955C184.054 50.3969 183.886 50.9884 183.675 51.5652C183.595 51.7998 183.52 52.026 183.449 52.2439C183.407 52.3259 183.389 52.4185 183.399 52.5103C183.399 52.5656 183.489 52.5807 183.575 52.5857C183.745 52.59 183.914 52.6171 184.078 52.6662C183.902 52.6866 183.725 52.6866 183.55 52.6662C183.508 52.6748 183.466 52.6782 183.424 52.6762V52.6712ZM184.651 53.8376C184.464 53.9147 184.256 53.9248 184.063 53.8662C183.87 53.8075 183.702 53.6837 183.59 53.5158C184.244 53.5158 185.475 52.7718 185.148 53.0131C185.189 53.1889 185.159 53.3733 185.066 53.5279C184.974 53.6825 184.825 53.7952 184.651 53.8426V53.8376Z" fill="#455A64"/>
<path d="M182.609 50.2027C182.609 50.1431 182.591 50.0847 182.558 50.0351C182.525 49.9855 182.478 49.9469 182.423 49.924C182.368 49.9012 182.307 49.8952 182.249 49.9069C182.19 49.9185 182.136 49.9472 182.094 49.9894C182.052 50.0316 182.023 50.0853 182.012 50.1439C182 50.2024 182.006 50.263 182.029 50.3181C182.052 50.3733 182.09 50.4204 182.14 50.4535C182.19 50.4867 182.248 50.5044 182.308 50.5044C182.388 50.5044 182.464 50.4726 182.521 50.416C182.577 50.3594 182.609 50.2827 182.609 50.2027Z" fill="#263238"/>
<path d="M182.9 49.8005C182.9 49.8005 182.9 49.71 182.774 49.6346C182.636 49.5378 182.47 49.49 182.302 49.4988C182.132 49.5064 181.969 49.57 181.839 49.6798C181.739 49.7653 181.708 49.8407 181.729 49.8608C181.749 49.8809 181.99 49.71 182.307 49.6949C182.623 49.6798 182.87 49.8709 182.9 49.8005Z" fill="#263238"/>
<path d="M186.058 50.248C186.058 50.1693 186.027 50.0939 185.971 50.0382C185.916 49.9826 185.84 49.9514 185.761 49.9514C185.683 49.9514 185.607 49.9826 185.552 50.0382C185.496 50.0939 185.465 50.1693 185.465 50.248C185.465 50.3266 185.496 50.4021 185.552 50.4577C185.607 50.5133 185.683 50.5446 185.761 50.5446C185.84 50.5446 185.916 50.5133 185.971 50.4577C186.027 50.4021 186.058 50.3266 186.058 50.248Z" fill="#263238"/>
<path d="M186.455 49.8709C186.455 49.8709 186.455 49.7754 186.329 49.7C186.188 49.6067 186.02 49.5609 185.851 49.5693C185.683 49.5775 185.522 49.6412 185.394 49.7503C185.293 49.8357 185.263 49.9112 185.283 49.9313C185.303 49.9514 185.54 49.7804 185.861 49.7654C186.183 49.7503 186.424 49.8709 186.455 49.8709Z" fill="#263238"/>
<path d="M184.092 52.6712C183.928 52.6221 183.759 52.5951 183.589 52.5908C183.503 52.5908 183.428 52.5908 183.413 52.5154C183.403 52.4236 183.421 52.3309 183.463 52.2489C183.534 52.0344 183.609 51.8082 183.689 51.5702C183.9 50.9934 184.068 50.4019 184.192 49.8005C183.936 50.3585 183.723 50.935 183.554 51.525C183.478 51.7663 183.403 51.9925 183.338 52.2087C183.287 52.3171 183.275 52.4393 183.302 52.5556C183.312 52.5859 183.33 52.613 183.354 52.6342C183.378 52.6554 183.407 52.6699 183.438 52.6763C183.485 52.6829 183.532 52.6829 183.579 52.6763C183.749 52.6938 183.921 52.6921 184.092 52.6712Z" fill="#263238"/>
<path d="M183.589 53.5209C183.701 53.6888 183.868 53.8126 184.062 53.8713C184.255 53.9299 184.463 53.9198 184.65 53.8427C184.829 53.7965 184.982 53.6811 185.077 53.5218C185.171 53.3625 185.198 53.1723 185.152 52.993C185.474 52.7768 184.242 53.531 183.589 53.5209Z" fill="white"/>
<path d="M187.048 55.7129C186.136 56.3436 185.06 56.6932 183.951 56.7184L183.996 57.3066C186.329 57.4574 187.048 55.7129 187.048 55.7129Z" fill="#263238"/>
<path d="M193.87 50.1877H193.925V50.1475C193.925 49.9765 193.88 49.7402 193.855 49.4939C193.83 49.1682 193.786 48.8443 193.724 48.5236C192.518 43.5262 188.264 42.5459 187.42 42.5358C186.575 42.5258 184.936 41.9929 182.603 44.4262C181.937 45.0715 181.477 45.899 181.279 46.8049C181.082 47.7109 181.156 48.655 181.492 49.519L181.874 49.1621L185.293 48.3024C185.032 47.3572 185.444 46.1908 185.675 45.6478C186.314 49.2325 190.145 49.6698 190.145 49.6698L189.833 60.3734C189.974 60.3332 190.119 60.303 190.26 60.2577C193.644 59.0009 193.89 52.1735 193.87 50.1877Z" fill="#263238"/>
<path d="M173.024 45.3104L140.467 45.4695L140.476 47.2643L173.033 47.1052L173.024 45.3104Z" fill="#263238"/>
<path d="M173.052 49.9255L140.494 50.0846L140.503 51.8794L173.061 51.7203L173.052 49.9255Z" fill="#263238"/>
<path d="M156.65 54.4901L140.512 54.569L140.52 56.3638L156.659 56.2849L156.65 54.4901Z" fill="#263238"/>
</svg>
