<?xml version="1.0" standalone="no"?>
<!DOCTYPE svg PUBLIC "-//W3C//DTD SVG 20010904//EN"
 "http://www.w3.org/TR/2001/REC-SVG-20010904/DTD/svg10.dtd">
<svg version="1.0" xmlns="http://www.w3.org/2000/svg"
 width="224.000000pt" height="171.000000pt" viewBox="0 0 224.000000 171.000000"
 preserveAspectRatio="xMidYMid meet">

<g transform="translate(0.000000,171.000000) scale(0.100000,-0.100000)"
fill="#000000" stroke="none">
<path d="M1943 1613 c-18 -7 -16 -68 2 -83 19 -16 153 -14 172 2 16 13 17 60
1 76 -12 12 -149 16 -175 5z"/>
<path d="M725 1547 c-57 -33 -65 -54 -65 -194 0 -116 1 -123 25 -150 l25 -28
-2 147 c-1 131 1 150 17 168 27 30 80 42 179 38 91 -3 96 -5 110 -50 5 -16 21
-18 160 -18 l155 0 9 33 8 32 89 3 c130 4 175 -21 175 -100 l0 -38 -69 0 c-47
0 -72 -4 -80 -14 -8 -9 -11 -45 -9 -98 3 -75 5 -84 25 -93 12 -5 23 -20 25
-34 l3 -24 31 26 c18 15 41 27 51 27 19 0 20 -11 26 -257 4 -141 7 -381 7
-533 l0 -277 -26 -24 -26 -24 -376 -5 c-207 -3 -391 -2 -408 3 -67 16 -65 3
-72 448 -6 373 -8 404 -24 407 -17 3 -18 -21 -18 -403 0 -463 -1 -458 75 -495
42 -20 55 -21 432 -18 349 3 391 5 420 21 71 38 68 10 64 614 l-3 543 253 0
c140 0 260 4 267 8 9 6 12 34 10 103 l-3 94 -267 3 -268 2 0 54 c0 58 -25 97
-75 116 -16 6 -183 10 -418 10 -388 0 -392 -1 -432 -23z m1413 -212 c32 -38
28 -101 -5 -74 -7 6 -13 18 -13 27 0 28 -41 62 -75 62 -45 0 -63 -25 -60 -82
2 -54 -13 -63 -39 -23 -22 33 -20 59 7 90 42 50 142 50 185 0z"/>
<path d="M1750 1521 c0 -6 -9 -11 -19 -11 -17 0 -18 -3 -8 -23 15 -32 59 -32
74 -1 8 18 7 24 -6 28 -9 3 -22 9 -28 12 -7 3 -13 1 -13 -5z"/>
<path d="M1140 1253 c-45 -23 -62 -57 -47 -90 10 -22 12 -23 23 -9 6 9 21 16
33 16 13 0 21 6 21 17 0 13 4 11 21 -8 14 -16 29 -23 46 -21 17 3 23 0 18 -8
-4 -7 1 -14 14 -17 24 -6 28 -23 6 -23 -11 0 -15 -12 -15 -45 0 -38 4 -47 22
-54 15 -5 -23 -10 -107 -13 -99 -4 -138 -2 -164 9 -49 21 -71 11 -116 -54 -50
-71 -50 -73 -30 -73 9 0 13 -4 10 -10 -3 -5 1 -10 9 -10 18 0 21 -15 6 -25 -5
-3 -7 -12 -3 -20 3 -9 0 -21 -6 -29 -9 -11 -5 -16 20 -25 49 -17 61 -14 54 12
-5 18 -4 19 5 5 7 -12 17 -14 36 -9 21 5 32 1 55 -21 25 -26 34 -28 103 -28
l75 0 37 45 38 44 74 -6 74 -6 -7 34 c-18 91 -27 111 -54 127 -38 21 -51 55
-54 144 -3 83 -19 118 -65 142 -49 25 -94 28 -132 9z"/>
<path d="M561 1222 c-70 -74 -151 -230 -151 -292 0 -28 25 -36 54 -17 34 22
120 155 146 223 22 61 23 115 2 122 -7 2 -30 -14 -51 -36z"/>
<path d="M641 1170 c-2 -29 -63 -146 -108 -205 l-45 -60 41 45 c46 51 126 201
118 222 -4 10 -6 10 -6 -2z"/>
<path d="M1170 1149 c0 -5 5 -7 10 -4 6 3 10 8 10 11 0 2 -4 4 -10 4 -5 0 -10
-5 -10 -11z"/>
<path d="M1130 1130 c-6 -11 -7 -20 -2 -20 6 0 12 9 15 20 3 11 3 20 1 20 -2
0 -8 -9 -14 -20z"/>
<path d="M2059 1070 c-11 -7 -10 -10 4 -16 10 -4 23 -2 28 3 14 14 -13 24 -32
13z"/>
<path d="M1158 1043 c7 -3 16 -2 19 1 4 3 -2 6 -13 5 -11 0 -14 -3 -6 -6z"/>
<path d="M850 761 c0 -5 12 -14 28 -19 21 -8 23 -11 7 -11 -17 -1 -18 -3 -5
-12 12 -9 12 -10 -3 -5 -10 3 -24 6 -30 7 -7 0 -3 4 8 8 20 8 20 8 -1 15 -12
3 -33 2 -48 -4 -22 -8 -25 -13 -17 -28 21 -39 39 -46 68 -27 16 10 36 26 46
36 16 18 16 19 -12 34 -35 17 -41 18 -41 6z"/>
<path d="M296 733 c-11 -12 -6 -30 9 -30 8 0 15 6 15 13 0 15 -15 26 -24 17z"/>
<path d="M1316 656 c-25 -19 -41 -21 -140 -20 l-112 1 -22 -76 c-34 -122 -36
-170 -9 -319 14 -73 26 -134 28 -136 4 -4 77 -12 206 -22 l82 -6 11 42 c38
141 53 233 54 330 1 95 -1 109 -24 149 -49 86 -42 81 -74 57z"/>
<path d="M0 575 l0 -75 268 0 c256 0 270 -1 287 -20 23 -25 35 -25 35 -1 0 14
8 21 28 23 26 3 27 5 30 76 l3 72 -326 0 -325 0 0 -75z"/>
</g>
</svg>
