<svg width="219" height="166" viewBox="0 0 219 166" fill="none" xmlns="http://www.w3.org/2000/svg">
<path d="M32.0706 153.158C74.8346 169.752 144.165 169.757 186.929 153.158C229.693 136.559 229.687 109.658 186.929 93.064C144.172 76.4704 74.8346 76.4704 32.0706 93.064C-10.6933 109.658 -10.6871 136.564 32.0706 153.158Z" fill="#F5F5F5"/>
<path d="M186.78 140.895C194.656 140.895 201.041 138.417 201.041 135.362C201.041 132.306 194.656 129.829 186.78 129.829C178.904 129.829 172.52 132.306 172.52 135.362C172.52 138.417 178.904 140.895 186.78 140.895Z" fill="#EBEBEB"/>
<path d="M28.8262 136.155L33.8715 133.785C36.6884 131.914 38.8324 129.457 40.0772 126.676C41.6349 123.179 41.4177 120.521 40.3006 119.187C38.9292 117.545 35.3733 117.833 35.2305 121.289C34.9327 128.101 32.4938 132.825 28.8262 136.155Z" fill="#BA2D3B"/>
<path opacity="0.2" d="M28.8262 136.155L33.8715 133.785C36.6884 131.914 38.8324 129.457 40.0772 126.676C41.6349 123.179 41.4177 120.521 40.3006 119.187C38.9292 117.545 35.3733 117.833 35.2305 121.289C34.9327 128.101 32.4938 132.825 28.8262 136.155Z" fill="black"/>
<path d="M28.826 136.408C28.7603 136.407 28.6966 136.389 28.644 136.357C28.5913 136.325 28.5526 136.281 28.5333 136.229C28.5139 136.178 28.515 136.123 28.5364 136.073C28.5578 136.022 28.5984 135.978 28.6523 135.948C40.3191 129.379 38.0602 120.218 38.0354 120.127C38.0268 120.094 38.0264 120.06 38.0341 120.027C38.0417 119.993 38.0574 119.962 38.0802 119.933C38.1029 119.905 38.1324 119.88 38.1667 119.861C38.2011 119.842 38.2398 119.829 38.2805 119.822C38.3213 119.815 38.3633 119.814 38.4042 119.821C38.4451 119.827 38.4841 119.84 38.519 119.858C38.5539 119.877 38.5839 119.901 38.6074 119.929C38.6309 119.957 38.6474 119.988 38.656 120.021C38.656 120.117 41.039 129.591 29.0246 136.362C28.9663 136.395 28.8965 136.411 28.826 136.408Z" fill="white"/>
<path d="M18.7168 140.91C18.7168 140.91 16.9605 139.748 17.3825 138.171C17.8045 136.595 18.9402 135.463 16.9978 133.432C15.0554 131.4 14.5155 128.692 16.8364 127.227C18.6051 126.09 21.3666 127.697 22.3596 124.7C23.0918 122.507 22.8436 117.651 26.2754 116.034C29.7072 114.418 31.8606 116.853 31.3207 120.148C30.849 123.093 30.1788 125.928 30.7001 126.716C31.7054 128.232 33.4244 128.025 33.3438 130.794C33.2755 133.371 30.2781 135.503 30.2781 135.503L18.7168 140.91Z" fill="#BA2D3B"/>
<path d="M24.4825 138.439C24.4066 138.438 24.3336 138.415 24.2766 138.375C24.2196 138.334 24.1826 138.278 24.1722 138.217C23.2848 132.229 25.4133 121.891 27.151 118.819C27.1656 118.784 27.189 118.753 27.2197 118.727C27.2503 118.701 27.2875 118.681 27.3286 118.667C27.3698 118.654 27.414 118.648 27.4583 118.65C27.5026 118.651 27.5459 118.661 27.5854 118.677C27.6224 118.691 27.6557 118.71 27.6834 118.734C27.711 118.759 27.7324 118.787 27.7463 118.818C27.7602 118.849 27.7663 118.882 27.7642 118.915C27.7621 118.948 27.752 118.981 27.7343 119.011C26.0153 122.042 23.9612 132.411 24.8114 138.136C24.8201 138.202 24.7963 138.268 24.7451 138.32C24.694 138.373 24.6197 138.406 24.5383 138.414L24.4825 138.439Z" fill="white"/>
<path d="M24.3137 133.775C24.2662 133.777 24.219 133.768 24.1772 133.75C22.0238 132.896 20.6585 129.849 20.6027 129.708C20.5874 129.676 20.5801 129.643 20.5811 129.609C20.5822 129.575 20.5915 129.542 20.6086 129.511C20.6256 129.48 20.6501 129.452 20.6806 129.43C20.711 129.407 20.7468 129.389 20.7858 129.377C20.8248 129.366 20.8663 129.361 20.9077 129.363C20.9491 129.364 20.9897 129.373 21.027 129.388C21.0643 129.402 21.0976 129.423 21.1249 129.449C21.1522 129.474 21.173 129.504 21.186 129.536C21.186 129.566 22.5202 132.517 24.4502 133.28C24.5135 133.305 24.5646 133.347 24.5949 133.398C24.6253 133.45 24.6331 133.509 24.6173 133.564C24.6014 133.62 24.5627 133.67 24.5076 133.705C24.4524 133.741 24.3841 133.76 24.3137 133.76V133.775Z" fill="white"/>
<path d="M24.2772 135.796C24.215 135.796 24.1543 135.781 24.1033 135.752C24.0522 135.723 24.0133 135.682 23.9917 135.635C23.9608 135.573 23.9611 135.504 23.9925 135.442C24.0239 135.381 24.0838 135.332 24.1593 135.306C27.7834 134.124 30.0423 130.612 30.0672 130.572C30.105 130.512 30.1704 130.467 30.249 130.447C30.3275 130.426 30.4128 130.432 30.486 130.463C30.5593 130.494 30.6145 130.547 30.6395 130.611C30.6645 130.675 30.6573 130.744 30.6195 130.804C30.5202 130.956 28.2302 134.523 24.4137 135.776C24.3712 135.792 24.3241 135.799 24.2772 135.796Z" fill="white"/>
<path d="M150.955 108.612C150.955 108.612 148.243 105.034 147.976 101.149C147.709 97.263 148.758 95.646 150.198 95.1812C151.638 94.7163 151.749 96.1463 152.488 96.9901C153.226 97.8339 154.734 97.3539 155.293 94.7214C155.851 92.0888 157.887 87.6473 162.119 86.7833C166.773 85.8434 164.279 90.29 163.106 92.0231C161.933 93.7563 161.027 96.121 161.796 96.7627C162.566 97.4044 163.764 96.217 164.899 97.3185C166.283 98.6475 161.983 103.433 159.513 104.59L150.955 108.612Z" fill="#BA2D3B"/>
<path d="M154.673 107.111C154.632 107.11 154.592 107.102 154.555 107.088C154.518 107.074 154.485 107.054 154.457 107.03C154.43 107.006 154.408 106.977 154.394 106.946C154.38 106.915 154.374 106.882 154.375 106.848C154.795 100.598 157.189 94.5412 161.326 89.2643C161.349 89.2368 161.379 89.2135 161.414 89.1957C161.449 89.1779 161.488 89.1661 161.528 89.1609C161.569 89.1557 161.61 89.1573 161.65 89.1655C161.69 89.1737 161.727 89.1884 161.76 89.2087C161.825 89.2481 161.869 89.3066 161.881 89.3717C161.894 89.4369 161.875 89.5035 161.828 89.5574C157.766 94.757 155.415 100.72 155.002 106.874C155 106.907 154.989 106.939 154.971 106.969C154.954 106.999 154.929 107.026 154.898 107.048C154.868 107.07 154.832 107.087 154.793 107.098C154.755 107.109 154.714 107.113 154.673 107.111Z" fill="white"/>
<path d="M155.026 104.125C154.975 104.124 154.924 104.114 154.878 104.095C153.14 103.311 152.178 100.987 152.141 100.891C152.127 100.859 152.121 100.826 152.124 100.793C152.126 100.759 152.136 100.727 152.154 100.697C152.172 100.666 152.197 100.64 152.228 100.617C152.259 100.595 152.294 100.578 152.333 100.568C152.411 100.547 152.496 100.552 152.57 100.583C152.643 100.613 152.699 100.666 152.724 100.729C152.724 100.729 153.655 102.968 155.206 103.65C155.277 103.684 155.328 103.738 155.35 103.802C155.372 103.866 155.363 103.935 155.324 103.993C155.296 104.037 155.253 104.073 155.2 104.096C155.147 104.119 155.087 104.129 155.026 104.125Z" fill="white"/>
<path d="M155.33 102.594C155.261 102.593 155.195 102.574 155.141 102.539C155.087 102.504 155.049 102.456 155.032 102.402C155.022 102.37 155.02 102.337 155.026 102.304C155.031 102.271 155.045 102.24 155.066 102.212C155.087 102.184 155.114 102.159 155.147 102.14C155.179 102.12 155.216 102.106 155.256 102.099C159.736 101.174 161.288 99.2639 161.3 99.2437C161.322 99.2155 161.351 99.1911 161.384 99.1719C161.418 99.1527 161.456 99.139 161.496 99.1318C161.536 99.1245 161.577 99.1237 161.618 99.1295C161.658 99.1352 161.697 99.1474 161.731 99.1653C161.766 99.1833 161.796 99.2066 161.82 99.2339C161.843 99.2612 161.86 99.2921 161.869 99.3247C161.878 99.3573 161.879 99.391 161.872 99.424C161.865 99.4569 161.85 99.4883 161.828 99.5165C161.759 99.6024 160.146 101.608 155.411 102.589L155.33 102.594Z" fill="white"/>
<path d="M83.4372 100.76C83.4372 100.76 77.4859 99.5772 77.1756 90.5022C76.8467 80.7097 78.6339 69.2801 71.5904 68.3554C64.5468 67.4308 60.6372 74.4189 60.7241 82.5793C60.8047 89.7241 64.342 105.236 83.4124 108.278L83.4372 100.76Z" fill="#BA2D3B"/>
<path opacity="0.2" d="M83.4372 100.76C83.4372 100.76 77.4859 99.5772 77.1756 90.5022C76.8467 80.7097 78.6339 69.2801 71.5904 68.3554C64.5468 67.4308 60.6372 74.4189 60.7241 82.5793C60.8047 89.7241 64.342 105.236 83.4124 108.278L83.4372 100.76Z" fill="black"/>
<path d="M83.4369 107.349H83.3811C79.0929 106.712 75.5991 104.787 72.9988 101.634C65.2913 92.2707 67.7177 74.7878 68.5183 71.7358C68.5362 71.6708 68.5843 71.6139 68.6526 71.5772C68.7209 71.5405 68.8039 71.5267 68.8844 71.5387C68.9648 71.5544 69.0346 71.5946 69.0797 71.651C69.1247 71.7074 69.1414 71.7758 69.1264 71.8419C68.3383 74.8736 65.9243 92.1343 73.5139 101.351C74.6187 102.78 76.0762 104.007 77.794 104.953C79.5118 105.9 81.4525 106.545 83.4928 106.848C83.5333 106.854 83.5719 106.867 83.6064 106.885C83.6409 106.904 83.6705 106.927 83.6936 106.955C83.7167 106.983 83.7328 107.014 83.741 107.047C83.7491 107.08 83.7491 107.114 83.741 107.146C83.7278 107.204 83.6901 107.256 83.6344 107.293C83.5788 107.33 83.5088 107.35 83.4369 107.349Z" fill="white"/>
<path d="M83.4365 130.637C77.2866 131.314 67.3015 131.304 61.5364 127.606C55.7712 123.907 56.9751 120.724 59.1906 119.395C61.406 118.066 63.3298 116.55 59.5195 113.599C55.7092 110.648 49.5903 105.908 47.6044 98.7991C45.6186 91.6896 46.5991 87.2431 50.4963 85.7626C54.2756 84.3276 55.2748 86.6115 57.5895 91.3208C59.9043 96.0301 65.1109 91.9928 69.5666 93.4632C74.0224 94.9336 73.8424 97.8441 74.1217 100.345C74.4009 102.846 75.8717 103.539 78.3974 103.539C80.9232 103.539 83.4365 104.721 83.4365 107.076V130.637Z" fill="#BA2D3B"/>
<path d="M83.4364 122.381C83.4099 122.386 83.3823 122.386 83.3557 122.381C83.0889 122.32 76.728 120.815 67.4628 113.887C57.5956 106.51 52.9413 95.444 52.8916 95.3328C52.8678 95.2692 52.8752 95.2005 52.9122 95.1411C52.9493 95.0818 53.013 95.0364 53.0902 95.0145C53.1676 94.9936 53.252 94.9982 53.3251 95.0275C53.3983 95.0568 53.4544 95.1084 53.4812 95.1711C53.5246 95.2823 58.1355 106.227 67.8848 113.513C77.0197 120.35 83.455 121.881 83.5233 121.896C83.5624 121.905 83.5989 121.921 83.6307 121.941C83.6625 121.962 83.6889 121.988 83.7085 122.017C83.7281 122.046 83.7404 122.078 83.7449 122.111C83.7493 122.144 83.7457 122.177 83.7343 122.209C83.7142 122.26 83.6743 122.304 83.6205 122.335C83.5668 122.366 83.5022 122.382 83.4364 122.381Z" fill="white"/>
<path d="M70.051 115.645C69.9887 115.646 69.9275 115.631 69.8763 115.602C69.8251 115.573 69.7864 115.532 69.7656 115.484C67.7735 111.32 67.3205 102.412 67.2833 102.033C67.2815 101.966 67.3116 101.902 67.3671 101.853C67.4227 101.804 67.4994 101.774 67.5811 101.77C67.6622 101.771 67.7399 101.796 67.7995 101.841C67.8591 101.886 67.8962 101.947 67.9039 102.013C67.9039 102.104 68.3693 111.214 70.3241 115.302C70.339 115.333 70.3463 115.366 70.3453 115.4C70.3443 115.433 70.3352 115.466 70.3184 115.497C70.3017 115.527 70.2777 115.555 70.2477 115.578C70.2178 115.601 70.1826 115.618 70.1441 115.63C70.1142 115.639 70.0828 115.644 70.051 115.645Z" fill="white"/>
<path d="M70.0008 121.633C69.4286 121.637 68.8567 121.613 68.288 121.562C68.2472 121.558 68.2078 121.548 68.1721 121.532C68.1363 121.515 68.1048 121.493 68.0795 121.467C68.0541 121.441 68.0354 121.411 68.0243 121.378C68.0132 121.346 68.01 121.313 68.0149 121.279C68.0198 121.246 68.0327 121.214 68.0528 121.185C68.0729 121.156 68.0999 121.13 68.1321 121.11C68.1644 121.089 68.2013 121.074 68.2409 121.065C68.2804 121.056 68.3217 121.053 68.3625 121.057C68.4183 121.057 74.1959 121.593 76.8457 119.395C76.8733 119.368 76.9074 119.346 76.9457 119.331C76.9841 119.316 77.0259 119.307 77.0686 119.305C77.1114 119.304 77.154 119.309 77.1939 119.322C77.2338 119.334 77.2702 119.353 77.3006 119.378C77.3311 119.402 77.355 119.432 77.3709 119.464C77.3867 119.496 77.3942 119.531 77.3929 119.566C77.3916 119.6 77.3814 119.635 77.3631 119.666C77.3447 119.698 77.3186 119.726 77.2863 119.748C75.3688 121.36 72.0239 121.633 70.0008 121.633Z" fill="white"/>
<path d="M65.5328 25.9516L64.8626 22.8037L61.4122 24.6531C61.0969 24.1478 60.6501 23.7046 60.1028 23.3545L61.7535 19.7164L58.6507 19.1555L56.3793 22.6925C55.5576 22.8054 54.7609 23.0165 54.0149 23.3191L53.0282 20.6512L49.342 23.0109L49.584 26.1437C48.8334 26.8283 48.1526 27.5617 47.5485 28.3366L44.5077 28.2103L42.3729 32.1061L44.9856 33.0156C44.7128 33.8214 44.5402 34.6475 44.4705 35.4814L41.1504 37.9674L41.8144 41.1204L45.271 39.2711C45.5845 39.7759 46.0317 40.2177 46.5804 40.5646L44.9607 44.2077L48.0636 44.7635L51.3154 42.1866C52.0663 42.0906 51.8802 40.9385 52.6993 40.6101L53.686 43.2679L57.3661 40.9132L57.273 39.6803C58.0177 39.0032 60.8351 37.5126 61.4433 36.7345L62.2066 35.7239L64.3413 31.8281L63.3484 30.3628L62.2438 28.4528L65.5328 25.9516ZM54.2694 36.3151C51.4396 38.124 50.5459 38.5232 50.0681 36.1029C49.5902 33.6826 51.2099 30.0041 54.0398 28.1901C56.8696 26.3761 57.9494 26.2498 58.4583 28.665C58.9671 31.0803 57.1054 34.5264 54.2694 36.3151Z" fill="#E0E0E0"/>
<path d="M58.6756 19.1555L62.7031 21.0453L60.4318 24.5722L56.4043 22.6824L58.6756 19.1555Z" fill="#F5F5F5"/>
<path d="M68.8901 24.6935L65.4397 26.5428L61.4121 24.6531L64.8625 22.8037L68.8901 24.6935Z" fill="#F5F5F5"/>
<path d="M68.3374 33.7028L65.7248 32.7983L61.6973 30.9085L64.3099 31.813L68.3374 33.7028Z" fill="#E0E0E0"/>
<path d="M44.9541 44.2076L48.9816 46.0924L50.6324 42.4543L46.6048 40.5645L44.9541 44.2076Z" fill="#E0E0E0"/>
<path d="M57.676 45.1576L53.6547 43.2679L52.668 40.61L56.6955 42.4998L57.676 45.1576Z" fill="#E0E0E0"/>
<path d="M69.5536 27.8414L68.8896 24.6934L65.4392 26.5428C65.1216 26.0373 64.6727 25.5941 64.1235 25.2442L65.7743 21.6061L62.7024 21.0452L60.4249 24.5822C59.6032 24.6951 58.8064 24.9063 58.0605 25.2088L57.08 22.551L53.3938 24.9107L53.6358 28.0435C52.8843 28.733 52.2035 29.4715 51.6003 30.2516L48.5533 30.1253L46.4185 34.021L49.0311 34.9305C48.7608 35.7385 48.5883 36.5661 48.516 37.4014L45.2021 39.8521L45.8662 43.0051L49.3166 41.1557C49.6342 41.6597 50.0832 42.1012 50.6322 42.4492L48.9815 46.0873L52.0843 46.6482L54.3557 43.1112C55.1806 42.9996 55.9799 42.7866 56.7263 42.4796L57.7068 45.1374L61.393 42.7827L61.151 39.6499C61.9016 38.9653 62.5824 38.2319 63.1865 37.457L66.2335 37.5783L68.3683 33.6825L65.7184 32.778C65.9931 31.9707 66.1678 31.1429 66.2397 30.3072L69.5536 27.8414ZM58.3025 38.225C55.4789 40.034 52.7732 39.5438 52.2581 37.1286C51.743 34.7133 53.6234 31.2824 56.4532 29.4734C59.283 27.6645 61.9825 28.1597 62.4976 30.575C63.0127 32.9902 61.1324 36.4161 58.3025 38.225Z" fill="#EBEBEB"/>
<path d="M57.08 22.5409L53.0524 20.6511L49.3662 23.0108L53.3937 24.9006L57.08 22.5409Z" fill="#F5F5F5"/>
<path d="M49.3662 23.0109L49.6082 26.1437L53.6358 28.0334L53.3937 24.9006L49.3662 23.0109Z" fill="#E0E0E0"/>
<path d="M51.6006 30.2264L47.5731 28.3366L44.5322 28.2153L48.5536 30.1051L51.6006 30.2264Z" fill="#F5F5F5"/>
<path d="M44.5322 28.2153L42.3975 32.1061L46.4188 33.9958L48.5536 30.1051L44.5322 28.2153Z" fill="#E0E0E0"/>
<path d="M48.5162 37.3712L44.4949 35.4814L41.1748 37.9674L45.1961 39.8572L48.5162 37.3712Z" fill="#F5F5F5"/>
<path d="M45.8664 43.0102L41.8388 41.1204L41.1748 37.9674L45.1961 39.8572L45.8664 43.0102Z" fill="#E0E0E0"/>
<path d="M62.7033 21.0453L58.6758 19.1555L61.7538 19.7164L65.7752 21.6062L62.7033 21.0453Z" fill="#F5F5F5"/>
<path d="M47.4985 11.6621V6.95782L42.9001 8.64548C42.6565 7.84735 42.2359 7.09218 41.6589 6.41716L44.557 1.6624L41.0197 0L37.408 4.42127C36.4015 4.34968 35.3874 4.43019 34.4168 4.65876L33.9079 0.570978L28.9061 2.92562L28.4034 7.47321C27.3148 8.25859 26.3138 9.12095 25.4122 10.0502L21.8005 9.03961L18.2632 14.0319L21.1551 16.053C20.6207 17.1533 20.2054 18.2894 19.9139 19.4485L15.3154 22.0811V26.7904L19.9139 25.1027C20.1575 25.9009 20.5781 26.656 21.1551 27.331L18.2756 32.0909L21.8129 33.7533L25.4246 29.332C26.4311 29.4033 27.4452 29.3228 28.4158 29.0945L28.9185 33.1823L33.9203 30.8276L34.4292 26.28C35.9904 25.8163 37.3733 25.0249 38.4381 23.986L41.0321 24.7288L44.5694 19.7416L42.3974 18.2257C42.8689 16.9617 43.0437 15.6366 42.9125 14.3199L47.4985 11.6621ZM31.407 23.4151C27.5718 25.2189 25.2012 23.9203 25.2012 20.3277C25.2012 16.7351 28.3724 12.2937 32.2137 10.4898C36.0551 8.68591 38.3761 9.9845 38.3761 13.6074C38.3761 17.2303 35.2484 21.6061 31.407 23.4151Z" fill="#E0E0E0"/>
<path d="M45.0413 1.88473L41.02 0L37.4082 4.42127L41.4295 6.31105L45.0413 1.88473Z" fill="#F5F5F5"/>
<path d="M51.5264 8.84754L47.4989 6.95776L42.9004 8.64542L46.9279 10.5352L51.5264 8.84754Z" fill="#F5F5F5"/>
<path d="M32.9273 35.072L28.906 33.1823L28.4033 29.0945L32.4247 30.9843L32.9273 35.072Z" fill="#E0E0E0"/>
<path d="M18.2568 32.0908L22.2844 33.9806L25.1825 29.2258L21.1549 27.3361L18.2568 32.0908Z" fill="#E0E0E0"/>
<path d="M51.5259 13.577V8.87281L46.9274 10.5453C46.6864 9.74646 46.2656 8.99092 45.6863 8.31699L48.5843 3.56223L45.0471 1.89478L41.4353 6.3211C40.4288 6.24702 39.4141 6.32758 38.4441 6.55859L37.9352 2.4607L32.9334 4.81535L32.4245 9.36294C31.3375 10.1496 30.3367 11.0119 29.4334 11.9399L25.8216 10.9293L22.2843 15.9216L25.1824 17.9427C24.6452 19.0422 24.2299 20.1786 23.9412 21.3383L19.3428 23.9708V28.6801L23.9412 26.9925C24.1821 27.7913 24.603 28.5469 25.1824 29.2208L22.2843 33.9755L25.8216 35.6379L29.4334 31.2167C30.4399 31.2883 31.454 31.2077 32.4245 30.9792L32.9334 35.067L37.9352 32.7123L38.4379 28.1647C39.5265 27.3793 40.5275 26.517 41.4291 25.5877L45.0409 26.5983L48.5781 21.6111L45.6801 19.59C46.2171 18.4905 46.6324 17.3541 46.9212 16.1944L51.5259 13.577ZM35.4343 25.33C31.593 27.1339 28.4777 25.6686 28.4777 22.0608C28.4777 18.4531 31.5805 14.0621 35.4343 12.2532C39.2881 10.4443 42.3848 11.9146 42.3848 15.5224C42.3848 19.1302 39.2695 23.4959 35.4343 25.3048V25.33Z" fill="#EBEBEB"/>
<path d="M25.4125 10.0602L29.4339 11.95L25.8221 10.9243L21.8008 9.02942L25.4125 10.0602Z" fill="#F0F0F0"/>
<path d="M21.8 9.03475L18.2617 14.0287L22.2879 15.9198L25.8262 10.9259L21.8 9.03475Z" fill="#F5F5F5"/>
<path d="M18.2568 14.0219L22.2844 15.9116L25.1825 17.9429L21.1549 16.0582L18.2568 14.0219Z" fill="#E0E0E0"/>
<path d="M19.9139 19.4536L23.9414 21.3434L19.343 23.9759L15.3154 22.0862L19.9139 19.4536Z" fill="#F5F5F5"/>
<path d="M15.3154 22.0861L19.343 23.9759V28.6852L15.3154 26.7954V22.0861Z" fill="#E0E0E0"/>
<path d="M37.9356 2.46082L33.9081 0.571045L28.9062 2.92569L32.9276 4.81547L37.9356 2.46082Z" fill="#F5F5F5"/>
<path d="M89.567 137.398L147.901 109.971C148.03 109.934 148.141 109.866 148.22 109.775C148.299 109.685 148.341 109.577 148.341 109.466C148.341 109.355 148.299 109.247 148.22 109.156C148.141 109.066 148.03 108.997 147.901 108.96L142.508 106.434C142.174 106.297 141.806 106.226 141.432 106.226C141.058 106.226 140.689 106.297 140.355 106.434L82.0021 133.836C81.8736 133.873 81.7623 133.941 81.6835 134.031C81.6048 134.122 81.5625 134.23 81.5625 134.341C81.5625 134.452 81.6048 134.56 81.6835 134.651C81.7623 134.741 81.8736 134.81 82.0021 134.846L87.4136 137.373C87.7452 137.514 88.1127 137.589 88.4866 137.594C88.8605 137.598 89.2305 137.531 89.567 137.398Z" fill="#E0E0E0"/>
<path d="M146.3 4.07783L93.6998 28.8066C92.9179 29.2221 92.2671 29.7817 91.8003 30.4401C91.3335 31.0985 91.0636 31.8372 91.0127 32.5963V134.195C91.0127 135.589 92.2166 136.155 93.6998 135.458L146.3 110.729C147.083 110.314 147.734 109.755 148.201 109.096C148.668 108.438 148.938 107.699 148.987 106.939V5.34106C148.987 3.94646 147.789 3.38054 146.3 4.07783Z" fill="#455A64"/>
<path d="M93.7001 28.8067L146.3 4.07787C147.628 3.45132 148.727 3.84039 148.95 4.92676C148.826 4.24373 148.526 3.58984 148.069 3.00808C147.612 2.42632 147.009 1.92989 146.3 1.55143L144.116 0.540854C143.283 0.196854 142.362 0.0175781 141.429 0.0175781C140.495 0.0175781 139.574 0.196854 138.742 0.540854L86.1353 25.2495C85.343 25.654 84.6896 26.2155 84.2363 26.8815L91.8012 30.4186C92.2543 29.7578 92.9081 29.2028 93.7001 28.8067Z" fill="#37474F"/>
<path d="M83.4355 130.637C83.4865 131.396 83.7563 132.135 84.2232 132.794C84.69 133.452 85.3407 134.012 86.1226 134.427L88.3133 135.438C89.0715 135.746 89.9012 135.921 90.7482 135.951C91.5952 135.981 92.4403 135.864 93.2282 135.609C91.9871 136.004 91.0004 135.422 91.0004 134.174V32.5963C91.0315 31.8339 91.3029 31.0909 91.7885 30.4387L84.2237 26.9017C83.7448 27.549 83.4738 28.284 83.4355 29.039V130.637Z" fill="#263238"/>
<path d="M95.1457 42.3433L144.872 18.9737C145.766 18.5593 146.486 18.8979 146.486 19.7316V94.9286C146.456 95.3843 146.294 95.8279 146.014 96.223C145.734 96.6182 145.342 96.9538 144.872 97.2024L95.1643 120.572C94.2706 120.991 93.5508 120.653 93.5508 119.814V44.6171C93.579 44.1628 93.7381 43.7203 94.0151 43.3253C94.2922 42.9303 94.6795 42.5939 95.1457 42.3433Z" fill="white"/>
<path d="M120 20.2925C119.725 20.4392 119.497 20.6363 119.333 20.868C119.169 21.0997 119.075 21.3595 119.057 21.6264C119.057 22.1317 119.479 22.3187 120 22.0711C120.275 21.9252 120.505 21.7283 120.669 21.4964C120.833 21.2646 120.927 21.0043 120.943 20.7371C120.943 20.247 120.521 20.0499 120 20.2925Z" fill="#37474F"/>
<path d="M120 112.482C118.915 113.06 118.013 113.838 117.366 114.753C116.719 115.667 116.346 116.693 116.276 117.747C116.276 119.683 117.946 120.471 120 119.501C121.084 118.923 121.987 118.145 122.633 117.23C123.28 116.315 123.654 115.29 123.723 114.236C123.736 112.3 122.06 111.512 120 112.482Z" fill="#37474F"/>
<path d="M111.07 28.1143C110.524 28.4091 110.072 28.8041 109.748 29.2675C109.425 29.731 109.24 30.2498 109.208 30.7822C109.208 31.7625 110.052 32.1616 111.07 31.6715C111.621 31.3795 112.08 30.9857 112.409 30.5221C112.737 30.0585 112.927 29.5382 112.962 29.0036C112.962 28.0233 112.119 27.6242 111.07 28.1143Z" fill="#37474F"/>
<path d="M115.705 27.7808C115.705 28.4377 116.326 28.6853 117.052 28.3367L129.463 22.4905C129.848 22.295 130.17 22.0283 130.404 21.7122C130.638 21.3961 130.777 21.0395 130.81 20.6714C130.81 20.0196 130.189 19.772 129.463 20.1207L117.052 25.9669C116.668 26.1619 116.346 26.4277 116.112 26.7429C115.878 27.058 115.739 27.4136 115.705 27.7808Z" fill="#37474F"/>
<path d="M87.6301 45.5973C88.0705 45.8308 88.4371 46.1456 88.7001 46.5161C88.9632 46.8866 89.1154 47.3023 89.1443 47.7296C89.1443 48.5178 88.4678 48.8362 87.6301 48.442C87.1912 48.2076 86.826 47.8925 86.5641 47.5221C86.3022 47.1518 86.1508 46.7365 86.1221 46.3097C86.1221 45.5265 86.7985 45.2082 87.6301 45.5973Z" fill="#37474F"/>
<path d="M87.6301 55.0866C88.0705 55.3202 88.4371 55.6349 88.7001 56.0054C88.9632 56.3759 89.1154 56.7916 89.1443 57.2189C89.1443 58.0021 88.4678 58.3204 87.6301 57.9314C87.1912 57.6969 86.826 57.3818 86.5641 57.0115C86.3022 56.6411 86.1508 56.2258 86.1221 55.7991C86.1221 55.0108 86.7985 54.6925 87.6301 55.0866Z" fill="#37474F"/>
<path d="M87.1597 45.7893C87.6001 46.0229 87.9667 46.3376 88.2298 46.7081C88.4929 47.0786 88.645 47.4943 88.6739 47.9216C88.6739 48.7048 87.9975 49.0231 87.1597 48.6341C86.7193 48.4005 86.3527 48.0857 86.0896 47.7153C85.8266 47.3448 85.6744 46.929 85.6455 46.5018C85.6517 45.7135 86.3281 45.4103 87.1597 45.7893Z" fill="#455A64"/>
<path d="M87.1597 55.2736C87.6009 55.5077 87.968 55.8232 88.2312 56.1946C88.4943 56.5661 88.646 56.9828 88.6739 57.411C88.6739 58.1942 87.9975 58.5125 87.1597 58.1184C86.7183 57.8857 86.3509 57.5711 86.0877 57.2005C85.8245 56.8298 85.6729 56.4136 85.6455 55.986C85.6517 55.2029 86.3281 54.8845 87.1597 55.2736Z" fill="#455A64"/>
<path d="M156.551 22.1115C156.551 21.2727 155.832 20.9342 154.938 21.3536L148.987 24.1478L105.23 44.7232C104.76 44.9718 104.369 45.3074 104.088 45.7026C103.808 46.0977 103.646 46.5412 103.616 46.997V122.174C103.616 123.013 104.336 123.351 105.23 122.932L149.005 102.351L154.938 99.5621C155.408 99.3135 155.799 98.9779 156.079 98.5827C156.36 98.1876 156.522 97.744 156.551 97.2883V22.1115Z" fill="white"/>
<path d="M157.172 22.1115C157.211 21.8581 157.158 21.601 157.018 21.3723C156.879 21.1435 156.659 20.9534 156.388 20.8256C156.116 20.6978 155.804 20.638 155.491 20.6537C155.178 20.6694 154.878 20.76 154.628 20.914L148.949 23.587L104.92 44.3038C104.353 44.5951 103.881 44.9944 103.546 45.4671C103.211 45.9398 103.022 46.4718 102.996 47.0172V122.174C102.971 122.426 103.03 122.679 103.168 122.906C103.306 123.133 103.516 123.325 103.778 123.462C104 123.567 104.253 123.622 104.51 123.619C104.874 123.61 105.228 123.524 105.54 123.371L149.601 102.655L155.267 99.9916C155.831 99.6974 156.299 99.2975 156.634 98.8254C156.969 98.3533 157.16 97.8228 157.191 97.2782L157.172 22.1115ZM148.962 101.79L148.453 102.033L104.944 122.487C104.871 122.533 104.787 122.565 104.696 122.58C104.606 122.596 104.513 122.595 104.423 122.578C104.342 122.538 104.262 122.396 104.262 122.164V46.997C104.294 46.6301 104.428 46.274 104.654 45.9554C104.879 45.6368 105.191 45.364 105.565 45.1577L149.03 24.6936L155.236 21.768C155.309 21.7222 155.394 21.6903 155.484 21.6746C155.574 21.6588 155.667 21.6597 155.757 21.677C155.838 21.7174 155.919 21.8589 155.919 22.0913V97.2884C155.886 97.6552 155.752 98.0114 155.527 98.33C155.301 98.6486 154.989 98.9213 154.615 99.1276L148.949 101.79H148.962Z" fill="#BA2D3B"/>
<path d="M130.084 39.5793C135.67 36.9619 140.169 39.074 140.169 44.3239C140.169 49.5739 135.651 55.9455 130.084 58.5427C124.518 61.1399 120 59.048 120 53.8031C120 48.5582 124.518 42.2017 130.084 39.5793Z" fill="#BA2D3B"/>
<path d="M130.084 43.7025C131.89 42.8536 133.354 43.5408 133.354 45.2184C133.293 46.1425 132.965 47.0419 132.397 47.8434C131.828 48.645 131.036 49.3261 130.084 49.8316C128.278 50.6805 126.813 49.9933 126.813 48.3158C126.875 47.3916 127.203 46.4923 127.771 45.6907C128.339 44.8892 129.132 44.208 130.084 43.7025Z" fill="#BA2D3B"/>
<path d="M136.458 52.7572C136.458 49.9681 134.056 48.8362 131.084 50.2308L129.222 51.105C126.255 52.4996 123.848 55.8951 123.848 58.6843V59.4372C125.567 59.897 127.726 59.6494 130.053 58.5428C132.631 57.248 134.811 55.4903 136.427 53.404L136.458 52.7572Z" fill="#BA2D3B"/>
<path opacity="0.7" d="M130.084 43.7025C131.89 42.8536 133.354 43.5408 133.354 45.2184C133.293 46.1425 132.965 47.0419 132.397 47.8434C131.828 48.645 131.036 49.3261 130.084 49.8316C128.278 50.6805 126.813 49.9933 126.813 48.3158C126.875 47.3916 127.203 46.4923 127.771 45.6907C128.339 44.8892 129.132 44.208 130.084 43.7025Z" fill="white"/>
<path opacity="0.7" d="M136.458 52.7572C136.458 49.9681 134.056 48.8362 131.084 50.2308L129.222 51.105C126.255 52.4996 123.848 55.8951 123.848 58.6843V59.4372C125.567 59.897 127.726 59.6494 130.053 58.5428C132.631 57.248 134.811 55.4903 136.427 53.404L136.458 52.7572Z" fill="white"/>
<path d="M110.574 70.0886L123.55 63.9898C124.17 63.7119 124.623 63.9342 124.623 64.4951V64.8438C124.604 65.1474 124.496 65.443 124.31 65.7064C124.123 65.9699 123.863 66.1937 123.55 66.3596L110.574 72.4584C109.984 72.7364 109.5 72.509 109.5 71.9532V71.6045C109.52 71.3009 109.628 71.0055 109.814 70.7421C110.001 70.4788 110.261 70.2549 110.574 70.0886Z" fill="#BA2D3B"/>
<path opacity="0.1" d="M110.574 70.0886L123.55 63.9898C124.17 63.7119 124.623 63.9342 124.623 64.4951V64.8438C124.604 65.1474 124.496 65.443 124.31 65.7064C124.123 65.9699 123.863 66.1937 123.55 66.3596L110.574 72.4584C109.984 72.7364 109.5 72.509 109.5 71.9532V71.6045C109.52 71.3009 109.628 71.0055 109.814 70.7421C110.001 70.4788 110.261 70.2549 110.574 70.0886Z" fill="black"/>
<path d="M110.04 77.4507L149.298 58.9976C149.589 58.8561 149.831 58.9673 149.831 59.2503V62.9793C149.82 63.1306 149.766 63.2778 149.674 63.4093C149.581 63.5408 149.452 63.6531 149.298 63.7372L110.04 82.1903C109.742 82.3318 109.5 82.2156 109.5 81.9377V78.2087C109.511 78.0567 109.565 77.9089 109.659 77.7772C109.753 77.6456 109.883 77.5337 110.04 77.4507Z" fill="#BA2D3B"/>
<path opacity="0.2" d="M110.04 77.4507L149.298 58.9976C149.589 58.8561 149.831 58.9673 149.831 59.2503V62.9793C149.82 63.1306 149.766 63.2778 149.674 63.4093C149.581 63.5408 149.452 63.6531 149.298 63.7372L110.04 82.1903C109.742 82.3318 109.5 82.2156 109.5 81.9377V78.2087C109.511 78.0567 109.565 77.9089 109.659 77.7772C109.753 77.6456 109.883 77.5337 110.04 77.4507Z" fill="white"/>
<path d="M110.574 86.6772L123.55 80.5784C124.17 80.3005 124.623 80.5279 124.623 81.0837V81.4323C124.604 81.7361 124.497 82.0318 124.31 82.2953C124.124 82.5588 123.863 82.7825 123.55 82.9482L110.574 89.047C109.984 89.33 109.5 89.1026 109.5 88.5417V88.1931C109.521 87.8897 109.629 87.5946 109.816 87.3313C110.002 87.0681 110.262 86.8441 110.574 86.6772Z" fill="#BA2D3B"/>
<path opacity="0.1" d="M110.574 86.6772L123.55 80.5784C124.17 80.3005 124.623 80.5279 124.623 81.0837V81.4323C124.604 81.7361 124.497 82.0318 124.31 82.2953C124.124 82.5588 123.863 82.7825 123.55 82.9482L110.574 89.047C109.984 89.33 109.5 89.1026 109.5 88.5417V88.1931C109.521 87.8897 109.629 87.5946 109.816 87.3313C110.002 87.0681 110.262 86.8441 110.574 86.6772Z" fill="black"/>
<path d="M110.04 94.0393L149.298 75.5862C149.589 75.4447 149.831 75.5609 149.831 75.8388V79.5678C149.82 79.7192 149.766 79.8664 149.674 79.9979C149.581 80.1294 149.452 80.2416 149.298 80.3258L110.04 98.7789C109.742 98.9204 109.5 98.8092 109.5 98.5263V94.7972C109.511 94.6453 109.565 94.4975 109.659 94.3658C109.753 94.2341 109.883 94.1223 110.04 94.0393Z" fill="#BA2D3B"/>
<path opacity="0.2" d="M110.04 94.0393L149.298 75.5862C149.589 75.4447 149.831 75.5609 149.831 75.8388V79.5678C149.82 79.7192 149.766 79.8664 149.674 79.9979C149.581 80.1294 149.452 80.2416 149.298 80.3258L110.04 98.7789C109.742 98.9204 109.5 98.8092 109.5 98.5263V94.7972C109.511 94.6453 109.565 94.4975 109.659 94.3658C109.753 94.2341 109.883 94.1223 110.04 94.0393Z" fill="white"/>
<path d="M125.697 96.1564L141.211 88.8752C141.832 88.5923 142.291 88.8196 142.291 89.3805V93.2813C142.271 93.5854 142.162 93.8813 141.974 94.1448C141.787 94.4083 141.525 94.6318 141.211 94.7972L125.697 102.083C125.076 102.361 124.623 102.134 124.623 101.578V97.6723C124.645 97.369 124.753 97.074 124.939 96.8108C125.126 96.5476 125.385 96.3236 125.697 96.1564Z" fill="#BA2D3B"/>
<path opacity="0.1" d="M125.697 96.1564L141.211 88.8752C141.832 88.5923 142.291 88.8196 142.291 89.3805V93.2813C142.271 93.5854 142.162 93.8813 141.974 94.1448C141.787 94.4083 141.525 94.6318 141.211 94.7972L125.697 102.083C125.076 102.361 124.623 102.134 124.623 101.578V97.6723C124.645 97.369 124.753 97.074 124.939 96.8108C125.126 96.5476 125.385 96.3236 125.697 96.1564Z" fill="black"/>
<path d="M162.435 79.6941C162.435 79.6941 154.815 71.1345 154.368 70.0936C154.014 69.3256 154.368 68.1836 154.48 67.6531C154.591 67.1225 154.691 65.9402 154.802 65.6319C154.988 65.0559 154.076 65.1721 153.561 65.6976C153.046 66.2231 152.872 67.2741 152.605 67.4459C152.339 67.6177 150.309 65.2075 149.248 64.0959C148.187 62.9842 147.523 62.3071 146.871 62.7215C146.406 63.0196 146.753 63.6664 147.523 64.6163C147.972 65.1278 148.387 65.6592 148.764 66.208C148.882 66.4151 148.249 66.4303 147.908 66.8598C147.641 67.1933 147.908 67.7339 147.535 67.9916C147.306 68.1336 147.149 68.3393 147.094 68.5694C147.039 68.7996 147.09 69.0382 147.237 69.2397C147.928 70.123 148.819 70.8912 149.862 71.5034C151.004 72.1451 151.464 72.3725 152.14 73.2466C152.816 74.1208 158.886 83.0492 159.295 83.5848C159.705 84.1204 160.493 85.2119 161.691 85.2422C162.888 85.2725 172.693 78.4006 173.196 78.057C174.81 76.9605 175.325 76.8039 175.598 77.7892C175.692 78.1394 175.763 78.4937 175.809 78.8503C176.001 80.1034 177.05 84.5803 177.05 84.5803C177.05 84.5803 182.015 86.5357 186.092 85.5908C190.169 84.6459 191.547 83.2362 191.547 83.2362L189.505 80.5278C190.057 79.4111 192.608 74.8838 193.433 71.7156L180.649 70.033C180.389 69.9875 179.967 69.9016 179.408 69.7854C178.707 69.6338 176.926 69.1336 175.579 70.0936C171.185 73.2113 162.448 79.6941 162.448 79.6941" fill="#FFA8A7"/>
<path d="M187.779 132.214L185.489 134.806C186.53 135.202 187.667 135.4 188.816 135.387C190.87 135.448 191.434 134.882 191.509 134.771C191.856 134.164 191.316 133.073 191.168 132.133L187.779 132.214Z" fill="#37474F"/>
<path d="M185.62 133.563C185.62 133.563 182.84 133.416 180.922 133.224C179.005 133.032 177.484 133.79 177.931 134.432C178.378 135.074 179.439 135.609 181.09 136.059C182.499 136.448 184.193 136.726 185.657 137.07C187.122 137.413 188.14 137.863 188.99 137.62C189.939 137.353 190.349 137.044 190.268 136.478C190.061 135.673 189.804 134.877 189.499 134.093L185.62 133.563Z" fill="#37474F"/>
<path d="M191.509 129.612C191.509 129.612 191.161 131.966 191.137 132.471C191.112 132.977 188.313 133.138 187.779 132.214L187.692 129.334L191.509 129.612Z" fill="#F28F8F"/>
<path d="M188.692 131.057L189.691 134.634C189.691 134.634 189.784 135.069 187.5 135.347C185.217 135.624 181.63 134.371 181.015 134.119C180.401 133.866 180.333 133.356 182.579 133.457C184.826 133.558 185.62 133.563 185.62 133.563L184.888 131.981L188.692 131.057Z" fill="#FFA8A7"/>
<path d="M193.396 71.6853L194.978 71.3265C194.978 71.3265 198.286 79.8508 198.652 80.6744C199.018 81.498 199.434 82.3671 198.721 83.3827C197.87 84.5904 193.396 89.4462 193.396 89.4462L190.554 87.1825L193.781 82.3721L190.926 77.673L193.396 71.6853Z" fill="#F28F8F"/>
<path d="M177.143 60.6144C176.772 60.0473 176.583 59.4129 176.595 58.7705C176.607 58.1281 176.819 57.4986 177.211 56.941C178.787 54.5611 182.3 53.4039 186.482 53.8435C188.418 54.0507 190.702 55.3594 191.95 57.3149C193.327 59.4826 193.458 63.8482 193.811 65.5005L177.143 60.6144Z" fill="#37474F"/>
<path d="M177.031 61.5492C177.031 61.5492 176.038 63.0903 176.212 63.2318C176.469 63.3542 176.75 63.4397 177.043 63.4844L177.031 61.5492Z" fill="#FFA8A7"/>
<path d="M180.047 56.6782C178.967 57.2492 177.105 58.3002 177.025 61.7614C176.938 65.2984 177.558 66.4657 178.204 66.8749C178.638 67.1529 181.189 67.0114 182.281 66.8042C183.373 66.597 186.52 65.3288 187.655 63.4036C188.989 61.1399 188.716 57.8454 186.737 56.8349C185.729 56.3497 184.587 56.0809 183.417 56.0535C182.247 56.0261 181.087 56.241 180.047 56.6782Z" fill="#FFA8A7"/>
<path d="M191.509 83.216C193.42 85.6414 195.232 87.7636 195.629 90.5023C196.448 96.2575 193.767 102.836 193.19 107.096C194.276 108.308 194.901 109.751 194.99 111.249C194.99 113.013 191.509 129.612 191.509 129.612C191.509 129.612 188.977 130.238 187.692 129.334L185.303 98.7991L186.544 95.0802L191.509 83.216Z" fill="black"/>
<path opacity="0.2" d="M191.509 83.216C193.42 85.6414 195.232 87.7636 195.629 90.5023C196.448 96.2575 193.767 102.836 193.19 107.096C194.276 108.308 194.901 109.751 194.99 111.249C194.99 113.013 191.509 129.612 191.509 129.612C191.509 129.612 188.977 130.238 187.692 129.334L185.303 98.7991L186.544 95.0802L191.509 83.216Z" fill="#BA2D3B"/>
<path d="M185.303 98.799L186.544 95.0801C188.92 94.5708 191.212 93.8293 193.37 92.872C193.37 92.872 192.079 94.787 188.368 95.838L186.451 100.613L186.289 111.553L185.303 98.799Z" fill="black"/>
<path opacity="0.3" d="M185.303 98.799L186.544 95.0801C188.92 94.5708 191.212 93.8293 193.37 92.872C193.37 92.872 192.079 94.787 188.368 95.838L186.451 100.613L186.289 111.553L185.303 98.799Z" fill="black"/>
<path d="M191.509 83.216C192.533 84.5803 194.978 86.9046 194.456 89.143C193.836 91.8514 192.036 93.7563 186.563 95.0802L181.424 110.239C181.424 110.239 184.099 112.26 184.918 114.215C185.737 116.171 188.691 131.067 188.691 131.067C188.691 131.067 187.773 132.285 184.887 131.991C184.887 131.991 174.827 113.296 174.12 112.078C173.261 110.845 172.961 109.406 173.27 108.011C173.586 106.05 176.993 84.5904 176.993 84.5904L191.509 83.216Z" fill="black"/>
<path opacity="0.2" d="M191.509 83.216C192.533 84.5803 194.978 86.9046 194.456 89.143C193.836 91.8514 192.036 93.7563 186.563 95.0802L181.424 110.239C181.424 110.239 184.099 112.26 184.918 114.215C185.737 116.171 188.691 131.067 188.691 131.067C188.691 131.067 187.773 132.285 184.887 131.991C184.887 131.991 174.827 113.296 174.12 112.078C173.261 110.845 172.961 109.406 173.27 108.011C173.586 106.05 176.993 84.5904 176.993 84.5904L191.509 83.216Z" fill="black"/>
<path d="M193.396 71.6853L180.612 70.0027C180.351 69.9572 179.929 69.8713 179.371 69.7551C179.371 69.7551 178.825 76.2834 175.542 77.779C175.623 78.0923 175.691 78.441 175.753 78.8402C175.945 80.0933 176.994 84.5701 176.994 84.5701C176.994 84.5701 181.959 86.5256 186.036 85.5807C190.113 84.6358 191.491 83.2261 191.491 83.2261L189.449 80.5177C190.02 79.3909 192.589 74.8635 193.396 71.6853Z" fill="black"/>
<path opacity="0.7" d="M193.396 71.6853L180.612 70.0027C180.351 69.9572 179.929 69.8713 179.371 69.7551C179.371 69.7551 178.825 76.2834 175.542 77.779C175.623 78.0923 175.691 78.441 175.753 78.8402C175.945 80.0933 176.994 84.5701 176.994 84.5701C176.994 84.5701 181.959 86.5256 186.036 85.5807C190.113 84.6358 191.491 83.2261 191.491 83.2261L189.449 80.5177C190.02 79.3909 192.589 74.8635 193.396 71.6853Z" fill="white"/>
<path d="M190.026 79.4415C188.329 80.2716 186.55 80.9865 184.708 81.5789C186.38 81.5517 188.016 81.1834 189.468 80.5077L190.026 79.4415Z" fill="black"/>
<path d="M179.73 56.85C179.73 56.85 179.11 60.1344 180.574 62.0646C180.574 62.0646 181.12 60.7559 182.479 61.0035C183.838 61.2511 183.913 62.7114 182.957 63.5299C182.714 63.7595 182.397 63.9287 182.041 64.0181C181.685 64.1075 181.306 64.1134 180.947 64.0352C180.947 64.0352 180.729 66.4101 180.611 68.4009C180.493 70.3918 179.848 74.7322 182.597 76.4855C185.346 78.2389 192.247 78.8553 195.48 75.1768C197.28 73.1304 194.891 69.5125 193.78 65.4551C192.756 61.7261 192.179 56.1982 187.32 55.3089C182.461 54.4196 179.73 56.85 179.73 56.85Z" fill="#37474F"/>
<path d="M197.56 11.9753L196.536 12.4806C196.622 12.184 196.67 11.8809 196.679 11.5762C196.679 9.88344 195.22 9.2013 193.421 10.0603C192.873 10.3293 192.384 10.6708 191.975 11.0709C191.975 8.79707 190.014 7.87239 187.593 9.00929C186.318 9.68652 185.257 10.599 184.495 11.6727C183.734 12.7464 183.295 13.951 183.212 15.189C183.212 15.3052 183.212 15.4163 183.212 15.5275C182.589 15.4636 181.958 15.5818 181.431 15.861C180.483 16.3641 179.694 17.0423 179.127 17.8403C178.561 18.6384 178.234 19.5338 178.173 20.4541C178.173 20.668 178.2 20.8814 178.254 21.0907L177.708 21.3484C176.224 22.0457 175.021 23.405 175.021 24.3802C175.021 25.3554 176.224 25.5878 177.708 24.8855L197.566 15.5629C199.049 14.8656 200.253 13.5064 200.253 12.5312C200.253 11.5559 199.043 11.273 197.56 11.9753Z" fill="#EBEBEB"/>
</svg>
